<svg width="48" height="98" viewBox="0 0 48 98" fill="none" xmlns="http://www.w3.org/2000/svg">
<path d="M36.584 25.16C33.272 24.632 30.812 25.256 29.204 27.032C27.596 28.808 26.792 31.424 26.792 34.88V44.672H36.584V34.88H31.544C31.28 33.152 31.52 31.748 32.264 30.668C33.032 29.588 34.28 29.12 36.008 29.264L36.584 25.16ZM23.552 25.16C20.24 24.632 17.78 25.256 16.172 27.032C14.564 28.808 13.76 31.424 13.76 34.88V44.672H23.552V34.88H18.512C18.248 33.152 18.488 31.748 19.232 30.668C20 29.588 21.248 29.12 22.976 29.264L23.552 25.16Z" fill="#2EC5CE"/>
</svg>
