<svg width="79" height="78" viewBox="0 0 79 78" fill="none" xmlns="http://www.w3.org/2000/svg">
<path d="M40.5184 42.569C40.3741 42.5378 40.226 42.5322 40.0798 42.554C38.6149 42.3835 37.5097 41.144 37.5072 39.6697C37.5072 38.9631 36.9344 38.3903 36.2278 38.3903C35.5212 38.3903 34.9484 38.9631 34.9484 39.6697C34.9521 42.1317 36.5989 44.2883 38.9728 44.9398V46.2193C38.9728 46.9258 39.5457 47.4987 40.2522 47.4987C40.9588 47.4987 41.5317 46.9258 41.5317 46.2193V45.0173C44.2717 44.4438 46.134 41.8918 45.846 39.1075C45.5574 36.3231 43.2115 34.2072 40.4122 34.2065C38.8079 34.2065 37.5072 32.9059 37.5072 31.3016C37.5072 29.6973 38.8079 28.3966 40.4122 28.3966C42.0164 28.3966 43.3171 29.6973 43.3171 31.3016C43.3171 32.0081 43.89 32.581 44.5965 32.581C45.3031 32.581 45.876 32.0081 45.876 31.3016C45.8722 28.7165 44.0612 26.4869 41.5317 25.9534V24.7889C41.5317 24.0823 40.9588 23.5095 40.2522 23.5095C39.5457 23.5095 38.9728 24.0823 38.9728 24.7889V26.0315C36.3328 26.7524 34.6335 29.3156 34.9971 32.0281C35.3607 34.7407 37.6753 36.7654 40.4122 36.7648C41.9952 36.7648 43.2865 38.0323 43.3152 39.6147C43.3446 41.1971 42.1002 42.5116 40.5184 42.569Z" fill="#47BD9C"/>
<path d="M21.8584 35.584C21.8584 45.8306 30.1647 54.1369 40.4113 54.1369C50.6579 54.1369 58.9642 45.8306 58.9642 35.584C58.9642 25.3373 50.6579 17.0311 40.4113 17.0311C30.1697 17.0423 21.8703 25.3423 21.8584 35.584ZM40.4113 19.5899C49.2448 19.5899 56.4054 26.7505 56.4054 35.584C56.4054 44.4175 49.2448 51.5781 40.4113 51.5781C31.5778 51.5781 24.4172 44.4175 24.4172 35.584C24.4272 26.7548 31.5821 19.5999 40.4113 19.5899Z" fill="#47BD9C"/>
<path d="M65.2721 57.2911L55.2497 62.0265C53.866 59.4526 51.2115 57.8146 48.2903 57.7322L39.0382 57.4779C37.5733 57.4361 36.1358 57.065 34.8333 56.3921L33.8918 55.9042C29.0715 53.3916 23.3259 53.3979 18.5106 55.9205L18.5693 53.7877C18.5887 53.0811 18.0321 52.4926 17.3255 52.4733L7.18005 52.194C6.4735 52.1747 5.88564 52.7313 5.86627 53.4378L5.25342 75.7016C5.23405 76.4082 5.79068 76.9966 6.49724 77.016L16.6427 77.2953H16.6777C17.3711 77.2953 17.9383 76.7436 17.9571 76.0508L17.9864 74.9857L20.6221 73.5744C21.6567 73.0178 22.8661 72.8854 23.9962 73.2052L39.7354 77.6226C39.7629 77.6307 39.7904 77.637 39.8185 77.6432C40.9561 77.8812 42.1156 78.0006 43.2776 77.9999C45.739 78.0012 48.1716 77.4708 50.4088 76.4438C50.4637 76.4188 50.5168 76.3894 50.5674 76.3563L73.3878 61.5954C73.9563 61.2275 74.14 60.4809 73.807 59.8912C72.1128 56.8851 68.3551 55.7399 65.2721 57.2911ZM7.84663 74.4934L8.38889 54.7872L15.9761 54.9959L15.4338 74.7027L7.84663 74.4934ZM49.2561 74.1585C46.4768 75.413 43.3725 75.7591 40.3851 75.1487L24.6884 70.7426C22.9217 70.2434 21.0307 70.4502 19.4146 71.3192L18.0677 72.0407L18.4281 58.9385C22.6962 56.0998 28.17 55.808 32.7155 58.1763L33.6569 58.6643C35.3024 59.5139 37.1172 59.9824 38.9683 60.0361L48.221 60.2904C50.8198 60.3654 53.027 62.2158 53.5542 64.7621L39.7723 64.3817C39.0657 64.3623 38.4779 64.9196 38.4579 65.6255C38.4385 66.3321 38.9958 66.9205 39.7017 66.9399L54.9111 67.3585H54.9467C55.6395 67.3578 56.2062 66.8062 56.2249 66.114C56.2405 65.558 56.1993 65.0014 56.1012 64.4542L66.381 59.597C66.3909 59.5926 66.4009 59.5876 66.4109 59.5826C67.869 58.8448 69.632 59.0916 70.8315 60.2017L49.2561 74.1585Z" fill="#47BD9C"/>
<path d="M41.6917 13.434V1.27943C41.6917 0.572867 41.1188 0 40.4122 0C39.7057 0 39.1328 0.572867 39.1328 1.27943V13.434C39.1328 14.1405 39.7057 14.7134 40.4122 14.7134C41.1188 14.7134 41.6917 14.1405 41.6917 13.434Z" fill="#47BD9C"/>
<path d="M51.2874 13.4339V7.67652C51.2874 6.96996 50.7145 6.39709 50.0079 6.39709C49.3014 6.39709 48.7285 6.96996 48.7285 7.67652V13.4339C48.7285 14.1405 49.3014 14.7134 50.0079 14.7134C50.7145 14.7134 51.2874 14.1405 51.2874 13.4339Z" fill="#47BD9C"/>
<path d="M32.096 13.4339V7.67652C32.096 6.96996 31.5231 6.39709 30.8165 6.39709C30.11 6.39709 29.5371 6.96996 29.5371 7.67652V13.4339C29.5371 14.1405 30.11 14.7134 30.8165 14.7134C31.5231 14.7134 32.096 14.1405 32.096 13.4339Z" fill="#47BD9C"/>
</svg>
