<svg width="15" height="12" viewBox="0 0 15 12" fill="none" xmlns="http://www.w3.org/2000/svg">
<path d="M6.71505 1.93541H8.69445C9.61041 1.93621 10.4057 2.54396 10.6158 3.40366C10.6334 3.47533 10.6997 3.52599 10.7761 3.52616H13.8093C13.853 3.52631 13.895 3.50966 13.926 3.47989C13.957 3.45012 13.9744 3.40967 13.9744 3.36749V1.77616C13.9744 1.43863 13.8354 1.11494 13.5878 0.876333C13.3402 0.637724 13.0045 0.503752 12.6544 0.503906H2.75506C2.40503 0.503752 2.06928 0.637724 1.82171 0.876333C1.57415 1.11494 1.43506 1.43863 1.43506 1.77616V3.36749C1.43506 3.40967 1.45248 3.45012 1.48347 3.47989C1.51446 3.50966 1.55646 3.52631 1.60021 3.52616H4.63342C4.70997 3.52642 4.77651 3.47557 4.79374 3.40366C5.0038 2.54396 5.79909 1.93621 6.71505 1.93541Z" fill="black"/>
<path d="M1.10531 4.48096C0.93022 4.4808 0.762253 4.5478 0.638445 4.66719C0.514636 4.78657 0.445152 4.94854 0.445313 5.11737V8.45812C0.445312 8.76059 0.666086 9.02127 0.973433 9.08171C1.05012 9.09692 1.1052 9.16196 1.10531 9.23746V10.526C1.10531 10.8775 1.4008 11.1625 1.76531 11.1625C2.12982 11.1625 2.42531 10.8775 2.42531 10.526V9.25379C2.42515 9.21161 2.44241 9.1711 2.47329 9.14122C2.50417 9.11134 2.54611 9.09454 2.58986 9.09454H12.8195C12.8633 9.09454 12.9052 9.11134 12.9361 9.14122C12.967 9.1711 12.9843 9.21161 12.9841 9.25379V10.526C12.9841 10.8775 13.2796 11.1625 13.6441 11.1625C14.0086 11.1625 14.3041 10.8775 14.3041 10.526V9.23746C14.3042 9.16196 14.3593 9.09692 14.436 9.08171C14.7433 9.02127 14.9641 8.76059 14.9641 8.45812V5.11737C14.9642 4.94854 14.8948 4.78657 14.771 4.66719C14.6471 4.5478 14.4792 4.4808 14.3041 4.48096H1.10531Z" fill="black"/>
</svg>
