<svg width="36" height="36" viewBox="0 0 36 36" fill="none" xmlns="http://www.w3.org/2000/svg">
<path d="M18 0C8.07504 0 0 8.07462 0 18C0 27.9254 8.07504 36 18 36C27.9254 36 36 27.9254 36 18C36 8.07462 27.925 0 18 0ZM18 33.3723C9.52383 33.3723 2.62772 26.4762 2.62772 18C2.62772 9.52383 9.52383 2.62772 18 2.62772C26.4762 2.62772 33.3723 9.52376 33.3723 17.9996C33.3723 26.4762 26.4762 33.3723 18 33.3723Z" fill="black"/>
<path d="M24.1307 18H18.4373V10.1167C18.4373 9.39105 17.8491 8.80289 17.1234 8.80289C16.3977 8.80289 15.8096 9.39105 15.8096 10.1167V19.3138C15.8096 20.0395 16.3977 20.6277 17.1234 20.6277H24.1307C24.8564 20.6277 25.4446 20.0395 25.4446 19.3138C25.4446 18.5881 24.8564 18 24.1307 18Z" fill="black"/>
</svg>
