<svg width="35" height="35" viewBox="0 0 35 35" fill="none" xmlns="http://www.w3.org/2000/svg">
<path d="M31.997 20.503H24.7497L29.8743 25.6275C31.0469 26.8002 31.0469 28.7016 29.8743 29.8743C28.7016 31.047 26.8001 31.047 25.6275 29.8743L20.5029 24.7498V31.9971C20.5029 33.6555 19.1583 35 17.5 35C15.8416 35 14.4971 33.6555 14.4971 31.9971V24.7498L9.37253 29.8743C8.19982 31.047 6.29843 31.047 5.12573 29.8743C3.95302 28.7016 3.95302 26.8002 5.12573 25.6275L10.2503 20.503H3.0029C1.34453 20.503 0 19.1584 0 17.5C0 15.8416 1.34453 14.4971 3.0029 14.4971H10.2503L5.12573 9.37253C3.95302 8.19989 3.95302 6.29843 5.12573 5.12572C6.29843 3.95302 8.19982 3.95302 9.37253 5.12572L14.4971 10.2503V3.00296C14.4971 1.34453 15.8416 6.10352e-05 17.5 6.10352e-05C19.1584 6.10352e-05 20.5029 1.34459 20.5029 3.00296V10.2503L25.6275 5.12572C26.8001 3.95308 28.7016 3.95308 29.8743 5.12572C31.047 6.29843 31.047 8.19989 29.8743 9.37253L24.7497 14.4971H31.997C33.6555 14.4971 34.9999 15.8417 34.9999 17.5C35 19.1584 33.6555 20.503 31.997 20.503Z" fill="#47BD9C"/>
</svg>
