<svg width="40" height="40" viewBox="0 0 40 40" fill="none" xmlns="http://www.w3.org/2000/svg">
<path d="M38.125 33.75H33.125V22.5H36.875V24.375C36.875 24.5408 36.9408 24.6997 37.0581 24.8169C37.1753 24.9342 37.3342 25 37.5 25C37.6658 25 37.8247 24.9342 37.9419 24.8169C38.0592 24.6997 38.125 24.5408 38.125 24.375V21.875C38.125 21.7092 38.0592 21.5503 37.9419 21.4331C37.8247 21.3158 37.6658 21.25 37.5 21.25H29.375V6.25H30.625C30.7908 6.25 30.9497 6.18415 31.0669 6.06694C31.1842 5.94973 31.25 5.79076 31.25 5.625V3.125C31.25 2.95924 31.1842 2.80027 31.0669 2.68306C30.9497 2.56585 30.7908 2.5 30.625 2.5H9.375C9.20924 2.5 9.05027 2.56585 8.93306 2.68306C8.81585 2.80027 8.75 2.95924 8.75 3.125V5.625C8.75 5.79076 8.81585 5.94973 8.93306 6.06694C9.05027 6.18415 9.20924 6.25 9.375 6.25H10.625V21.25H8.32859L9.35094 17.6719C9.37755 17.5788 9.38219 17.4809 9.36451 17.3858C9.34683 17.2907 9.3073 17.2009 9.24905 17.1237C9.19079 17.0464 9.11539 16.9838 9.02879 16.9406C8.94219 16.8975 8.84676 16.875 8.75 16.875H6.50883L8.25445 15.1295C8.31249 15.0714 8.35853 15.0025 8.38994 14.9267C8.42135 14.8509 8.43752 14.7696 8.43752 14.6875C8.43752 14.6054 8.42135 14.5241 8.38994 14.4483C8.35853 14.3725 8.31249 14.3036 8.25445 14.2455C8.19641 14.1875 8.12751 14.1415 8.05168 14.1101C7.97585 14.0787 7.89458 14.0625 7.8125 14.0625C7.73042 14.0625 7.64915 14.0787 7.57332 14.1101C7.49749 14.1415 7.42859 14.1875 7.37055 14.2455L6.5625 15.0537L4.81695 13.308C4.69974 13.1908 4.54076 13.125 4.375 13.125C4.20924 13.125 4.05026 13.1908 3.93305 13.308C3.81583 13.4253 3.74998 13.5842 3.74998 13.75C3.74998 13.9158 3.81583 14.0747 3.93305 14.192L5.67867 15.9375L4.74117 16.875H3.125C3.02824 16.875 2.93281 16.8975 2.84621 16.9406C2.75961 16.9838 2.68421 17.0464 2.62595 17.1237C2.5677 17.2009 2.52817 17.2907 2.51049 17.3858C2.49281 17.4809 2.49745 17.5788 2.52406 17.6719L3.54641 21.25H2.5C2.33424 21.25 2.17527 21.3158 2.05806 21.4331C1.94085 21.5503 1.875 21.7092 1.875 21.875V24.375C1.875 24.5408 1.94085 24.6997 2.05806 24.8169C2.17527 24.9342 2.33424 25 2.5 25C2.66576 25 2.82473 24.9342 2.94194 24.8169C3.05915 24.6997 3.125 24.5408 3.125 24.375V22.5H6.875V33.75H1.875C1.70924 33.75 1.55027 33.8158 1.43306 33.9331C1.31585 34.0503 1.25 34.2092 1.25 34.375V36.875C1.25 37.0408 1.31585 37.1997 1.43306 37.3169C1.55027 37.4342 1.70924 37.5 1.875 37.5H38.125C38.2908 37.5 38.4497 37.4342 38.5669 37.3169C38.6842 37.1997 38.75 37.0408 38.75 36.875V34.375C38.75 34.2092 38.6842 34.0503 38.5669 33.9331C38.4497 33.8158 38.2908 33.75 38.125 33.75ZM31.875 22.5V33.75H28.125V22.5H31.875ZM20.625 21.25V14.375H28.125V21.25H20.625ZM26.875 22.5V33.75H23.125V22.5H26.875ZM11.875 21.25V14.375H19.375V21.25H11.875ZM16.875 22.5V33.75H13.125V22.5H16.875ZM11.875 13.125V6.25H19.375V13.125H11.875ZM18.125 22.5H21.875V33.75H18.125V22.5ZM20.625 13.125V6.25H28.125V13.125H20.625ZM10 5V3.75H30V5H10ZM8.125 22.5H11.875V33.75H8.125V22.5ZM4.84648 21.25L3.95359 18.125H7.92141L7.02852 21.25H4.84648ZM37.5 36.25H2.5V35H37.5V36.25Z" fill="black"/>
</svg>
