<svg width="18" height="16" viewBox="0 0 18 16" fill="none" xmlns="http://www.w3.org/2000/svg">
<path fill-rule="evenodd" clip-rule="evenodd" d="M16.46 9.33335C16.6512 9.33468 16.8335 9.41183 16.964 9.54668C17.0948 9.67886 17.1627 9.85761 17.1513 10.04C16.9436 13.3874 14.0679 15.9997 10.5902 16H7.11955C3.64186 15.9997 0.766189 13.3874 0.558435 10.04C0.549326 9.85806 0.616613 9.68023 0.745105 9.54668C0.874655 9.41018 1.05792 9.33272 1.24981 9.33335H3.75119C3.90362 9.33473 4.03901 9.23967 4.08443 9.09935C4.26498 8.54572 4.79618 8.1683 5.39803 8.16601H8.85834C9.4602 8.1683 9.99139 8.54572 10.1719 9.09935C10.217 9.23849 10.3506 9.33327 10.5017 9.33335H14.2123C14.4032 9.33335 14.558 9.18411 14.558 9.00001V2.00001C14.5588 1.73655 14.3986 1.49736 14.1492 1.38968C13.8999 1.282 13.6081 1.32602 13.4048 1.50201L13.1213 1.77535C13.0291 1.86493 12.9972 1.99706 13.0391 2.11668C13.2801 2.80327 13.0972 3.56229 12.5669 4.07601L12.4286 4.21268C12.1586 4.47294 11.721 4.47294 11.451 4.21268L9.62231 2.44868C9.35241 2.18835 9.35241 1.76635 9.62231 1.50601L9.76404 1.36935C10.3031 0.872756 11.0815 0.701707 11.7904 0.924014C11.9136 0.96174 12.0482 0.930112 12.1396 0.842014L12.4597 0.533348C13.0646 -0.00563735 13.9429 -0.148438 14.6976 0.169491C15.4524 0.487419 15.9405 1.20583 15.9414 2.00001V9.00001C15.9414 9.18411 16.0962 9.33335 16.2871 9.33335H16.46ZM8.50917 13.5C8.70008 13.5 8.85485 13.3508 8.85485 13.1667V9.83335C8.85485 9.64925 8.70008 9.50001 8.50917 9.50001H5.74368C5.55277 9.50001 5.398 9.64925 5.398 9.83335V13.1667C5.398 13.3508 5.55277 13.5 5.74368 13.5H8.50917Z" fill="black"/>
<path d="M6.78082 4.05856C6.88064 4.0594 6.97946 4.03939 7.0705 3.99989L8.32603 3.44123C8.55068 3.34179 8.70325 3.13434 8.72627 2.89702C8.74928 2.6597 8.63925 2.42856 8.43762 2.29068C8.23599 2.1528 7.97339 2.12912 7.74874 2.22856L6.49113 2.78656C6.1963 2.91774 6.03587 3.22908 6.10552 3.53489C6.17516 3.8407 6.45612 4.05857 6.78082 4.05856Z" fill="black"/>
<path d="M10.3221 7.67273C10.6732 7.81715 11.0792 7.65988 11.2291 7.3214L11.7726 6.09473C11.9127 5.75826 11.7483 5.37548 11.4024 5.23312C11.0566 5.09077 10.6562 5.24106 10.5011 5.5714L9.96117 6.80007C9.81236 7.13716 9.97353 7.52688 10.3221 7.67273Z" fill="black"/>
<path d="M7.80807 6.05074C8.07671 6.31229 8.51436 6.31438 8.78567 6.05541L9.7688 5.11807C10.0328 4.85799 10.0317 4.44183 9.76632 4.18304C9.50097 3.92426 9.06943 3.91849 8.79673 4.17007L7.8136 5.10807C7.54217 5.36693 7.5397 5.78894 7.80807 6.05074Z" fill="black"/>
</svg>
