<svg width="23" height="23" viewBox="0 0 23 23" fill="none" xmlns="http://www.w3.org/2000/svg">
<path d="M22.3422 3.14431C22.0039 2.80537 21.4549 2.80479 21.1165 3.14287L10.7174 13.5145L6.96547 9.43953C6.64127 9.08761 6.09313 9.06479 5.74063 9.38895C5.3884 9.71315 5.36585 10.2616 5.69005 10.6138L10.0531 15.3522C10.2129 15.5259 10.4365 15.6267 10.6723 15.6316C10.6787 15.6319 10.6848 15.6319 10.6908 15.6319C10.92 15.6319 11.1404 15.5409 11.3028 15.3791L22.3405 4.37027C22.6797 4.03224 22.6803 3.48325 22.3422 3.14431Z" fill="black"/>
<path d="M22.1331 10.6331C21.6544 10.6331 21.2663 11.0212 21.2663 11.5C21.2663 16.8854 16.8854 21.2663 11.5 21.2663C6.11495 21.2663 1.73367 16.8854 1.73367 11.5C1.73367 6.11495 6.11495 1.73367 11.5 1.73367C11.9788 1.73367 12.3669 1.34563 12.3669 0.866857C12.3669 0.388035 11.9788 0 11.5 0C5.15883 0 0 5.15883 0 11.5C0 17.8409 5.15883 23 11.5 23C17.8409 23 23 17.8409 23 11.5C23 11.0212 22.612 10.6331 22.1331 10.6331Z" fill="black"/>
</svg>
