<svg width="33" height="30" viewBox="0 0 33 30" fill="none" xmlns="http://www.w3.org/2000/svg">
<path d="M31.7378 13.2212L31.0186 12.4596L28.4942 5.65513C28.0641 4.50577 26.9641 3.74423 25.7372 3.73718H7.70705C6.48013 3.73718 5.38013 4.50577 4.95 5.65513L2.4609 12.375L1.42436 13.334C0.521795 14.1026 0 15.2308 0 16.4154V26.3295C0.00705128 27.9513 1.32564 29.2628 2.94744 29.2628H4.80897C6.43077 29.2628 7.74936 27.9513 7.75641 26.3295V24.891H25.2436V26.3295C25.2506 27.9513 26.5692 29.2628 28.191 29.2628H30.0526C31.6744 29.2628 32.993 27.9513 33 26.3295V16.1545C32.993 15.0474 32.5417 13.9897 31.7378 13.2212ZM6.27564 6.13462C6.50128 5.53526 7.07244 5.14744 7.70705 5.14744H25.7442C26.3788 5.14744 26.95 5.54231 27.1756 6.13462L29.3756 12.0577H27.7327C27.3449 9.41346 24.884 7.58718 22.2397 7.98205C20.1314 8.29231 18.4744 9.94936 18.1641 12.0577H4.07564L6.27564 6.13462ZM26.2942 12.0577H19.5885C19.9763 10.2032 21.7955 9.01859 23.65 9.40641C24.9756 9.68846 26.0122 10.725 26.2942 12.0577ZM6.34615 26.3295C6.3391 27.1756 5.65513 27.8526 4.80897 27.8526H2.94744C2.10128 27.8526 1.41731 27.1756 1.41026 26.3295V24.4821C1.83333 24.7571 2.39038 24.891 2.94744 24.891H6.34615V26.3295ZM31.5897 26.3295C31.5827 27.1756 30.8987 27.8526 30.0526 27.8526H28.191C27.3449 27.8526 26.6609 27.1686 26.6538 26.3295V24.891H30.0526C30.6096 24.891 31.1667 24.7571 31.5897 24.4821V26.3295ZM30.0526 23.4808H2.94744C2.10833 23.4878 1.41731 22.818 1.41026 21.9718V16.4154C1.41026 15.6397 1.75577 14.8994 2.34808 14.3987C2.35513 14.3917 2.36923 14.3776 2.37628 14.3705L3.33526 13.468H30.0385L30.7154 14.1942C30.7224 14.2083 30.7436 14.2154 30.7506 14.2295C31.2795 14.7301 31.5827 15.4282 31.5827 16.1545V21.9718H31.5897C31.5827 22.8109 30.8917 23.4878 30.0526 23.4808Z" fill="black"/>
<path d="M9.30804 16.2885H4.01958C3.63176 16.2885 3.31445 16.6058 3.31445 16.9936V20.6602C3.31445 21.0481 3.63176 21.3654 4.01958 21.3654H9.30804C9.69586 21.3654 10.0132 21.0481 10.0132 20.6602V16.9936C10.0132 16.6058 9.69586 16.2885 9.30804 16.2885ZM8.60291 19.9551H4.72471V17.6987H8.60291V19.9551Z" fill="black"/>
<path d="M28.9809 16.2885H23.6924C23.3046 16.2885 22.9873 16.6058 22.9873 16.9936V20.6602C22.9873 21.0481 23.3046 21.3654 23.6924 21.3654H28.9809C29.3687 21.3654 29.686 21.0481 29.686 20.6602V16.9936C29.686 16.6058 29.3687 16.2885 28.9809 16.2885ZM28.2758 19.9551H24.3976V17.6987H28.2758V19.9551Z" fill="black"/>
<path d="M19.9053 19.25H13.0938C12.706 19.25 12.3887 19.5673 12.3887 19.9551C12.3887 20.3429 12.706 20.6603 13.0938 20.6603H19.9053C20.2931 20.6603 20.6105 20.3429 20.6105 19.9551C20.6105 19.5673 20.2931 19.25 19.9053 19.25Z" fill="black"/>
<path d="M19.9053 17.0641H13.0938C12.706 17.0641 12.3887 17.3814 12.3887 17.7692C12.3887 18.157 12.706 18.4743 13.0938 18.4743H19.9053C20.2931 18.4743 20.6105 18.157 20.6105 17.7692C20.6105 17.3814 20.2931 17.0641 19.9053 17.0641Z" fill="black"/>
</svg>
