<svg width="35" height="35" viewBox="0 0 35 35" fill="none" xmlns="http://www.w3.org/2000/svg">
<path d="M34.3164 30.3516H32.9492V3.82812C32.9492 3.45058 32.6431 3.14453 32.2656 3.14453H27.2298V0.683594C27.2298 0.306045 26.9237 0 26.5462 0H8.4538C8.07632 0 7.77021 0.306045 7.77021 0.683594V3.14453H2.73438C2.35689 3.14453 2.05078 3.45058 2.05078 3.82812V30.3516H0.683594C0.306045 30.3516 0 30.6576 0 31.0352V34.3164C0 34.694 0.306045 35 0.683594 35H14.4241C14.8016 35 15.1077 34.694 15.1077 34.3164C15.1077 33.9389 14.8016 33.6328 14.4241 33.6328H1.36719V31.7188H33.6328V33.6328H20.576C20.1986 33.6328 19.8924 33.9389 19.8924 34.3164C19.8924 34.694 20.1986 35 20.576 35H34.3164C34.6939 35 35 34.694 35 34.3164V31.0352C35 30.6576 34.6939 30.3516 34.3164 30.3516ZM9.13739 1.36719H25.8626V3.14453H9.13739V1.36719ZM16.8164 30.3516H13.2617V26.25C13.2617 24.1458 14.8034 22.3956 16.8164 22.0676V30.3516ZM18.1836 30.3516V22.0676C20.1966 22.3956 21.7383 24.1458 21.7383 26.25V30.3516H18.1836ZM23.1055 30.3516V26.25C23.1055 23.1591 20.5909 20.6445 17.5 20.6445C14.4091 20.6445 11.8945 23.1591 11.8945 26.25V30.3516H3.41797V4.51172H31.582V30.3516H23.1055Z" fill="black"/>
<path d="M9.29688 7.51953H6.01562C5.63814 7.51953 5.33203 7.82558 5.33203 8.20312V11.4844C5.33203 11.8619 5.63814 12.168 6.01562 12.168H9.29688C9.67442 12.168 9.98047 11.8619 9.98047 11.4844V8.20312C9.98047 7.82558 9.67442 7.51953 9.29688 7.51953ZM8.61328 10.8008H6.69922V8.88672H8.61328V10.8008Z" fill="black"/>
<path d="M15.8594 7.51953H12.5781C12.2006 7.51953 11.8945 7.82558 11.8945 8.20312V11.4844C11.8945 11.8619 12.2006 12.168 12.5781 12.168H15.8594C16.2369 12.168 16.543 11.8619 16.543 11.4844V8.20312C16.543 7.82558 16.2369 7.51953 15.8594 7.51953ZM15.1758 10.8008H13.2617V8.88672H15.1758V10.8008Z" fill="black"/>
<path d="M22.4219 7.51953H19.1406C18.7631 7.51953 18.457 7.82558 18.457 8.20312V11.4844C18.457 11.8619 18.7631 12.168 19.1406 12.168H22.4219C22.7994 12.168 23.1055 11.8619 23.1055 11.4844V8.20312C23.1055 7.82558 22.7994 7.51953 22.4219 7.51953ZM21.7383 10.8008H19.8242V8.88672H21.7383V10.8008Z" fill="black"/>
<path d="M28.9844 7.51953H25.7031C25.3256 7.51953 25.0195 7.82558 25.0195 8.20312V11.4844C25.0195 11.8619 25.3256 12.168 25.7031 12.168H28.9844C29.3619 12.168 29.668 11.8619 29.668 11.4844V8.20312C29.668 7.82558 29.3619 7.51953 28.9844 7.51953ZM28.3008 10.8008H26.3867V8.88672H28.3008V10.8008Z" fill="black"/>
<path d="M9.29688 14.082H6.01562C5.63814 14.082 5.33203 14.3881 5.33203 14.7656V18.0469C5.33203 18.4244 5.63814 18.7305 6.01562 18.7305H9.29688C9.67442 18.7305 9.98047 18.4244 9.98047 18.0469V14.7656C9.98047 14.3881 9.67442 14.082 9.29688 14.082ZM8.61328 17.3633H6.69922V15.4492H8.61328V17.3633Z" fill="black"/>
<path d="M15.8594 14.082H12.5781C12.2006 14.082 11.8945 14.3881 11.8945 14.7656V18.0469C11.8945 18.4244 12.2006 18.7305 12.5781 18.7305H15.8594C16.2369 18.7305 16.543 18.4244 16.543 18.0469V14.7656C16.543 14.3881 16.2369 14.082 15.8594 14.082ZM15.1758 17.3633H13.2617V15.4492H15.1758V17.3633Z" fill="black"/>
<path d="M22.4219 14.082H19.1406C18.7631 14.082 18.457 14.3881 18.457 14.7656V18.0469C18.457 18.4244 18.7631 18.7305 19.1406 18.7305H22.4219C22.7994 18.7305 23.1055 18.4244 23.1055 18.0469V14.7656C23.1055 14.3881 22.7994 14.082 22.4219 14.082ZM21.7383 17.3633H19.8242V15.4492H21.7383V17.3633Z" fill="black"/>
<path d="M28.9844 14.082H25.7031C25.3256 14.082 25.0195 14.3881 25.0195 14.7656V18.0469C25.0195 18.4244 25.3256 18.7305 25.7031 18.7305H28.9844C29.3619 18.7305 29.668 18.4244 29.668 18.0469V14.7656C29.668 14.3881 29.3619 14.082 28.9844 14.082ZM28.3008 17.3633H26.3867V15.4492H28.3008V17.3633Z" fill="black"/>
<path d="M9.29688 20.6445H6.01562C5.63814 20.6445 5.33203 20.9506 5.33203 21.3281V24.6094C5.33203 24.9869 5.63814 25.293 6.01562 25.293H9.29688C9.67442 25.293 9.98047 24.9869 9.98047 24.6094V21.3281C9.98047 20.9506 9.67442 20.6445 9.29688 20.6445ZM8.61328 23.9258H6.69922V22.0117H8.61328V23.9258Z" fill="black"/>
<path d="M28.9844 20.6445H25.7031C25.3256 20.6445 25.0195 20.9506 25.0195 21.3281V24.6094C25.0195 24.9869 25.3256 25.293 25.7031 25.293H28.9844C29.3619 25.293 29.668 24.9869 29.668 24.6094V21.3281C29.668 20.9506 29.3619 20.6445 28.9844 20.6445ZM28.3008 23.9258H26.3867V22.0117H28.3008V23.9258Z" fill="black"/>
<path d="M17.5 33.6328C17.3202 33.6328 17.1438 33.706 17.0167 33.8331C16.8896 33.9603 16.8164 34.1366 16.8164 34.3164C16.8164 34.4962 16.8895 34.6726 17.0167 34.7997C17.1438 34.9269 17.3202 35 17.5 35C17.6798 35 17.8562 34.9269 17.9832 34.7997C18.1104 34.6726 18.1836 34.4962 18.1836 34.3164C18.1836 34.1366 18.1104 33.9603 17.9832 33.8331C17.8562 33.706 17.6798 33.6328 17.5 33.6328Z" fill="black"/>
</svg>
