<svg width="79" height="90" viewBox="0 0 79 90" fill="none" xmlns="http://www.w3.org/2000/svg">
<path d="M67.2532 40.6645C67.2495 40.6645 67.2458 40.6641 67.2422 40.6641H51.3047V38.9062C51.3047 35.9985 48.939 33.6328 46.0312 33.6328H31.9688C29.061 33.6328 26.6953 35.9985 26.6953 38.9062V40.6641H10.7578C9.77911 40.6641 9 41.4661 9 42.4219V81.0938C9 84.0015 11.3657 86.3672 14.2734 86.3672H63.7266C66.6343 86.3672 69 84.0015 69 81.0938V42.459C69 42.4567 69 42.4544 69 42.4521C68.9327 41.2976 68.2227 40.6709 67.2532 40.6645ZM30.2109 38.9062C30.2109 37.9372 30.9997 37.1484 31.9688 37.1484H46.0312C47.0003 37.1484 47.7891 37.9372 47.7891 38.9062V40.6641H30.2109V38.9062ZM64.8032 44.1797L59.3444 60.5557C59.105 61.2749 58.4348 61.7578 57.6772 61.7578H47.7891V60C47.7891 59.0291 47.0022 58.2422 46.0312 58.2422H31.9688C30.9978 58.2422 30.2109 59.0291 30.2109 60V61.7578H20.3228C19.5652 61.7578 18.895 61.2749 18.6556 60.5557L13.1968 44.1797H64.8032ZM44.2734 61.7578V65.2734H33.7266V61.7578H44.2734ZM65.4844 81.0938C65.4844 82.0628 64.6956 82.8516 63.7266 82.8516H14.2734C13.3044 82.8516 12.5156 82.0628 12.5156 81.0938V53.2539L15.3203 61.6676C16.039 63.8246 18.0495 65.2734 20.3228 65.2734H30.2109V67.0312C30.2109 68.0022 30.9978 68.7891 31.9688 68.7891H46.0312C47.0022 68.7891 47.7891 68.0022 47.7891 67.0312V65.2734H57.6772C59.9505 65.2734 61.961 63.8246 62.6797 61.6676L65.4844 53.2539V81.0938Z" fill="#47BD9C"/>
</svg>
