<?xml version="1.0" encoding="UTF-8" standalone="no"?>
<!DOCTYPE svg PUBLIC "-//W3C//DTD SVG 1.1//EN" "http://www.w3.org/Graphics/SVG/1.1/DTD/svg11.dtd">
<svg width="100%" height="100%" viewBox="0 0 60 54" version="1.1" xmlns="http://www.w3.org/2000/svg" xmlns:xlink="http://www.w3.org/1999/xlink" xml:space="preserve" xmlns:serif="http://www.serif.com/" style="fill-rule:evenodd;clip-rule:evenodd;stroke-linejoin:round;stroke-miterlimit:2;">
    <g transform="matrix(1,0,0,1,0,-3)">
        <path d="M58.253,10.665C58.25,10.665 58.246,10.664 58.242,10.664L42.305,10.664L42.305,8.906C42.305,5.999 39.939,3.633 37.031,3.633L22.969,3.633C20.061,3.633 17.695,5.999 17.695,8.906L17.695,10.664L1.758,10.664C0.779,10.664 0,11.466 0,12.422L0,51.094C0,54.002 2.366,56.367 5.273,56.367L54.727,56.367C57.634,56.367 60,54.002 60,51.094L60,12.452C59.933,11.298 59.223,10.671 58.253,10.665ZM21.211,8.906C21.211,7.937 22,7.148 22.969,7.148L37.031,7.148C38,7.148 38.789,7.937 38.789,8.906L38.789,10.664L21.211,10.664L21.211,8.906ZM55.803,14.18L50.344,30.556C50.105,31.275 49.435,31.758 48.677,31.758L38.789,31.758L38.789,30C38.789,29.029 38.002,28.242 37.031,28.242L22.969,28.242C21.998,28.242 21.211,29.029 21.211,30L21.211,31.758L11.323,31.758C10.565,31.758 9.895,31.275 9.656,30.556L4.197,14.18L55.803,14.18ZM35.273,31.758L35.273,35.273L24.727,35.273L24.727,31.758L35.273,31.758ZM56.484,51.094C56.484,52.063 55.696,52.852 54.727,52.852L5.273,52.852C4.304,52.852 3.516,52.063 3.516,51.094L3.516,23.254L6.32,31.668C7.039,33.825 9.05,35.273 11.323,35.273L21.211,35.273L21.211,37.031C21.211,38.002 21.998,38.789 22.969,38.789L37.031,38.789C38.002,38.789 38.789,38.002 38.789,37.031L38.789,35.273L48.677,35.273C50.951,35.273 52.961,33.825 53.68,31.668L56.484,23.254L56.484,51.094Z" style="fill:rgb(71,189,156);fill-rule:nonzero;"/>
    </g>
</svg>
