<svg width="38" height="38" viewBox="0 0 38 38" fill="none" xmlns="http://www.w3.org/2000/svg">
<path d="M32.435 5.56498C28.8464 1.97632 24.0751 0 19 0C13.9249 0 9.15363 1.97632 5.56498 5.56498C1.97632 9.15355 0 13.9249 0 19C0 24.0751 1.97632 28.8464 5.56498 32.435C9.15363 36.0237 13.9249 38 19 38C24.0751 38 28.8464 36.0237 32.435 32.435C36.0237 28.8464 38 24.0751 38 19C38 13.9249 36.0237 9.15355 32.435 5.56498ZM19 36.7872C9.19204 36.7872 1.21277 28.808 1.21277 19C1.21277 9.19204 9.19204 1.21277 19 1.21277C28.808 1.21277 36.7872 9.19204 36.7872 19C36.7872 28.808 28.808 36.7872 19 36.7872Z" fill="black"/>
<path d="M18.9758 2.42554C15.021 2.42554 11.1888 3.84746 8.18505 6.42952C7.9311 6.64782 7.90215 7.03073 8.12053 7.28469C8.33891 7.53872 8.72174 7.56758 8.97569 7.34921C11.7595 4.95618 15.3109 3.6383 18.9758 3.6383C27.4464 3.6383 34.3375 10.5296 34.3375 19C34.3375 27.4704 27.4464 34.3617 18.9758 34.3617C10.5053 34.3617 3.61413 27.4704 3.61413 19C3.61413 15.3351 4.93201 11.7836 7.32504 8.99978C7.54333 8.74583 7.51447 8.363 7.26052 8.14462C7.00656 7.9264 6.62373 7.95526 6.40535 8.20914C3.82338 11.2129 2.40137 15.0452 2.40137 19C2.40137 28.1392 9.83659 35.5745 18.9758 35.5745C28.1151 35.5745 35.5503 28.1392 35.5503 19C35.5503 9.86076 28.115 2.42554 18.9758 2.42554Z" fill="black"/>
<path d="M27.7131 9.46343L16.0748 15.8184C16.0714 15.8203 16.0649 15.8237 16.0649 15.8237C16.063 15.8248 16.0613 15.8262 16.0593 15.8273C16.0393 15.8385 16.0198 15.8512 16.0009 15.8648C15.9958 15.8685 15.9906 15.8722 15.9857 15.8761C15.9655 15.8917 15.9458 15.9081 15.9272 15.9267C15.9077 15.9461 15.8912 15.9659 15.8756 15.9861C15.8718 15.991 15.8682 15.9961 15.8646 16.0012C15.8508 16.0202 15.8381 16.0398 15.8268 16.06C15.8258 16.0618 15.8244 16.0635 15.8233 16.0653L15.8199 16.0715C15.8193 16.0728 15.8186 16.074 15.8178 16.0753L9.46285 27.7136C9.3339 27.9498 9.37602 28.2427 9.56626 28.4329C9.68293 28.5496 9.83817 28.6106 9.99526 28.6106C10.0944 28.6106 10.1943 28.5863 10.2857 28.5364L21.9244 22.1813C21.9269 22.1799 21.934 22.1761 21.934 22.1761C21.9361 22.175 21.9379 22.1735 21.9399 22.1722C21.9598 22.1611 21.9791 22.1486 21.9979 22.135C22.003 22.1313 22.0082 22.1276 22.0132 22.1237C22.0336 22.1081 22.0535 22.0913 22.0721 22.0726C22.0909 22.054 22.1076 22.034 22.1233 22.0136C22.1271 22.0087 22.1307 22.0037 22.1343 21.9987C22.1481 21.9797 22.1607 21.9602 22.1719 21.9401C22.173 21.9382 22.1745 21.9364 22.1755 21.9345L22.1792 21.9278C22.1809 21.9247 28.5359 10.2862 28.5359 10.2862C28.6649 10.05 28.6228 9.75708 28.4325 9.56684C28.2422 9.3766 27.9494 9.33455 27.7131 9.46343ZM16.4996 17.3576L20.6418 21.4999L11.517 26.4823L16.4996 17.3576ZM21.4994 20.6423L17.3571 16.5L26.4818 11.5175L21.4994 20.6423Z" fill="black"/>
<path d="M18.9995 4.85107C18.6646 4.85107 18.3931 5.12257 18.3931 5.45746V7.29213C12.4104 7.59847 7.59799 12.4109 7.29164 18.3936H5.45697C5.12208 18.3936 4.85059 18.6651 4.85059 19C4.85059 19.3349 5.12208 19.6064 5.45697 19.6064H7.29326C7.38462 21.3583 7.86892 23.078 8.71009 24.614C8.82037 24.8153 9.02808 24.9292 9.2425 24.9292C9.34089 24.9292 9.44082 24.9052 9.53324 24.8546C9.82697 24.6937 9.93466 24.3252 9.77385 24.0315C8.93324 22.4967 8.48888 20.7568 8.48888 19C8.48888 13.2044 13.204 8.48937 18.9995 8.48937C20.7563 8.48937 22.4962 8.93373 24.031 9.77426C24.3249 9.93515 24.6932 9.82746 24.8541 9.53364C25.0149 9.23991 24.9072 8.87139 24.6135 8.7105C23.0776 7.86924 21.3579 7.38495 19.6058 7.29367V5.45746C19.6059 5.12257 19.3345 4.85107 18.9995 4.85107Z" fill="black"/>
<path d="M18.9996 33.1489C19.3345 33.1489 19.6059 32.8774 19.6059 32.5426V30.7079C25.5887 30.4015 30.4011 25.5891 30.7074 19.6064H32.5421C32.8771 19.6064 33.1485 19.3349 33.1485 19C33.1485 18.6651 32.8771 18.3936 32.5421 18.3936H30.7058C30.6145 16.6417 30.1302 14.922 29.289 13.386C29.1283 13.0924 28.7599 12.9846 28.4658 13.1454C28.1721 13.3063 28.0644 13.6748 28.2252 13.9685C29.0659 15.5034 29.5102 17.2433 29.5102 19C29.5102 24.7956 24.7952 29.5106 18.9996 29.5106C17.2427 29.5106 15.5029 29.0663 13.9681 28.2258C13.6745 28.0649 13.3059 28.1726 13.145 28.4664C12.9841 28.7601 13.0918 29.1286 13.3856 29.2895C14.9216 30.1307 16.6412 30.6151 18.3932 30.7063V32.5426C18.3932 32.8774 18.6647 33.1489 18.9996 33.1489Z" fill="black"/>
</svg>
