<svg width="75" height="51" viewBox="0 0 75 51" fill="none" xmlns="http://www.w3.org/2000/svg">
<path d="M75 13.5425C74.9983 12.4039 74.6634 11.2491 73.9229 10.2973L67.9803 2.69356C66.985 1.42969 65.4705 0.786182 63.957 0.783691C63.0563 0.783691 62.1391 1.01455 61.3288 1.51992L55.5344 5.1249C54.9251 5.51353 53.8803 5.78027 52.8712 5.77339C52.0872 5.77676 51.3296 5.61987 50.8293 5.37275L45.1551 2.62427C44.2399 2.18364 43.2196 2.00303 42.1937 2.00127C40.7202 2.00815 39.2279 2.37026 38.0288 3.20127L37.3667 3.66577C36.8375 3.40166 36.0287 2.99927 35.1126 2.54341C34.014 2.00479 32.7221 1.78755 31.4172 1.7833C30.2385 1.78667 29.06 1.96831 28.0252 2.40542L24.1604 4.05454C23.5314 4.3273 22.5309 4.50542 21.5372 4.50103C20.5434 4.50527 19.5447 4.32715 18.9157 4.05454L15.0473 2.40454C14.3417 2.10366 13.5875 1.97505 12.8399 1.97417C11.9792 1.97505 11.1236 2.14468 10.3283 2.4668C9.53409 2.79067 8.79683 3.2688 8.20972 3.9249L1.16675 11.8125C0.386138 12.6842 -0.00160633 13.782 5.00127e-06 14.8626C-0.00160633 16.1512 0.549761 17.4439 1.61324 18.35L8.18306 23.955L5.06646 27.2063C4.20733 28.1029 3.77959 29.2654 3.77959 30.4148C3.77798 31.6378 4.26373 32.8727 5.22583 33.7819L5.85806 34.3827C6.45381 34.9478 7.16968 35.3073 7.9188 35.499C7.54307 36.1901 7.3377 36.9479 7.33931 37.7071C7.3377 38.931 7.82344 40.165 8.78379 41.0752L8.78218 41.0744L9.41631 41.6777C10.3189 42.5334 11.4891 42.9595 12.6419 42.9587C13.2615 42.9596 13.8819 42.8351 14.4649 42.5914C14.6695 43.4215 15.0921 44.2106 15.7569 44.8412L16.391 45.4446C17.2937 46.3002 18.4619 46.7263 19.6166 46.7256C20.5192 46.7265 21.426 46.4605 22.2066 45.9441C22.435 46.6787 22.8262 47.375 23.4218 47.9408L24.056 48.5442C24.9567 49.3998 26.1268 49.8259 27.2799 49.8252C28.5079 49.8261 29.7481 49.3437 30.664 48.3875L33.4185 45.5111L37.1607 48.9746C38.0565 49.8054 39.2063 50.2188 40.3412 50.2163C41.5881 50.219 42.846 49.7194 43.7638 48.7368L44.3612 48.0968C44.8768 47.543 45.2134 46.8875 45.4087 46.2032L46.8583 47.5412C47.7557 48.3687 48.9038 48.7803 50.0372 48.7794C51.2856 48.7803 52.547 48.2808 53.4658 47.2975L54.0598 46.6582C54.7458 45.9254 55.1319 45.0176 55.2511 44.0905C55.6337 44.1885 56.0215 44.255 56.4126 44.255C57.6611 44.255 58.9189 43.7564 59.8386 42.7739L60.4343 42.1346C61.2669 41.2422 61.6812 40.0978 61.6794 38.9694C61.6794 38.6191 61.6292 38.2707 61.5516 37.9263C62.5871 37.789 63.5911 37.3272 64.3545 36.5073L64.9519 35.8673C65.7845 34.9749 66.197 33.8304 66.197 32.7012C66.1986 31.4587 65.6977 30.2049 64.709 29.2915L63.5918 28.2595L73.6755 17.1105C74.5808 16.1068 74.9984 14.8148 75 13.5425ZM9.08409 33.1267C8.54986 33.1251 8.02735 32.9341 7.6191 32.5472L6.98584 31.9465C6.54771 31.5322 6.33135 30.981 6.32959 30.415C6.33135 29.8841 6.52134 29.3659 6.9126 28.9576L13.2958 22.2965C13.7117 21.8626 14.2666 21.6454 14.8358 21.6447C15.3684 21.6456 15.8892 21.8373 16.3008 22.2251L16.9314 22.8267C16.9314 22.8267 17.5843 23.7921 17.5859 24.3589C17.5843 24.7833 17.4564 25.1966 17.2084 25.5546C17.1872 25.5759 10.3189 32.7338 10.3189 32.7338C9.9542 32.9919 9.52295 33.1248 9.08409 33.1267ZM14.182 39.7708C13.767 40.2029 13.213 40.4193 12.6438 40.4211C12.1096 40.4202 11.5887 40.2284 11.1788 39.8416L10.5447 39.2389L10.5431 39.238C10.1085 38.8255 9.89019 38.2726 9.89019 37.7065C9.89019 37.1757 10.0819 36.6574 10.4713 36.2492C10.4713 36.2492 18.98 27.392 19.0516 27.3066C19.4583 26.9155 19.9822 26.7135 20.5233 26.7126C21.0576 26.7135 21.5785 26.9044 21.9883 27.2921L22.6225 27.8955C23.0587 28.308 23.2753 28.8602 23.277 29.427C23.2752 29.9578 23.0836 30.4768 22.6939 30.8851L14.182 39.7708ZM21.1557 43.5366C20.7416 43.9698 20.1877 44.1864 19.6184 44.188C19.0841 44.1872 18.5632 43.9954 18.1534 43.6077L17.5175 43.005C17.0813 42.5917 16.863 42.0396 16.863 41.4735C16.863 40.9998 17.0241 40.5403 17.3325 40.1577L23.2581 33.973C23.6578 33.6125 24.1588 33.4225 24.6779 33.4225C25.2122 33.4233 25.7331 33.6142 26.1429 34.002L26.7788 34.6053C27.2134 35.0178 27.4317 35.5701 27.4333 36.1359C27.4315 36.6678 27.2382 37.1868 26.8503 37.5941L21.1557 43.5366ZM32.4148 42.8839L28.8192 46.6365C28.4049 47.0694 27.8502 47.286 27.281 47.2877C26.7467 47.2868 26.2258 47.095 25.816 46.7073L25.1818 46.1046C24.7472 45.6921 24.529 45.1392 24.5273 44.5732C24.529 44.0413 24.7207 43.5223 25.1104 43.1158L28.7043 39.3633C29.1202 38.9304 29.6751 38.713 30.2443 38.7122C30.777 38.713 31.2995 38.9039 31.7093 39.2925L32.3452 39.8952C32.7798 40.3077 32.9963 40.8599 32.9981 41.4258C32.996 41.9575 32.8043 42.4765 32.4148 42.8839ZM63.6508 32.7045C63.6501 33.2257 63.4633 33.7362 63.085 34.1418L62.4892 34.7811C62.0733 35.226 61.5091 35.451 60.9314 35.4519C60.4072 35.451 59.8941 35.2669 59.4869 34.8904L49.4476 25.6061L47.7116 27.4648L58.4574 37.4197C58.9049 37.834 59.1297 38.3965 59.1331 38.9709C59.1297 39.4941 58.9447 40.0037 58.5672 40.4095L57.9732 41.0487C57.5574 41.4936 56.9931 41.7177 56.4154 41.7195C55.8913 41.7179 55.3765 41.5329 54.9725 41.1587L44.9306 31.8746L43.1963 33.7333L52.1082 41.9745C52.5377 42.3861 52.7577 42.9341 52.7577 43.4965C52.7577 44.0181 52.5727 44.5285 52.1952 44.9334L51.5994 45.5726C51.1852 46.0175 50.6193 46.2425 50.0399 46.2441C49.5141 46.2425 49.0011 46.0575 48.5955 45.6834L39.7015 37.472H39.6999L39.6983 37.4704L37.9674 39.3325L37.9692 39.3341L38.0024 39.3656L42.457 43.4769C42.8517 43.8825 43.0562 44.4024 43.0578 44.9401C43.0562 45.4591 42.8728 45.9669 42.4953 46.372L41.8995 47.012C41.4836 47.4568 40.9211 47.6801 40.345 47.6818C39.8209 47.6802 39.3078 47.4961 38.9022 47.1204L35.0237 43.529C35.3612 42.8669 35.5496 42.1484 35.5496 41.4274C35.5512 40.2044 35.0654 38.9713 34.1051 38.0603L33.4692 37.4569C32.5685 36.6021 31.4 36.1752 30.247 36.1768C30.1575 36.1768 30.0672 36.1973 29.9795 36.2024C29.9795 36.1812 29.9845 36.1589 29.9845 36.1377C29.9861 34.9147 28.54 32.7689 28.54 32.7689L27.9059 32.1672C27.2317 31.528 26.4092 31.1293 25.5538 30.969C25.7301 30.4696 25.8299 29.9498 25.8299 29.429C25.8299 28.206 25.3458 26.9719 24.3854 26.0619L23.7513 25.4585C22.8486 24.6029 21.6804 24.1759 20.5273 24.1768C20.3927 24.1768 20.2598 24.2041 20.1259 24.2161C20.0893 23.0417 19.6163 21.8682 18.696 20.9939V20.993L18.0636 20.3922C17.1609 19.5357 15.9927 19.1087 14.8396 19.1096C13.6097 19.1087 12.3715 19.5911 11.4555 20.5474L9.94878 22.1197L3.27408 16.4268C2.79434 16.016 2.55484 15.4484 2.55308 14.8655C2.55469 14.3771 2.72095 13.899 3.07544 13.5021L10.1183 5.6146C10.3978 5.30098 10.8111 5.01724 11.2953 4.82022C11.7794 4.62334 12.329 4.51524 12.8429 4.51597C13.2904 4.51597 13.7104 4.59697 14.0462 4.74185L17.9128 6.3917C19.0028 6.85108 20.2683 7.03945 21.5401 7.04356C22.8133 7.03931 24.0772 6.85093 25.1673 6.3917L29.0322 4.74258C29.6279 4.48272 30.5269 4.32158 31.4209 4.32495C32.4095 4.31895 33.3998 4.52359 33.9741 4.8167C34.3389 4.99819 34.6849 5.17046 35.0061 5.33145L31.0645 8.1022C29.798 8.99282 29.1154 10.4092 29.1171 11.8384C29.1155 12.7844 29.4154 13.7474 30.0256 14.5647L30.024 14.5629L30.5446 15.2625C31.5333 16.5768 33.0749 17.2525 34.6157 17.2559C35.4858 17.2559 36.3722 17.036 37.1622 16.5621L39.5194 15.1465C40.0002 14.8525 40.7262 14.6667 41.4769 14.6701C42.359 14.665 43.2479 14.9259 43.7823 15.3186L50.3036 19.9939C51.755 21.0337 54.1189 22.9623 55.429 24.1759L62.9772 31.1549C63.4241 31.5693 63.6491 32.1293 63.6508 32.7045ZM71.7829 15.414L61.7273 26.533L57.1619 22.3128C55.7319 20.9927 53.3738 19.0676 51.792 17.9314L45.2725 13.2561C44.1671 12.473 42.8137 12.1345 41.4757 12.1295C40.3371 12.1329 39.19 12.381 38.1998 12.9706L35.8443 14.3862C35.4829 14.6035 35.0569 14.7144 34.6144 14.7152C33.8234 14.7179 33.0318 14.3487 32.5904 13.7479L32.0714 13.0491L32.0697 13.0474C31.7936 12.675 31.6649 12.2574 31.663 11.8346C31.6664 11.1954 31.9613 10.575 32.5324 10.1719L39.502 5.2749C40.1046 4.83867 41.1768 4.53267 42.1951 4.54028C42.9025 4.53692 43.5782 4.67915 44.041 4.90767L49.715 7.65615C50.6824 8.12066 51.7742 8.31065 52.8725 8.31328C54.2837 8.3064 55.7104 7.99966 56.8857 7.27778L62.6818 3.67207C63.0517 3.44121 63.4957 3.32183 63.9586 3.32183C64.741 3.32022 65.525 3.67471 65.9689 4.25332L71.9115 11.857C72.2542 12.2925 72.4526 12.9069 72.4526 13.5437C72.4537 14.2557 72.2021 14.9563 71.7829 15.414Z" fill="#47BD9C"/>
</svg>
