<svg width="39" height="39" viewBox="0 0 39 39" fill="none" xmlns="http://www.w3.org/2000/svg">
<g clip-path="url(#clip0)">
<path d="M36.962 38.5785C36.7977 38.5785 36.6334 38.5158 36.5081 38.3906C36.2573 38.1397 36.2573 37.7336 36.5081 37.483L36.7923 37.1988H7.47928L7.76348 37.4828C8.01431 37.7336 8.01431 38.1397 7.76348 38.3903C7.51291 38.6411 7.10625 38.6411 6.85594 38.3903L5.49192 37.0263C5.36459 36.899 5.30194 36.7316 5.304 36.5644C5.304 36.5619 5.304 36.559 5.304 36.5565C5.304 36.3357 5.41542 36.1411 5.58512 36.0256L6.88803 34.7229C7.1386 34.4721 7.54526 34.4721 7.79557 34.7229C8.0464 34.9737 8.0464 35.3799 7.79557 35.6304L7.51137 35.9146H36.8247L36.5405 35.6304C36.2896 35.3796 36.2896 34.9735 36.5405 34.7229C36.791 34.4721 37.1977 34.4721 37.448 34.7229L38.812 36.0869C38.9396 36.2143 39.002 36.3816 38.9999 36.5488C38.9999 36.5516 38.9999 36.5542 38.9999 36.5567C38.9999 36.7775 38.8885 36.9721 38.7188 37.0877L37.4159 38.3903C37.2906 38.5158 37.1263 38.5785 36.962 38.5785ZM2.02169 34.1178C1.8009 34.1178 1.60604 34.0061 1.49077 33.8364L0.18812 32.5338C-0.0627065 32.2829 -0.0627065 31.8768 0.18812 31.6262C0.438689 31.3754 0.845351 31.3754 1.09566 31.6262L1.37986 31.9104V2.59687L1.09566 2.88108C0.845094 3.1319 0.438432 3.1319 0.18812 2.88108C-0.0627065 2.63025 -0.0627065 2.2241 0.18812 1.97353L1.55213 0.60952C1.67947 0.482182 1.84583 0.417229 2.01373 0.421593C2.2412 0.426984 2.43606 0.53096 2.55287 0.70297L3.85552 2.00562C4.10635 2.25645 4.10635 2.6626 3.85552 2.91317C3.60495 3.16399 3.19829 3.16399 2.94798 2.91317L2.66378 2.62897V31.9425L2.94798 31.6583C3.19855 31.4075 3.60521 31.4075 3.85552 31.6583C4.10635 31.9091 4.10635 32.3153 3.85552 32.5658L2.49151 33.9299C2.36417 34.0572 2.19524 34.1214 2.02991 34.1178C2.02708 34.1178 2.02452 34.1178 2.02169 34.1178ZM38.3581 32.3019H7.34167C6.98713 32.3019 6.69984 32.0146 6.69984 31.6601V1.06368C6.69984 0.709132 6.98713 0.42185 7.34167 0.42185H25.8761C26.2307 0.42185 26.5179 0.709132 26.5179 1.06368V13.521H38.3579C38.7124 13.521 38.9997 13.8083 38.9997 14.1629V31.6598C38.9999 32.0144 38.7127 32.3019 38.3581 32.3019ZM26.4905 31.0183H37.7163V14.8047H26.4905V31.0183ZM14.1951 31.0183H25.2071V22.4209H14.1951V31.0183ZM7.9835 31.0183H12.9112V22.4209H7.9835V31.0183ZM13.5533 21.1372H25.2071V14.1629C25.2071 14.0979 25.2168 14.0353 25.2345 13.976V7.27374H7.9835V21.1372H13.5533ZM17.2371 5.99009H25.2345V1.7055H17.2371V5.99009ZM7.9835 5.99009H15.9532V1.7055H7.9835V5.99009Z" fill="#000002"/>
</g>
<defs>
<clipPath id="clip0">
<rect width="39" height="39" fill="white"/>
</clipPath>
</defs>
</svg>
