<svg width="38" height="38" viewBox="0 0 38 38" fill="none" xmlns="http://www.w3.org/2000/svg">
<g clip-path="url(#clip0)">
<path d="M31.6664 17.4167C31.2294 17.4167 30.8747 17.7714 30.8747 18.2084V34.8334H18.9997C18.5627 34.8334 18.208 35.1881 18.208 35.6251C18.208 36.0621 18.5627 36.4168 18.9997 36.4168H31.6664C32.1034 36.4168 32.4581 36.0621 32.4581 35.6251V18.2083C32.458 17.7713 32.1034 17.4167 31.6664 17.4167Z" fill="black"/>
<path d="M6.33271 31.6667C6.76971 31.6667 7.1244 31.312 7.1244 30.875V27.7083C7.1244 27.2713 6.76971 26.9166 6.33271 26.9166C5.89571 26.9166 5.54102 27.2713 5.54102 27.7083V30.875C5.54109 31.312 5.89571 31.6667 6.33271 31.6667Z" fill="black"/>
<path d="M7.91609 34.8333H7.1244V34.0416C7.1244 33.6046 6.76971 33.2499 6.33271 33.2499C5.89571 33.2499 5.54102 33.6046 5.54102 34.0416V35.625C5.54102 36.062 5.89571 36.4167 6.33271 36.4167H7.91602C8.35302 36.4167 8.70771 36.062 8.70771 35.625C8.70771 35.188 8.35309 34.8333 7.91609 34.8333Z" fill="black"/>
<path d="M6.33361 25.3333C6.77061 25.3333 7.1253 24.9786 7.1253 24.5416V21.375C7.1253 20.938 6.77061 20.5833 6.33361 20.5833C5.89661 20.5833 5.54199 20.938 5.54199 21.375V24.5417C5.54199 24.9787 5.89661 25.3333 6.33361 25.3333Z" fill="black"/>
<path d="M14.2494 34.8333H11.0827C10.6457 34.8333 10.291 35.188 10.291 35.625C10.291 36.062 10.6457 36.4167 11.0827 36.4167H14.2494C14.6864 36.4167 15.0411 36.062 15.0411 35.625C15.0411 35.188 14.6864 34.8333 14.2494 34.8333Z" fill="black"/>
<path d="M18.999 34.8333H17.4157C16.9787 34.8333 16.624 35.188 16.624 35.625C16.624 36.062 16.9787 36.4167 17.4157 36.4167H18.999C19.436 36.4167 19.7907 36.062 19.7907 35.625C19.7907 35.188 19.436 34.8333 18.999 34.8333Z" fill="black"/>
<path d="M35.3935 17.6494L19.5602 1.81604C19.2514 1.50729 18.7495 1.50729 18.4408 1.81604C18.132 2.12479 18.132 2.62673 18.4408 2.93548L32.9219 17.4167H18.9997C18.5627 17.4167 18.208 17.7714 18.208 18.2084C18.208 18.6454 18.5627 19 18.9997 19H34.833C35.1528 19 35.441 18.8084 35.5645 18.5123C35.688 18.2162 35.6199 17.8758 35.3935 17.6494Z" fill="black"/>
<path d="M19.5583 1.81604C19.2496 1.50729 18.7476 1.50729 18.4389 1.81604L17.3195 2.93548C17.0107 3.24423 17.0107 3.74617 17.3195 4.05492C17.4746 4.20848 17.6773 4.28611 17.88 4.28611C18.0826 4.28611 18.2853 4.20855 18.4389 4.05492L19.5583 2.93548C19.8671 2.62673 19.8671 2.12479 19.5583 1.81604Z" fill="black"/>
<path d="M7.61084 12.6445L5.66809 14.5873C5.35934 14.896 5.35934 15.398 5.66809 15.7067C5.82328 15.8603 6.02589 15.9379 6.22859 15.9379C6.43128 15.9379 6.63234 15.8619 6.78753 15.7067L8.73028 13.764C9.03903 13.4552 9.03903 12.9533 8.73028 12.6445C8.42153 12.3358 7.91959 12.3358 7.61084 12.6445Z" fill="black"/>
<path d="M16.4979 4.8767C16.1891 4.56795 15.6872 4.56795 15.3784 4.8767L13.4357 6.81945C13.1269 7.1282 13.1269 7.63014 13.4357 7.93889C13.5909 8.09245 13.7935 8.17008 13.9962 8.17008C14.1989 8.17008 14.4015 8.09252 14.5551 7.93889L16.4979 5.99614C16.8066 5.68732 16.8066 5.18545 16.4979 4.8767Z" fill="black"/>
<path d="M11.4946 8.76055L9.55187 10.7033C9.24313 11.0121 9.24313 11.514 9.55187 11.8227C9.70707 11.9763 9.90968 12.0539 10.1124 12.0539C10.3151 12.0539 10.5177 11.9764 10.6713 11.8227L12.6141 9.88C12.9228 9.57125 12.9228 9.0693 12.6141 8.76055C12.3053 8.4518 11.8034 8.4518 11.4946 8.76055Z" fill="black"/>
<path d="M4.98876 17.4531C5.14232 17.1554 5.09482 16.7786 4.84471 16.5284C4.53596 16.2196 4.03401 16.2196 3.72526 16.5284L2.60582 17.6478C2.38102 17.8743 2.31288 18.2146 2.43483 18.5108C2.55677 18.8068 2.84652 19 3.1664 19H4.74971C5.1867 19 5.5414 18.6453 5.5414 18.2083C5.5414 17.8537 5.3102 17.5545 4.98876 17.4531Z" fill="black"/>
<path d="M9.81628 17.4167H7.2829C6.84434 17.4167 6.49121 17.7714 6.49121 18.2084C6.49121 18.6454 6.8459 19 7.2829 19H9.81465C10.2532 19 10.6079 18.6453 10.6079 18.2083C10.6079 17.7713 10.2533 17.4167 9.81628 17.4167Z" fill="black"/>
<path d="M14.8836 17.4167H12.3503C11.9117 17.4167 11.5586 17.7714 11.5586 18.2084C11.5586 18.6454 11.9133 19 12.3503 19H14.882C15.3206 19 15.6753 18.6453 15.6753 18.2083C15.6753 17.7713 15.3206 17.4167 14.8836 17.4167Z" fill="black"/>
<path d="M18.999 17.4167H17.4157C16.9787 17.4167 16.624 17.7714 16.624 18.2084C16.624 18.6454 16.9787 19 17.4157 19H18.999C19.436 19 19.7907 18.6453 19.7907 18.2083C19.7907 17.7713 19.436 17.4167 18.999 17.4167Z" fill="black"/>
<path d="M18.9997 0C18.5627 0 18.208 0.354691 18.208 0.791691V37.2084C18.208 37.6454 18.5627 38.0001 18.9997 38.0001C19.4367 38.0001 19.7914 37.6454 19.7914 37.2084V0.791691C19.7914 0.354691 19.4367 0 18.9997 0Z" fill="black"/>
</g>
<defs>
<clipPath id="clip0">
<rect width="38" height="38" fill="white"/>
</clipPath>
</defs>
</svg>
