<?xml version="1.0" encoding="UTF-8" standalone="no"?>
<!DOCTYPE svg PUBLIC "-//W3C//DTD SVG 1.1//EN" "http://www.w3.org/Graphics/SVG/1.1/DTD/svg11.dtd">
<svg width="100%" height="100%" viewBox="0 0 23 23" version="1.1" xmlns="http://www.w3.org/2000/svg" xmlns:xlink="http://www.w3.org/1999/xlink" xml:space="preserve" xmlns:serif="http://www.serif.com/" style="fill-rule:evenodd;clip-rule:evenodd;stroke-linejoin:round;stroke-miterlimit:2;">
    <path d="M22.133,10.633C21.654,10.633 21.266,11.021 21.266,11.5C21.266,16.885 16.885,21.266 11.5,21.266C6.115,21.266 1.734,16.885 1.734,11.5C1.734,6.115 6.115,1.734 11.5,1.734C11.979,1.734 12.367,1.346 12.367,0.867C12.367,0.388 11.979,0 11.5,0C5.159,0 0,5.159 0,11.5C0,17.841 5.159,23 11.5,23C17.841,23 23,17.841 23,11.5C23,11.021 22.612,10.633 22.133,10.633Z" style="fill-rule:nonzero;"/>
</svg>
