<svg width="178" height="59" viewBox="0 0 178 59" fill="none" xmlns="http://www.w3.org/2000/svg">
<path d="M8.15552 13.648C5.99552 13.648 4.21952 13.024 2.82752 11.776C1.48352 10.48 0.811523 8.89601 0.811523 7.02401C0.811523 5.10401 1.48352 3.52 2.82752 2.272C4.21952 0.976003 5.99552 0.328003 8.15552 0.328003C10.2675 0.328003 11.9955 0.976003 13.3395 2.272C14.7315 3.52 15.4275 5.10401 15.4275 7.02401C15.4275 8.89601 14.7315 10.48 13.3395 11.776C11.9955 13.024 10.2675 13.648 8.15552 13.648ZM14.2755 17.824V58H1.96352V17.824H14.2755Z" fill="#65DBBA"/>
<path d="M20.7499 37.84C20.7499 33.712 21.5179 30.088 23.0539 26.968C24.6379 23.848 26.7739 21.448 29.4619 19.768C32.1499 18.088 35.1499 17.248 38.4619 17.248C41.1019 17.248 43.5019 17.8 45.6619 18.904C47.8699 20.008 49.5979 21.496 50.8459 23.368V4.72001H63.1579V58H50.8459V52.24C49.6939 54.16 48.0379 55.696 45.8779 56.848C43.7659 58 41.2939 58.576 38.4619 58.576C35.1499 58.576 32.1499 57.736 29.4619 56.056C26.7739 54.328 24.6379 51.904 23.0539 48.784C21.5179 45.616 20.7499 41.968 20.7499 37.84ZM50.8459 37.912C50.8459 34.84 49.9819 32.416 48.2539 30.64C46.5739 28.864 44.5099 27.976 42.0619 27.976C39.6139 27.976 37.5259 28.864 35.7979 30.64C34.1179 32.368 33.2779 34.768 33.2779 37.84C33.2779 40.912 34.1179 43.36 35.7979 45.184C37.5259 46.96 39.6139 47.848 42.0619 47.848C44.5099 47.848 46.5739 46.96 48.2539 45.184C49.9819 43.408 50.8459 40.984 50.8459 37.912Z" fill="#65DBBA"/>
<path d="M109.937 37.264C109.937 38.416 109.865 39.616 109.721 40.864H81.8571C82.0491 43.36 82.8411 45.28 84.2331 46.624C85.6731 47.92 87.4251 48.568 89.4891 48.568C92.5611 48.568 94.6971 47.272 95.8971 44.68H109.001C108.329 47.32 107.105 49.696 105.329 51.808C103.601 53.92 101.417 55.576 98.7771 56.776C96.1371 57.976 93.1851 58.576 89.9211 58.576C85.9851 58.576 82.4811 57.736 79.4091 56.056C76.3371 54.376 73.9371 51.976 72.2091 48.856C70.4811 45.736 69.6171 42.088 69.6171 37.912C69.6171 33.736 70.4571 30.088 72.1371 26.968C73.8651 23.848 76.2651 21.448 79.3371 19.768C82.4091 18.088 85.9371 17.248 89.9211 17.248C93.8091 17.248 97.2651 18.064 100.289 19.696C103.313 21.328 105.665 23.656 107.345 26.68C109.073 29.704 109.937 33.232 109.937 37.264ZM97.3371 34.024C97.3371 31.912 96.6171 30.232 95.1771 28.984C93.7371 27.736 91.9371 27.112 89.7771 27.112C87.7131 27.112 85.9611 27.712 84.5211 28.912C83.1291 30.112 82.2651 31.816 81.9291 34.024H97.3371Z" fill="#65DBBA"/>
<path d="M113.984 37.84C113.984 33.712 114.752 30.088 116.288 26.968C117.872 23.848 120.008 21.448 122.696 19.768C125.384 18.088 128.384 17.248 131.696 17.248C134.528 17.248 137 17.824 139.112 18.976C141.272 20.128 142.928 21.64 144.08 23.512V17.824H156.392V58H144.08V52.312C142.88 54.184 141.2 55.696 139.04 56.848C136.928 58 134.456 58.576 131.624 58.576C128.36 58.576 125.384 57.736 122.696 56.056C120.008 54.328 117.872 51.904 116.288 48.784C114.752 45.616 113.984 41.968 113.984 37.84ZM144.08 37.912C144.08 34.84 143.216 32.416 141.488 30.64C139.808 28.864 137.744 27.976 135.296 27.976C132.848 27.976 130.76 28.864 129.032 30.64C127.352 32.368 126.512 34.768 126.512 37.84C126.512 40.912 127.352 43.36 129.032 45.184C130.76 46.96 132.848 47.848 135.296 47.848C137.744 47.848 139.808 46.96 141.488 45.184C143.216 43.408 144.08 40.984 144.08 37.912Z" fill="#65DBBA"/>
<path d="M177.611 4.72001V58H165.299V4.72001H177.611Z" fill="#65DBBA"/>
</svg>
