<svg width="57" height="58" viewBox="0 0 57 58" fill="none" xmlns="http://www.w3.org/2000/svg">
<circle cx="28.5" cy="28.5" r="28.5" fill="#52E5D4" fill-opacity="0.15"/>
<path d="M39 58H57L56.5558 54.8901C56.3843 53.6899 55.9244 52.5491 55.2154 51.5655C54.5065 50.5819 53.5697 49.7849 52.4852 49.2426L34 40H24L5.51475 49.2426C4.43031 49.7849 3.49349 50.5819 2.78456 51.5655C2.07563 52.5491 1.61572 53.6899 1.44425 54.8901L1 58H19" fill="#48351B"/>
<path d="M50 58V54C50 53.7348 50.1054 53.4804 50.2929 53.2929C50.4804 53.1054 50.7348 53 51 53C51.2652 53 51.5196 53.1054 51.7071 53.2929C51.8946 53.4804 52 53.7348 52 54V58H50Z" fill="#332613"/>
<path d="M24 40L16 44L19 50L24 46V40Z" fill="#5F4623"/>
<path d="M23 58H19L16 49L23 46V58Z" fill="#6E5129"/>
<path d="M34 40L42 44L39 50L34 46V40Z" fill="#5F4623"/>
<path d="M35 58H39L42 49L35 46V58Z" fill="#6E5129"/>
<path d="M34 36V38.455C33.99 38.4625 33.9788 38.4688 33.9688 38.4763C32.4967 39.473 30.7589 40.0039 28.9811 40.0001C27.2033 39.9963 25.4678 39.458 24 38.455V36H34Z" fill="#E6AF89"/>
<path d="M24 36V40L23 43L29 49L35 43L34 40V36H24Z" fill="#FDC9A6"/>
<path d="M34 36V38.455C33.99 38.4625 33.9788 38.4688 33.9688 38.4763C32.4967 39.473 30.7589 40.0039 28.9811 40.0001C27.2033 39.9963 25.4678 39.458 24 38.455V36H34Z" fill="#E6AF89"/>
<path d="M35 43L29 49L23 43V58H35V43Z" fill="#026CA2"/>
<path d="M6 58V54C6 53.7348 6.10536 53.4804 6.29289 53.2929C6.48043 53.1054 6.73478 53 7 53C7.26522 53 7.51957 53.1054 7.70711 53.2929C7.89464 53.4804 8 53.7348 8 54V58H6Z" fill="#332613"/>
<path d="M16 22V12.9972C16 12.047 16.1872 11.1061 16.5508 10.2282C16.9145 9.35024 17.4475 8.55255 18.1194 7.88062L19.8806 6.11938C20.5525 5.44745 21.3502 4.91445 22.2282 4.55081C23.1061 4.18716 24.047 4 24.9972 4H30.5279C31.8717 4.00001 33.189 4.37422 34.3321 5.08071C35.4752 5.7872 36.399 6.79805 37 8C37.9228 8.00001 38.8314 8.22785 39.645 8.66329C40.4587 9.09872 41.1522 9.7283 41.6641 10.4961C41.8831 10.8247 42 11.2107 42 11.6055V22H16Z" fill="#55300B"/>
<path d="M29 37.9999C27.2288 37.9999 25.4983 37.4692 24.0316 36.4762C22.565 35.4832 21.4295 34.0736 20.7716 32.4291C19.6013 29.5032 19 26.3808 19 23.2296V15.9999L22 10.9087H36L39 15.9999V23.2296C39.0001 26.381 38.3988 29.5035 37.2284 32.4296C36.5705 34.074 35.4349 35.4835 33.9683 36.4764C32.5016 37.4693 30.7711 38 29 37.9999Z" fill="#FDC9A6"/>
<path d="M35 20H32C31.7348 20 31.4804 19.8946 31.2929 19.7071C31.1054 19.5196 31 19.2652 31 19C31 18.7348 31.1054 18.4804 31.2929 18.2929C31.4804 18.1054 31.7348 18 32 18H35C35.2652 18 35.5196 18.1054 35.7071 18.2929C35.8946 18.4804 36 18.7348 36 19C36 19.2652 35.8946 19.5196 35.7071 19.7071C35.5196 19.8946 35.2652 20 35 20Z" fill="#55300B"/>
<path d="M33.25 23.5C33.9404 23.5 34.5 22.9404 34.5 22.25C34.5 21.5596 33.9404 21 33.25 21C32.5596 21 32 21.5596 32 22.25C32 22.9404 32.5596 23.5 33.25 23.5Z" fill="#55300B"/>
<path d="M26 20H23C22.7348 20 22.4804 19.8946 22.2929 19.7071C22.1054 19.5196 22 19.2652 22 19C22 18.7348 22.1054 18.4804 22.2929 18.2929C22.4804 18.1054 22.7348 18 23 18H26C26.2652 18 26.5196 18.1054 26.7071 18.2929C26.8946 18.4804 27 18.7348 27 19C27 19.2652 26.8946 19.5196 26.7071 19.7071C26.5196 19.8946 26.2652 20 26 20Z" fill="#55300B"/>
<path d="M24.75 23.5C25.4404 23.5 26 22.9404 26 22.25C26 21.5596 25.4404 21 24.75 21C24.0596 21 23.5 21.5596 23.5 22.25C23.5 22.9404 24.0596 23.5 24.75 23.5Z" fill="#55300B"/>
<path d="M31 32H27C26.7348 32 26.4804 31.8946 26.2929 31.7071C26.1054 31.5196 26 31.2652 26 31C26 30.7348 26.1054 30.4804 26.2929 30.2929C26.4804 30.1054 26.7348 30 27 30H31C31.2652 30 31.5196 30.1054 31.7071 30.2929C31.8946 30.4804 32 30.7348 32 31C32 31.2652 31.8946 31.5196 31.7071 31.7071C31.5196 31.8946 31.2652 32 31 32Z" fill="#E6AF89"/>
<path d="M30 28H28C27.7348 28 27.4804 27.8946 27.2929 27.7071C27.1054 27.5196 27 27.2652 27 27V24C27 23.7348 27.1054 23.4804 27.2929 23.2929C27.4804 23.1054 27.7348 23 28 23C28.2652 23 28.5196 23.1054 28.7071 23.2929C28.8946 23.4804 29 23.7348 29 24V26H30C30.2652 26 30.5196 26.1054 30.7071 26.2929C30.8946 26.4804 31 26.7348 31 27C31 27.2652 30.8946 27.5196 30.7071 27.7071C30.5196 27.8946 30.2652 28 30 28Z" fill="#E6AF89"/>
<path d="M19 19H17.618C16.9237 19 16.2578 19.2758 15.7668 19.7668C15.2758 20.2578 15 20.9237 15 21.618V23.382C15 23.7884 15.0946 24.1892 15.2764 24.5527C15.4938 24.9876 15.828 25.3534 16.2416 25.609C16.6552 25.8646 17.1318 26 17.618 26H20L19 19Z" fill="#FDC9A6"/>
<path d="M39 19H40.382C41.0763 19 41.7422 19.2758 42.2332 19.7668C42.7242 20.2578 43 20.9237 43 21.618V23.382C43 23.7884 42.9054 24.1892 42.7236 24.5527C42.5062 24.9876 42.172 25.3534 41.7584 25.609C41.3448 25.8646 40.8682 26 40.382 26H38L39 19Z" fill="#FDC9A6"/>
</svg>
