<svg width="57" height="59" viewBox="0 0 57 59" fill="none" xmlns="http://www.w3.org/2000/svg">
<circle cx="28.5" cy="28.5" r="28.5" fill="#52E5D4" fill-opacity="0.15"/>
<path d="M51.5719 55.4121C51.4179 54.1209 50.9097 52.8975 50.1037 51.8772C49.2976 50.8568 48.225 50.0793 47.0046 49.6305L36.169 45.6645C35.5176 45.4261 34.9284 45.0439 34.4451 44.5464C33.9618 44.0488 33.5969 43.4487 33.3775 42.7906C33.2207 42.3201 33.1408 41.8274 33.1408 41.3314V38.0852H23.7408V41.3536C23.7408 41.835 23.6655 42.3135 23.5175 42.7716L23.5165 42.7751C23.3014 43.441 22.9377 44.0494 22.4528 44.554C21.968 45.0586 21.3747 45.4464 20.7179 45.6879L9.9954 49.6305C8.77495 50.0793 7.7024 50.8568 6.89634 51.8772C6.09028 52.8975 5.58212 54.1209 5.42805 55.4121L5 59.0002H52L51.5719 55.4121Z" fill="#FDC9A6"/>
<path d="M33.1412 38.0852V40.1744C32.519 40.789 31.781 41.2739 30.9699 41.601C30.1588 41.9281 29.2909 42.0908 28.4164 42.0798C27.5419 42.0687 26.6783 41.8841 25.8758 41.5367C25.0732 41.1892 24.3477 40.6858 23.7412 40.0557V38.0852H33.1412Z" fill="#F6BB92"/>
<path d="M33.1412 38.0852V40.1744C32.519 40.789 31.781 41.2739 30.9699 41.601C30.1588 41.9281 29.2909 42.0908 28.4164 42.0798C27.5419 42.0687 26.6783 41.8841 25.8758 41.5367C25.0732 41.1892 24.3477 40.6858 23.7412 40.0557V38.0852H33.1412Z" fill="#E6AF89"/>
<path d="M25.6802 8.15597L24.8459 7.65518C23.6446 6.93434 22.2928 6.50104 20.8963 6.38914C19.4997 6.27724 18.0962 6.48976 16.7954 7.01011C15.2285 7.63688 13.867 8.68761 12.8635 10.0446C11.8601 11.4015 11.2544 13.0111 11.1142 14.693C10.8068 18.3824 11.7009 22.0723 13.6631 25.2117L14.587 26.6901C15.0736 27.4688 15.2692 28.3945 15.1393 29.3035C14.6596 32.6609 13.104 35.7723 10.7058 38.1704L9.7002 39.176H9.87856C14.4349 39.2783 18.8755 37.1809 21.9202 33.536L25.6802 8.15597Z" fill="#55300B"/>
<path d="M19.0412 22.3401H17.7417C17.0891 22.3402 16.4633 22.5995 16.0019 23.061C15.5405 23.5225 15.2812 24.1484 15.2812 24.801V26.4592C15.2813 26.8412 15.3702 27.218 15.541 27.5597C15.7454 27.9684 16.0595 28.3121 16.4482 28.5524C16.8368 28.7927 17.2848 28.92 17.7417 28.9201H20.04L19.0412 22.3401Z" fill="#FDC9A6"/>
<path d="M37.8412 22.3401H39.1402C39.4634 22.3401 39.7834 22.4037 40.082 22.5274C40.3805 22.651 40.6519 22.8323 40.8804 23.0608C41.1089 23.2894 41.2902 23.5606 41.4139 23.8592C41.5376 24.1578 41.6012 24.4778 41.6012 24.801V26.4592C41.6012 26.8412 41.5123 27.218 41.3414 27.5597C41.137 27.9685 40.8227 28.3124 40.4338 28.5527C40.045 28.793 39.5968 28.9202 39.1397 28.9201H36.96L37.8412 22.3401Z" fill="#FDC9A6"/>
<path d="M35.0806 26.1L37.367 24.5757C38.3869 23.8958 39.2102 22.9597 39.7544 21.8614C40.2986 20.763 40.5445 19.5409 40.4676 18.3176C40.2799 15.3335 38.9622 12.5331 36.7826 10.4863C34.6031 8.43955 31.7255 7.30016 28.7356 7.30005C25.7971 7.30003 22.9649 8.39891 20.7953 10.3808C18.6258 12.3626 17.2759 15.0842 17.0107 18.0106C17.0769 19.3715 17.4317 20.7027 18.0516 21.916C18.6715 23.1292 19.5423 24.1968 20.6062 25.0478L21.9206 26.1H35.0806Z" fill="#683B0D"/>
<path d="M44.4795 59.0003H12.5195C13.6869 58.1246 14.6343 56.9892 15.2869 55.684C15.9396 54.3788 16.2794 52.9396 16.2795 51.4803V47.3196L20.7175 45.6875C20.8068 45.6546 20.8938 45.6194 20.9795 45.5818V47.7203C20.9795 49.7147 21.7718 51.6275 23.1821 53.0377C24.5924 54.448 26.5051 55.2403 28.4995 55.2403C30.494 55.2403 32.4067 54.448 33.817 53.0377C35.2272 51.6275 36.0195 49.7147 36.0195 47.7203V45.6053C36.0689 45.6264 36.1182 45.6452 36.1688 45.664L40.7195 47.3302V51.4803C40.7197 52.9396 41.0595 54.3788 41.7121 55.684C42.3647 56.9892 43.3122 58.1246 44.4795 59.0003Z" fill="#F6BB92"/>
<path d="M22.821 36.9669C20.4242 32.9304 19.1593 28.3227 19.1592 23.6282V21.4001C20.2597 21.1205 21.255 20.5267 22.0237 19.6909C22.7923 18.8552 23.301 17.8137 23.4876 16.6937L23.8004 14.8201C27.507 17.9089 31.8964 20.0697 36.6049 21.1234L37.8417 21.4001V23.6282C37.8417 28.3226 36.5769 32.9303 34.1804 36.9669C33.5954 37.9523 32.7642 38.7684 31.7683 39.3353C30.7725 39.9021 29.6463 40.2002 28.5004 40.2001C27.3546 40.2001 26.2285 39.902 25.2328 39.3352C24.237 38.7683 23.4059 37.9522 22.821 36.9669Z" fill="#FDC9A6"/>
<path d="M34.0813 24.2201H31.2613C31.012 24.2201 30.7729 24.1211 30.5966 23.9448C30.4203 23.7685 30.3213 23.5294 30.3213 23.2801C30.3213 23.0308 30.4203 22.7917 30.5966 22.6154C30.7729 22.4391 31.012 22.3401 31.2613 22.3401H34.0813C34.3306 22.3401 34.5697 22.4391 34.746 22.6154C34.9223 22.7917 35.0213 23.0308 35.0213 23.2801C35.0213 23.5294 34.9223 23.7685 34.746 23.9448C34.5697 24.1211 34.3306 24.2201 34.0813 24.2201Z" fill="#683B0D"/>
<path d="M32.4361 27.7452C33.1499 27.7452 33.7286 27.1665 33.7286 26.4527C33.7286 25.7388 33.1499 25.1602 32.4361 25.1602C31.7222 25.1602 31.1436 25.7388 31.1436 26.4527C31.1436 27.1665 31.7222 27.7452 32.4361 27.7452Z" fill="#683B0D"/>
<path d="M25.6798 24.2201H22.9185C22.6692 24.2201 22.4301 24.1211 22.2538 23.9448C22.0776 23.7685 21.9785 23.5294 21.9785 23.2801C21.9785 23.0308 22.0776 22.7917 22.2538 22.6154C22.4301 22.4391 22.6692 22.3401 22.9185 22.3401H25.6798C25.9291 22.3401 26.1682 22.4391 26.3444 22.6154C26.5207 22.7917 26.6198 23.0308 26.6198 23.2801C26.6198 23.5294 26.5207 23.7685 26.3444 23.9448C26.1682 24.1211 25.9291 24.2201 25.6798 24.2201Z" fill="#683B0D"/>
<path d="M24.4458 27.7452C25.1596 27.7452 25.7383 27.1665 25.7383 26.4527C25.7383 25.7388 25.1596 25.1602 24.4458 25.1602C23.732 25.1602 23.1533 25.7388 23.1533 26.4527C23.1533 27.1665 23.732 27.7452 24.4458 27.7452Z" fill="#683B0D"/>
<path d="M28.5007 35.3372C28.0281 35.338 27.5601 35.2455 27.1234 35.0649C26.6867 34.8843 26.29 34.6192 25.956 34.2849C25.8687 34.1976 25.7995 34.094 25.7522 33.9799C25.705 33.8659 25.6807 33.7436 25.6807 33.6202C25.6807 33.4968 25.705 33.3745 25.7522 33.2605C25.7995 33.1464 25.8687 33.0428 25.956 32.9555C26.0433 32.8682 26.1469 32.799 26.261 32.7517C26.375 32.7045 26.4972 32.6802 26.6207 32.6802C26.7441 32.6802 26.8664 32.7045 26.9804 32.7517C27.0945 32.799 27.1981 32.8682 27.2854 32.9555C27.6077 33.2778 28.0449 33.4589 28.5007 33.4589C28.9565 33.4589 29.3937 33.2778 29.716 32.9555C29.8923 32.7792 30.1314 32.6802 30.3807 32.6802C30.63 32.6802 30.8691 32.7792 31.0454 32.9555C31.2217 33.1318 31.3207 33.3709 31.3207 33.6202C31.3207 33.8695 31.2217 34.1086 31.0454 34.2849C30.7114 34.6192 30.3147 34.8843 29.878 35.0649C29.4413 35.2455 28.9733 35.338 28.5007 35.3372Z" fill="#E6AF89"/>
<path d="M29.4401 31.7402H27.5601C27.3108 31.7402 27.0717 31.6412 26.8954 31.4649C26.7192 31.2886 26.6201 31.0495 26.6201 30.8002V28.9202C26.6201 28.6709 26.7192 28.4318 26.8954 28.2555C27.0717 28.0793 27.3108 27.9802 27.5601 27.9802C27.8094 27.9802 28.0485 28.0793 28.2248 28.2555C28.4011 28.4318 28.5001 28.6709 28.5001 28.9202V29.8602H29.4401C29.6894 29.8602 29.9285 29.9593 30.1048 30.1355C30.2811 30.3118 30.3801 30.5509 30.3801 30.8002C30.3801 31.0495 30.2811 31.2886 30.1048 31.4649C29.9285 31.6412 29.6894 31.7402 29.4401 31.7402Z" fill="#E6AF89"/>
<path d="M9.7002 59.0003V55.2403C9.7002 54.991 9.79923 54.7519 9.97552 54.5756C10.1518 54.3993 10.3909 54.3003 10.6402 54.3003C10.8895 54.3003 11.1286 54.3993 11.3049 54.5756C11.4812 54.7519 11.5802 54.991 11.5802 55.2403V59.0003H9.7002Z" fill="#E6AF89"/>
<path d="M45.4199 59.0003V55.2403C45.4199 54.991 45.519 54.7519 45.6952 54.5756C45.8715 54.3993 46.1106 54.3003 46.3599 54.3003C46.6092 54.3003 46.8483 54.3993 47.0246 54.5756C47.2009 54.7519 47.2999 54.991 47.2999 55.2403V59.0003H45.4199Z" fill="#E6AF89"/>
<path d="M35.2402 20.7845C34.4917 20.58 33.7534 20.3478 33.0253 20.0877L31.3686 15.1175C31.2897 14.8809 31.3081 14.6228 31.4196 14.3998C31.5311 14.1768 31.7266 14.0072 31.9631 13.9284C32.1996 13.8495 32.4578 13.8679 32.6808 13.9794C32.9038 14.0909 33.0734 14.2864 33.1522 14.5229L35.2402 20.7845Z" fill="#55300B"/>
<path d="M30.9742 19.2699C30.5876 19.0995 30.205 18.9213 29.8262 18.7353C29.4126 18.532 29.0041 18.3193 28.6007 18.0973L27.6078 15.1175C27.529 14.8809 27.5473 14.6228 27.6588 14.3998C27.7703 14.1768 27.9658 14.0072 28.2024 13.9284C28.4389 13.8495 28.6971 13.8679 28.9201 13.9794C29.1431 14.0909 29.3126 14.2864 29.3915 14.5229L30.9742 19.2699Z" fill="#55300B"/>
<path d="M38.3878 22.8642C38.2919 22.8962 38.1915 22.9124 38.0905 22.9124C38.0063 22.9124 37.9225 22.9009 37.8414 22.8783V21.4001L36.8344 21.1757L35.1283 16.0574C35.0495 15.8209 35.0678 15.5627 35.1793 15.3397C35.2908 15.1167 35.4863 14.9472 35.7229 14.8683C35.9594 14.7895 36.2176 14.8078 36.4406 14.9193C36.6636 15.0308 36.8331 15.2263 36.912 15.4629L38.9823 21.6751C39.0214 21.7922 39.037 21.9159 39.0282 22.039C39.0195 22.1621 38.9866 22.2824 38.9313 22.3928C38.8761 22.5032 38.7997 22.6017 38.7064 22.6825C38.6132 22.7634 38.5049 22.8252 38.3878 22.8642Z" fill="#55300B"/>
<path d="M44.4795 59.0003H12.5195C13.6869 58.1246 14.6343 56.9892 15.2869 55.684C15.9396 54.3788 16.2794 52.9396 16.2795 51.4803V47.3196L20.7175 45.6875C20.8068 45.6546 20.8938 45.6194 20.9795 45.5818V47.7203C20.9795 49.7147 21.7718 51.6275 23.1821 53.0377C24.5924 54.448 26.5051 55.2403 28.4995 55.2403C30.494 55.2403 32.4067 54.448 33.817 53.0377C35.2272 51.6275 36.0195 49.7147 36.0195 47.7203V45.6053C36.0689 45.6264 36.1182 45.6452 36.1688 45.664L40.7195 47.3302V51.4803C40.7197 52.9396 41.0595 54.3788 41.7121 55.684C42.3647 56.9892 43.3122 58.1246 44.4795 59.0003Z" fill="#F1746A"/>
<path d="M30.3805 49.6001C30.1945 49.6001 30.0128 49.545 29.8582 49.4417C29.7036 49.3384 29.5831 49.1916 29.512 49.0198C29.4408 48.8481 29.4222 48.6591 29.4585 48.4767C29.4948 48.2944 29.5843 48.1269 29.7158 47.9954L31.5958 46.1154C31.6831 46.0281 31.7867 45.9589 31.9007 45.9116C32.0148 45.8644 32.137 45.8401 32.2605 45.8401C32.3839 45.8401 32.5062 45.8644 32.6202 45.9116C32.7343 45.9589 32.8379 46.0281 32.9252 46.1154C33.0125 46.2027 33.0817 46.3063 33.1289 46.4204C33.1762 46.5344 33.2005 46.6567 33.2005 46.7801C33.2005 46.9036 33.1762 47.0258 33.1289 47.1398C33.0817 47.2539 33.0125 47.3575 32.9252 47.4448L31.0452 49.3248C30.958 49.4122 30.8544 49.4815 30.7403 49.5288C30.6262 49.576 30.5039 49.6003 30.3805 49.6001Z" fill="#E6AF89"/>
<path d="M26.6198 49.6001C26.4964 49.6003 26.3741 49.576 26.26 49.5288C26.1459 49.4815 26.0423 49.4122 25.9551 49.3248L24.0751 47.4448C23.8988 47.2685 23.7998 47.0294 23.7998 46.7801C23.7998 46.5308 23.8988 46.2917 24.0751 46.1154C24.2514 45.9391 24.4905 45.8401 24.7398 45.8401C24.9891 45.8401 25.2282 45.9391 25.4045 46.1154L27.2845 47.9954C27.416 48.1269 27.5055 48.2944 27.5418 48.4767C27.5781 48.6591 27.5595 48.8481 27.4883 49.0198C27.4172 49.1916 27.2967 49.3384 27.1421 49.4417C26.9875 49.545 26.8057 49.6001 26.6198 49.6001Z" fill="#E6AF89"/>
</svg>
