<svg width="57" height="59" viewBox="0 0 57 59" fill="none" xmlns="http://www.w3.org/2000/svg">
<circle cx="28.5" cy="28.5" r="28.5" fill="#52E5D4" fill-opacity="0.15"/>
<path d="M34.3533 44.4036L46.2812 48.1123C47.9661 48.6362 49.458 49.6351 50.5722 50.9854C51.6864 52.3357 52.3739 53.978 52.5498 55.7091L52.884 59.0001H0.998047L1.33229 55.7091C1.50812 53.978 2.19568 52.3357 3.30987 50.9854C4.42406 49.6351 5.91596 48.6362 7.60088 48.1123L19.5287 44.4036H34.3533Z" fill="#0BAFEA"/>
<path d="M21.7362 47.7311L20.4553 48.0527L12.4778 50.0164C10.7868 50.4327 9.28572 51.3936 8.21299 52.7464C7.14026 54.0991 6.55748 55.766 6.55726 57.4822V59.0001H0.998047L1.33276 55.709C1.50829 53.9778 2.19567 52.3354 3.30979 50.9851C4.4239 49.6347 5.91581 48.6358 7.60077 48.112L19.5288 44.4036H19.8252L21.7362 47.7311Z" fill="#0BAFEA"/>
<path d="M21.7362 47.7311L20.4553 48.0527L12.4778 50.0164C10.7868 50.4327 9.28572 51.3936 8.21299 52.7464C7.14026 54.0991 6.55748 55.766 6.55726 57.4822V59.0001H0.998047L1.33276 55.709C1.50829 53.9778 2.19567 52.3354 3.30979 50.9851C4.4239 49.6347 5.91581 48.6358 7.60077 48.112L19.5288 44.4036H19.8252L21.7362 47.7311Z" fill="#026CA2"/>
<path d="M32.1465 47.7311L33.4274 48.0527L41.4049 50.0164C43.0959 50.4327 44.597 51.3936 45.6697 52.7464C46.7424 54.0991 47.3252 55.766 47.3254 57.4822V59.0001H52.8847L52.5499 55.709C52.3744 53.9778 51.687 52.3354 50.5729 50.9851C49.4588 49.6347 47.9669 48.6358 46.2819 48.112L34.354 44.4036H34.0575L32.1465 47.7311Z" fill="#026CA2"/>
<path d="M21.3814 38.0176V42.579L19.5283 44.4035L19.8541 45.5264C20.2941 47.0427 21.2238 48.3766 22.5024 49.3262C23.781 50.2758 25.339 50.7895 26.9406 50.7895C28.5422 50.7895 30.1002 50.2758 31.3788 49.3262C32.6574 48.3766 33.5871 47.0427 34.0271 45.5264L34.3529 44.4035L32.4998 42.579V38.0176H21.3814Z" fill="#FDC9A6"/>
<path d="M32.5003 38.0176V40.4442C30.9846 41.817 29.0004 42.5789 26.941 42.5789C24.8817 42.5789 22.8975 41.817 21.3818 40.4442V38.0176H32.5003Z" fill="#E6AF89"/>
<path d="M28.7968 47.1402C28.5879 47.1404 28.3851 47.0712 28.2212 46.9437C28.0574 46.8162 27.9421 46.6379 27.894 46.4378C27.8459 46.2377 27.868 46.0275 27.9565 45.8412C28.045 45.655 28.1948 45.5036 28.3817 45.4117L30.2348 44.4994C30.3437 44.4448 30.4626 44.4118 30.5845 44.4026C30.7064 44.3934 30.829 44.408 30.9451 44.4456C31.0613 44.4832 31.1687 44.5431 31.2613 44.6218C31.3538 44.7005 31.4296 44.7965 31.4843 44.9042C31.539 45.0118 31.5715 45.1291 31.5799 45.2492C31.5884 45.3694 31.5726 45.4899 31.5335 45.604C31.4943 45.7181 31.4327 45.8234 31.352 45.9139C31.2714 46.0044 31.1733 46.0783 31.0635 46.1313L29.2105 47.0436C29.0821 47.107 28.9404 47.1401 28.7968 47.1402Z" fill="#E6AF89"/>
<path d="M25.0881 47.1402C24.9445 47.1401 24.8028 47.107 24.6744 47.0436L22.8213 46.1313C22.7115 46.0783 22.6135 46.0044 22.5328 45.9139C22.4522 45.8234 22.3905 45.7181 22.3514 45.604C22.3123 45.4899 22.2965 45.3694 22.3049 45.2492C22.3134 45.1291 22.3459 45.0118 22.4006 44.9042C22.4553 44.7965 22.5311 44.7005 22.6236 44.6218C22.7161 44.5431 22.8236 44.4832 22.9398 44.4456C23.0559 44.408 23.1785 44.3934 23.3004 44.4026C23.4223 44.4118 23.5412 44.4448 23.6501 44.4994L25.5032 45.4117C25.69 45.5036 25.8399 45.655 25.9284 45.8412C26.0169 46.0275 26.0389 46.2377 25.9909 46.4378C25.9428 46.6379 25.8275 46.8162 25.6636 46.9437C25.4998 47.0712 25.297 47.1404 25.0881 47.1402Z" fill="#E6AF89"/>
<path d="M32.5003 38.0176V40.4442C30.9846 41.817 29.0004 42.5789 26.941 42.5789C24.8817 42.5789 22.8975 41.817 21.3818 40.4442V38.0176H32.5003Z" fill="#E6AF89"/>
<path d="M26.0137 59.0001C26.0126 58.0079 26.2609 57.0308 26.7364 56.1559C27.212 55.2811 27.9 54.5356 28.7391 53.9861L29.2058 53.6796C29.3071 53.6131 29.4206 53.567 29.54 53.5437C29.6594 53.5205 29.7822 53.5206 29.9015 53.5441C30.0209 53.5676 30.1343 53.614 30.2354 53.6807C30.3365 53.7473 30.4233 53.833 30.4908 53.9326C30.5583 54.0323 30.6052 54.1441 30.6288 54.2617C30.6524 54.3792 30.6523 54.5002 30.6284 54.6177C30.6046 54.7351 30.5574 54.8469 30.4897 54.9464C30.422 55.046 30.3351 55.1314 30.2338 55.1979L29.767 55.5043C29.1819 55.8874 28.7022 56.4071 28.3706 57.0171C28.0391 57.627 27.866 58.3083 27.8667 59.0001H26.0137Z" fill="#026CA2"/>
<path d="M14.8955 27.0702V17.1352C14.8956 14.7158 15.7747 12.3762 17.374 10.5393C18.3403 9.42929 19.5391 8.53824 20.888 7.92732C22.237 7.3164 23.7043 7.00005 25.1891 7H28.2359C29.5877 7 30.9262 7.26215 32.1751 7.7715C33.424 8.28085 34.5588 9.02741 35.5146 9.96856L35.9705 10.4174C36.9263 11.3586 37.6846 12.4759 38.2019 13.7055C38.7192 14.9352 38.9854 16.2532 38.9854 17.5842V27.0702H14.8955Z" fill="#EA9D2D"/>
<path d="M26.9411 40.7544C25.3001 40.7544 23.6967 40.2702 22.3377 39.3643C20.9788 38.4584 19.9268 37.1724 19.3173 35.6722C18.2329 33.003 17.6757 30.1545 17.6758 27.2797V20.6842L20.4554 16.0396L20.4847 16.0523C22.5187 16.9367 24.7177 17.3935 26.9411 17.3935C29.1646 17.3935 31.3636 16.9367 33.3976 16.0523L33.4269 16.0396L36.2065 20.6842V27.2797C36.2066 30.1547 35.6495 33.0033 34.565 35.6726C33.9554 37.1728 32.9033 38.4587 31.5444 39.3645C30.1855 40.2703 28.5821 40.7544 26.9411 40.7544Z" fill="#FDC9A6"/>
<path d="M32.5011 24.3334H29.7215C29.4757 24.3334 29.2401 24.2372 29.0663 24.0662C28.8925 23.8951 28.7949 23.663 28.7949 23.4211C28.7949 23.1791 28.8925 22.9471 29.0663 22.776C29.2401 22.6049 29.4757 22.5088 29.7215 22.5088H32.5011C32.7468 22.5088 32.9825 22.6049 33.1562 22.776C33.33 22.9471 33.4276 23.1791 33.4276 23.4211C33.4276 23.663 33.33 23.8951 33.1562 24.0662C32.9825 24.2372 32.7468 24.3334 32.5011 24.3334Z" fill="#EA9D2D"/>
<path d="M30.8789 27.5263C31.5185 27.5263 32.037 27.0158 32.037 26.386C32.037 25.7562 31.5185 25.2456 30.8789 25.2456C30.2392 25.2456 29.7207 25.7562 29.7207 26.386C29.7207 27.0158 30.2392 27.5263 30.8789 27.5263Z" fill="#EA9D2D"/>
<path d="M24.1612 24.3334H21.3816C21.1359 24.3334 20.9002 24.2372 20.7265 24.0662C20.5527 23.8951 20.4551 23.663 20.4551 23.4211C20.4551 23.1791 20.5527 22.9471 20.7265 22.776C20.9002 22.6049 21.1359 22.5088 21.3816 22.5088H24.1612C24.407 22.5088 24.6426 22.6049 24.8164 22.776C24.9901 22.9471 25.0878 23.1791 25.0878 23.4211C25.0878 23.663 24.9901 23.8951 24.8164 24.0662C24.6426 24.2372 24.407 24.3334 24.1612 24.3334Z" fill="#EA9D2D"/>
<path d="M23.0029 27.5263C23.6425 27.5263 24.1611 27.0158 24.1611 26.386C24.1611 25.7562 23.6425 25.2456 23.0029 25.2456C22.3633 25.2456 21.8447 25.7562 21.8447 26.386C21.8447 27.0158 22.3633 27.5263 23.0029 27.5263Z" fill="#EA9D2D"/>
<path d="M17.6759 23.4211H16.3092C15.0174 23.4211 13.9697 24.4904 13.9697 25.8095V27.4188C13.9695 27.7885 14.0539 28.1536 14.2166 28.4868C14.4035 28.8788 14.6991 29.2107 15.0694 29.4443C15.4397 29.678 15.8695 29.8037 16.3092 29.8071H18.6024L17.6759 23.4211Z" fill="#FDC9A6"/>
<path d="M36.2068 23.4211H37.4415C38.7334 23.4211 39.781 24.4904 39.781 25.8095V27.4188C39.7813 27.7885 39.6969 28.1536 39.5341 28.4868C39.3473 28.8788 39.0516 29.2107 38.6814 29.4443C38.3111 29.678 37.8813 29.8037 37.4415 29.8071H35.2803L36.2068 23.4211Z" fill="#FDC9A6"/>
<path d="M27.8675 32.5438H26.0144C25.7687 32.5438 25.533 32.4476 25.3593 32.2766C25.1855 32.1055 25.0879 31.8734 25.0879 31.6315V27.9823C25.0879 27.7404 25.1855 27.5084 25.3593 27.3373C25.533 27.1662 25.7687 27.0701 26.0144 27.0701C26.2602 27.0701 26.4958 27.1662 26.6696 27.3373C26.8433 27.5084 26.941 27.7404 26.941 27.9823V30.7192H27.8675C28.1132 30.7192 28.3489 30.8153 28.5227 30.9864C28.6964 31.1575 28.794 31.3895 28.794 31.6315C28.794 31.8734 28.6964 32.1055 28.5227 32.2766C28.3489 32.4476 28.1132 32.5438 27.8675 32.5438Z" fill="#E6AF89"/>
<path d="M29.977 31.9146C28.0286 31.1473 25.8551 31.1473 23.9066 31.9146C23.4331 32.1011 23.0258 32.4209 22.7359 32.8341C22.4459 33.2472 22.286 33.7353 22.2763 34.2374L22.1748 39.4543C23.6148 40.305 25.2625 40.7544 26.9418 40.7544C28.6211 40.7544 30.2689 40.305 31.7089 39.4543L31.6074 34.2375C31.5977 33.7354 31.4378 33.2472 31.1478 32.8341C30.8578 32.4209 30.4506 32.1011 29.977 31.9146Z" fill="#D18D28"/>
<path d="M27.8675 35.2806H26.0144C25.7687 35.2806 25.533 35.1845 25.3593 35.0134C25.1855 34.8423 25.0879 34.6103 25.0879 34.3683C25.0879 34.1264 25.1855 33.8943 25.3593 33.7233C25.533 33.5522 25.7687 33.4561 26.0144 33.4561H27.8675C28.1132 33.4561 28.3489 33.5522 28.5227 33.7233C28.6964 33.8943 28.794 34.1264 28.794 34.3683C28.794 34.6103 28.6964 34.8423 28.5227 35.0134C28.3489 35.1845 28.1132 35.2806 27.8675 35.2806Z" fill="#E6AF89"/>
</svg>
