<svg width="57" height="59" viewBox="0 0 57 59" fill="none" xmlns="http://www.w3.org/2000/svg">
<circle cx="28.5" cy="28.5" r="28.5" fill="#52E5D4" fill-opacity="0.15"/>
<path d="M33.2778 38.2222H35.4183C36.7201 38.2222 37.9889 37.8126 39.045 37.0515C40.1011 36.2903 40.891 35.2161 41.3026 33.9811C41.6149 33.0443 41.699 32.0465 41.548 31.0707L39.5967 18.4662C39.2626 15.5844 37.881 12.9258 35.7147 10.9961C33.5484 9.06634 30.7484 8.00007 27.8473 8C24.8949 7.99998 22.0492 9.10405 19.8695 11.0953C17.6897 13.0865 16.3333 15.8209 16.067 18.7612L13.8357 30.4973C13.5819 31.8324 13.7736 33.2139 14.3815 34.4294L14.5634 34.7935C15.0786 35.8238 15.8705 36.6903 16.8504 37.2959C17.8302 37.9015 18.9594 38.2222 20.1113 38.2222H33.2778Z" fill="#026CA2"/>
<path d="M18.2259 23.1111H16.8022C16.1465 23.1112 15.5177 23.3718 15.0541 23.8354C14.5905 24.2991 14.3301 24.928 14.3301 25.5836V27.2496C14.3301 27.6335 14.4194 28.012 14.5911 28.3553C14.7964 28.766 15.112 29.1114 15.5025 29.3528C15.893 29.5942 16.3431 29.7221 16.8022 29.7222H19.1113L18.2259 23.1111Z" fill="#FDC9A6"/>
<path d="M45.4021 49.9317L32.3333 43.8889H22.8889L9.82073 49.9317C8.21736 50.6731 6.94883 51.9867 6.26395 53.615L4 59H51.2222L48.9583 53.6155C48.2736 51.9871 47.0053 50.6733 45.4021 49.9317Z" fill="#EAEAE8"/>
<path d="M34.5789 44.9277L33.0229 44.2076C32.5264 42.5208 32.2742 40.7715 32.274 39.0131V38.2222H22.8295V39.0131C22.8292 40.7939 22.5705 42.5652 22.0613 44.2716L20.6436 44.9277L17.2129 46.5132C17.2391 46.5737 17.2685 46.6324 17.2955 46.6924L17.2223 46.7222L17.3327 46.7723C18.2529 48.754 19.7261 50.4275 21.5752 51.5913C23.4243 52.7552 25.5703 53.3598 27.755 53.3324C29.9397 53.305 32.0699 52.6468 33.8892 51.437C35.7085 50.2272 37.1394 48.5173 38.0096 46.5132L34.5789 44.9277Z" fill="#FDC9A6"/>
<path d="M38.0096 46.5132C37.1287 48.5389 35.6754 50.2631 33.8282 51.4742C31.9809 52.6853 29.8201 53.3305 27.6112 53.3305C25.4024 53.3305 23.2416 52.6853 21.3943 51.4742C19.547 50.2631 18.0937 48.5389 17.2129 46.5132L20.6436 44.9277C21.2207 46.2991 22.1897 47.4697 23.4291 48.2929C24.6686 49.116 26.1234 49.5551 27.6112 49.5551C29.0991 49.5551 30.5539 49.116 31.7933 48.2929C33.0328 47.4697 34.0018 46.2991 34.5789 44.9277L38.0096 46.5132Z" fill="#E82F3E"/>
<path d="M8.72266 59.0001V55.2223C8.72266 54.9718 8.82216 54.7316 8.99928 54.5545C9.1764 54.3773 9.41662 54.2778 9.6671 54.2778C9.91758 54.2778 10.1578 54.3773 10.3349 54.5545C10.512 54.7316 10.6115 54.9718 10.6115 55.2223V59.0001H8.72266Z" fill="#CBCBCB"/>
<path d="M44.6113 59.0001V55.2223C44.6113 54.9718 44.7108 54.7316 44.8879 54.5545C45.0651 54.3773 45.3053 54.2778 45.5558 54.2778C45.8063 54.2778 46.0465 54.3773 46.2236 54.5545C46.4007 54.7316 46.5002 54.9718 46.5002 55.2223V59.0001H44.6113Z" fill="#CBCBCB"/>
<path d="M18.6386 35.3888C16.8159 35.3888 15.333 33.6941 15.333 31.611C15.333 29.5279 16.8159 27.8333 18.6386 27.8333C20.4612 27.8333 21.9441 29.5279 21.9441 31.611C21.9441 33.6941 20.4612 35.3888 18.6386 35.3888ZM18.6386 29.7221C17.8712 29.7221 17.2219 30.5871 17.2219 31.611C17.2219 32.6349 17.8712 33.4999 18.6386 33.4999C19.4059 33.4999 20.0552 32.6349 20.0552 31.611C20.0552 30.5871 19.4065 29.7221 18.6386 29.7221Z" fill="#A8A8A8"/>
<path d="M36.8787 23.1111H38.3018C38.6266 23.1111 38.9481 23.175 39.2481 23.2993C39.5481 23.4235 39.8207 23.6056 40.0503 23.8352C40.2799 24.0648 40.462 24.3374 40.5863 24.6374C40.7106 24.9374 40.7745 25.2589 40.7745 25.5836V27.2496C40.7745 27.6335 40.6852 28.012 40.5135 28.3553C40.3081 28.7662 39.9924 29.1116 39.6016 29.3531C39.2109 29.5945 38.7607 29.7223 38.3014 29.7222H36.1113L36.8787 23.1111Z" fill="#FDC9A6"/>
<path d="M32.3252 40.359C32.1005 40.5377 31.8656 40.7033 31.6216 40.8548C30.4179 41.6033 29.0287 41.9999 27.6113 41.9999C26.1938 41.9999 24.8047 41.6033 23.6009 40.8548C23.3162 40.6781 23.0437 40.4824 22.7852 40.2693C22.8159 39.8513 22.83 39.4322 22.83 39.0131V38.2222H32.2745V39.0131C32.2745 39.4629 32.2914 39.9115 32.3252 40.359Z" fill="#E6AF89"/>
<path d="M20.7984 35.8768C19.1061 32.4495 18.2258 28.6785 18.2256 24.8562V22.8318C18.2257 22.3872 18.3881 21.958 18.6823 21.6247C18.9764 21.2914 19.3821 21.0769 19.8231 21.0215C21.5897 20.7989 23.2574 20.0815 24.6338 18.952C26.0102 17.8224 27.0392 16.3268 27.6023 14.6376L27.611 14.6111L27.6197 14.6372C28.1827 16.3264 29.2117 17.8221 30.5882 18.9518C31.9646 20.0814 33.6323 20.7989 35.3989 21.0215C35.8399 21.0769 36.2456 21.2914 36.5398 21.6247C36.8339 21.958 36.9963 22.3872 36.9964 22.8318V24.8562C36.9964 28.6785 36.1162 32.4494 34.4241 35.8768C33.7966 37.1479 32.8259 38.2181 31.6219 38.9664C30.4179 39.7147 29.0286 40.1112 27.611 40.1111C26.1935 40.1111 24.8043 39.7145 23.6003 38.9663C22.3964 38.218 21.4259 37.1478 20.7984 35.8768Z" fill="#FDC9A6"/>
<path d="M33.2192 24.0556H30.3859C30.1354 24.0556 29.8951 23.9561 29.718 23.779C29.5409 23.6019 29.4414 23.3617 29.4414 23.1112C29.4414 22.8607 29.5409 22.6205 29.718 22.4434C29.8951 22.2663 30.1354 22.1667 30.3859 22.1667H33.2192C33.4697 22.1667 33.7099 22.2663 33.887 22.4434C34.0641 22.6205 34.1636 22.8607 34.1636 23.1112C34.1636 23.3617 34.0641 23.6019 33.887 23.779C33.7099 23.9561 33.4697 24.0556 33.2192 24.0556Z" fill="#683B0D"/>
<path d="M31.5662 27.4791C32.2834 27.4791 32.8648 26.8977 32.8648 26.1804C32.8648 25.4632 32.2834 24.8818 31.5662 24.8818C30.849 24.8818 30.2676 25.4632 30.2676 26.1804C30.2676 26.8977 30.849 27.4791 31.5662 27.4791Z" fill="#683B0D"/>
<path d="M24.7188 24.0556H21.9444C21.694 24.0556 21.4537 23.9561 21.2766 23.779C21.0995 23.6019 21 23.3617 21 23.1112C21 22.8607 21.0995 22.6205 21.2766 22.4434C21.4537 22.2663 21.694 22.1667 21.9444 22.1667H24.7188C24.9692 22.1667 25.2095 22.2663 25.3866 22.4434C25.5637 22.6205 25.6632 22.8607 25.6632 23.1112C25.6632 23.3617 25.5637 23.6019 25.3866 23.779C25.2095 23.9561 24.9692 24.0556 24.7188 24.0556Z" fill="#683B0D"/>
<path d="M23.5379 27.4791C24.2551 27.4791 24.8365 26.8977 24.8365 26.1804C24.8365 25.4632 24.2551 24.8818 23.5379 24.8818C22.8207 24.8818 22.2393 25.4632 22.2393 26.1804C22.2393 26.8977 22.8207 27.4791 23.5379 27.4791Z" fill="#683B0D"/>
<path d="M27.6108 34.9856C26.8383 34.9849 26.0736 34.8317 25.3604 34.535C25.2458 34.4875 25.1417 34.418 25.054 34.3303C24.9663 34.2425 24.8967 34.1384 24.8492 34.0238C24.7534 33.7924 24.7534 33.5323 24.8493 33.3009C24.9451 33.0694 25.129 32.8855 25.3605 32.7897C25.5919 32.6938 25.852 32.6938 26.0834 32.7897C26.5673 32.9917 27.0864 33.0958 27.6108 33.0958C28.1352 33.0958 28.6543 32.9917 29.1382 32.7897C29.2528 32.7422 29.3756 32.7178 29.4997 32.7178C29.6237 32.7178 29.7465 32.7422 29.8612 32.7897C29.9758 32.8371 30.0799 32.9067 30.1676 32.9944C30.2553 33.0821 30.3249 33.1863 30.3724 33.3009C30.4198 33.4155 30.4443 33.5383 30.4443 33.6623C30.4443 33.7864 30.4198 33.9092 30.3724 34.0238C30.3249 34.1384 30.2553 34.2425 30.1676 34.3303C30.0799 34.418 29.9758 34.4875 29.8612 34.535C29.148 34.8317 28.3833 34.9849 27.6108 34.9856Z" fill="#E6AF89"/>
<path d="M28.556 31.611H26.6671C26.4166 31.611 26.1764 31.5115 25.9993 31.3344C25.8222 31.1573 25.7227 30.9171 25.7227 30.6666V28.7777C25.7227 28.5272 25.8222 28.287 25.9993 28.1099C26.1764 27.9328 26.4166 27.8333 26.6671 27.8333C26.9176 27.8333 27.1578 27.9328 27.3349 28.1099C27.512 28.287 27.6115 28.5272 27.6115 28.7777V29.7221H28.556C28.8065 29.7221 29.0467 29.8216 29.2238 29.9988C29.4009 30.1759 29.5004 30.4161 29.5004 30.6666C29.5004 30.9171 29.4009 31.1573 29.2238 31.3344C29.0467 31.5115 28.8065 31.611 28.556 31.611Z" fill="#E6AF89"/>
</svg>
