<svg width="65" height="61" viewBox="0 0 65 61" fill="none" xmlns="http://www.w3.org/2000/svg">
<path d="M54.082 60.9667H10.918C7.69793 60.9667 5.07812 58.347 5.07812 55.1268V24.4016C5.07812 23.2799 5.98749 22.3704 7.10938 22.3704C8.23126 22.3704 9.14062 23.2799 9.14062 24.4016V55.1268C9.14062 56.1069 9.93789 56.9042 10.918 56.9042H54.082C55.0621 56.9042 55.8594 56.1069 55.8594 55.1268V24.4016C55.8594 23.2799 56.7687 22.3704 57.8906 22.3704C59.0125 22.3704 59.9219 23.2799 59.9219 24.4016V55.1268C59.9219 58.3469 57.3022 60.9667 54.082 60.9667Z" fill="#47BD9C"/>
<path d="M62.9687 31.5103C62.4489 31.5103 61.9291 31.312 61.5325 30.9153L36.2702 5.65328C34.1914 3.5743 30.8087 3.5743 28.7297 5.65328L3.46757 30.9154C2.67436 31.7087 1.3882 31.7087 0.594998 30.9154C-0.198333 30.1222 -0.198333 28.8361 0.594998 28.0429L25.8572 2.78059C29.52 -0.882265 35.4801 -0.882265 39.1428 2.78059L64.4049 28.0427C65.1983 28.8361 65.1983 30.1221 64.4049 30.9153C64.0085 31.312 63.4886 31.5103 62.9687 31.5103Z" fill="#47BD9C"/>
<path d="M40.625 60.9667H24.375C23.2531 60.9667 22.3438 60.0572 22.3438 58.9354V40.9081C22.3438 37.408 25.1913 34.5604 28.6914 34.5604H36.3086C39.8087 34.5604 42.6562 37.408 42.6562 40.9081V58.9354C42.6562 60.0572 41.7469 60.9667 40.625 60.9667ZM26.4062 56.9042H38.5937V40.9081C38.5937 39.6481 37.5686 38.6229 36.3086 38.6229H28.6914C27.4314 38.6229 26.4062 39.6481 26.4062 40.9081V56.9042Z" fill="#47BD9C"/>
</svg>
