<svg width="53" height="33" viewBox="0 0 53 33" fill="none" xmlns="http://www.w3.org/2000/svg">
<g clip-path="url(#clip0)">
<path d="M52.3095 33.124H48.355C47.9736 33.124 47.6645 32.8149 47.6645 32.4335V27.34H5.66304V32.4335C5.66304 32.8149 5.35397 33.124 4.97253 33.124H0.690514C0.309074 33.124 0 32.8149 0 32.4335V0.566247C0 0.184806 0.309074 -0.124268 0.690514 -0.124268H4.97253C5.35397 -0.124268 5.66304 0.184806 5.66304 0.566247V10.0368C6.1743 9.68545 6.79245 9.4794 7.45838 9.4794H16.0194C17.7708 9.4794 19.1957 10.9043 19.1957 12.6558V13.5772C19.1957 14.2428 18.99 14.8613 18.6384 15.3725H47.6643V9.0789C47.6643 8.69746 47.9733 8.38839 48.3548 8.38839H52.3092C52.6906 8.38839 52.9997 8.69746 52.9997 9.0789V32.4337C53 32.8149 52.6909 33.124 52.3095 33.124ZM49.0453 31.743H51.6187V9.76942H49.0453V31.743ZM1.38103 31.743H4.28202V1.25676H1.38103V31.743ZM5.66304 25.9589H47.6643V23.5203H5.66304V25.9589ZM5.66304 22.1393H47.6643V16.7538H5.66304V22.1393ZM7.45838 15.3728H16.0194C17.0093 15.3728 17.8147 14.5674 17.8147 13.5775V12.656C17.8147 11.6661 17.0093 10.8607 16.0194 10.8607H7.45838C6.46846 10.8607 5.66304 11.6661 5.66304 12.656V13.5775C5.66304 14.5674 6.46846 15.3728 7.45838 15.3728Z" fill="#000002"/>
</g>
<defs>
<clipPath id="clip0">
<rect width="53" height="33" fill="white"/>
</clipPath>
</defs>
</svg>
