<svg width="118" height="119" viewBox="0 0 118 119" fill="none" xmlns="http://www.w3.org/2000/svg">
<g clip-path="url(#clip0)">
<path d="M90.936 78.4447L91.5863 57.3981C91.5219 53.4329 88.2424 50.2528 84.24 50.3177C82.9716 50.3383 81.7858 50.6854 80.7612 51.2885C80.2379 47.7759 77.1664 45.1015 73.4943 45.1611C72.2286 45.1842 71.0427 45.5313 70.0154 46.1264C69.4868 42.6192 66.4181 39.9421 62.7487 40.0043C61.5068 40.0245 60.3448 40.3578 59.3332 40.9313L59.1801 31.4872C59.1157 27.522 55.8362 24.3419 51.8338 24.4069C47.8659 24.4686 44.6885 27.7507 44.7529 31.7212L45.3413 68.005L32.7443 59.1359C29.3809 56.6981 24.667 57.1078 21.7753 60.0948C19.6072 62.3344 19.6654 65.9211 21.905 68.0892L47.4388 92.8081C51.417 96.6592 56.6563 98.7306 62.1936 98.6408L70.577 98.5048C76.1065 98.4178 81.2706 96.1776 85.1164 92.2049C88.708 88.4949 90.7745 83.6076 90.936 78.4447ZM70.5159 94.7367L62.1325 94.8727C57.6025 94.9461 53.3155 93.251 50.0604 90.0999L24.5265 65.381C23.7791 64.6574 23.7597 63.4635 24.4833 62.7161C26.0773 61.0696 28.6777 60.8435 30.555 62.2044L46.2015 73.2177C46.7813 73.6268 47.539 73.6732 48.1681 73.3431C48.7917 73.0132 49.181 72.3565 49.1694 71.6477L48.5209 31.6599C48.4902 29.768 50.0055 28.2027 51.9268 28.1689C52.8728 28.1562 53.7371 28.526 54.3682 29.1369C54.9992 29.7478 55.3967 30.5996 55.4122 31.5483L55.8446 58.2124C55.8615 59.2516 56.72 60.0827 57.7592 60.0659C58.2788 60.0547 58.7471 59.8367 59.0827 59.49C59.4183 59.1433 59.6211 58.6684 59.6126 58.146L59.4361 47.2576C59.4054 45.3657 60.9181 43.8031 62.842 43.7719C64.7287 43.7413 66.2966 45.2592 66.3272 47.1459L66.5039 58.0395C66.5207 59.0788 67.3792 59.9098 68.4185 59.893C68.9381 59.8818 69.4063 59.6638 69.742 59.3171C70.0776 58.9705 70.2804 58.4955 70.2719 57.9731L70.1818 52.4143C70.1511 50.5224 71.6638 48.9597 73.5877 48.9285C75.4744 48.898 77.0423 50.4158 77.0729 52.3025L77.1635 57.8879C77.1664 57.8958 77.1636 57.8931 77.1636 57.8931L77.1637 57.8984C77.1638 57.9036 77.1638 57.9036 77.1638 57.9036C77.1639 57.9088 77.1639 57.9088 77.1639 57.9088L77.1665 57.9114C77.1692 57.914 77.1666 57.9167 77.1666 57.9167C77.2097 58.9341 78.0597 59.7361 79.0802 59.7168C80.1195 59.7 80.9506 58.8415 80.9337 57.8022L80.93 57.5731C80.9151 56.6565 81.2583 55.7872 81.8953 55.1292C82.5324 54.4711 83.3846 54.1001 84.3333 54.0848C86.2254 54.0595 87.7827 55.5722 87.8198 57.3708L87.1708 78.3295C87.0363 82.5486 85.3473 86.5477 82.4085 89.5834C79.2626 92.833 75.0407 94.6633 70.5159 94.7367Z" fill="#47BD9C"/>
<path d="M67.901 37.3536C70.1531 31.0825 68.5303 24.0452 63.7642 19.4312C57.0456 12.927 46.2852 13.1015 39.781 19.8201C35.167 24.5862 33.7732 31.6724 36.2247 37.8699C36.3274 38.1267 36.4803 38.3483 36.6672 38.5292C37.1816 39.0272 37.963 39.2065 38.6728 38.9285C39.6394 38.5423 40.1121 37.447 39.7313 36.4804C37.8219 31.6575 38.9028 26.1463 42.4891 22.4418C47.5487 17.2153 55.9162 17.0795 61.1428 22.1393C64.8473 25.7256 66.1063 31.1988 64.3543 36.081C63.9997 37.0597 64.5077 38.1444 65.4889 38.4908C66.4699 38.8428 67.5491 38.3348 67.901 37.3536Z" fill="#47BD9C"/>
</g>
<defs>
<clipPath id="clip0">
<rect width="82.9199" height="82.9199" fill="white" transform="translate(58.1318 0.864014) rotate(44.0709)"/>
</clipPath>
</defs>
</svg>
