<svg width="44" height="39" viewBox="0 0 44 39" fill="none" xmlns="http://www.w3.org/2000/svg">
<path d="M43.3678 38.761H0.632184C0.282966 38.761 0 38.478 0 38.1288V0.632184C0 0.282965 0.282966 0 0.632184 0H38.986C39.3352 0 39.6182 0.282965 39.6182 0.632184V19.3264H43.3678C43.717 19.3264 44 19.6093 44 19.9585V38.1288C44 38.478 43.717 38.761 43.3678 38.761ZM11.5057 37.4966H42.7356V20.5907H29.6618C29.3126 20.5907 29.0296 20.3078 29.0296 19.9585V18.7415H27.4689C27.1197 18.7415 26.8367 18.4585 26.8367 18.1093C26.8367 17.7601 27.1197 17.4771 27.4689 17.4771H29.0296V13.3889C29.0296 13.0397 29.3126 12.7567 29.6618 12.7567C30.011 12.7567 30.294 13.0397 30.294 13.3889V19.3264H33.968V1.26437H30.294V5.8869C30.294 6.23611 30.011 6.51908 29.6618 6.51908C29.3126 6.51908 29.0296 6.23611 29.0296 5.8869V3.94811H19.092C18.7427 3.94811 18.4598 3.66515 18.4598 3.31593V1.26437H16.1518V4.20099C16.1518 4.55021 15.8688 4.83317 15.5196 4.83317C15.1704 4.83317 14.8874 4.55021 14.8874 4.20099V1.26437H14.2031V2.89464C14.2031 3.24386 13.9202 3.52683 13.571 3.52683H13.374C13.487 3.78501 13.55 4.07025 13.55 4.36965V6.01333C13.55 7.17529 12.6047 8.12053 11.4428 8.12053C10.2808 8.12053 9.33559 7.17529 9.33559 6.01333V4.36965C9.33559 4.07 9.39855 3.78501 9.51159 3.52683H9.3146C8.96538 3.52683 8.68241 3.24386 8.68241 2.89464V1.26437H6.38506V9.63777C6.38506 9.98699 6.10209 10.27 5.75287 10.27H4.93103V13.8198H14.8874V10.9021C14.8874 10.5529 15.1704 10.27 15.5196 10.27C15.8688 10.27 16.1518 10.5529 16.1518 10.9021V17.4768H17.7125C18.0617 17.4768 18.3447 17.7598 18.3447 18.109C18.3447 18.4583 18.0617 18.7412 17.7125 18.7412H16.1518V21.8389C16.1518 22.1881 15.8688 22.4711 15.5196 22.4711C15.1704 22.4711 14.8874 22.1881 14.8874 21.8389V15.0842H5.85832V33.2395H10.8736C11.2228 33.2395 11.5057 33.5224 11.5057 33.8717V37.4966ZM1.26437 37.4966H10.2414V34.5038H5.22614C4.87692 34.5038 4.59395 34.2209 4.59395 33.8717V22.8717H1.26437V37.4966ZM1.26437 21.6073H4.59395V15.0842H1.26437V21.6073ZM37.4253 19.3264H38.3538V1.26437H37.4253V19.3264ZM35.2324 19.3264H36.1609V1.26437H35.2324V19.3264ZM1.26437 13.5995H3.66667V10.27H1.26437V13.5995ZM4.29885 9.00558H5.12069V1.26437H1.26437V9.00558H4.29885ZM11.4425 3.52683C10.9777 3.52683 10.5997 3.90513 10.5997 4.36965V6.01333C10.5997 6.47811 10.9777 6.85616 11.4425 6.85616C11.9073 6.85616 12.2854 6.47811 12.2854 6.01333V4.36965C12.2854 3.90513 11.9073 3.52683 11.4425 3.52683ZM19.7241 2.68375H29.0296V1.26437H19.7241V2.68375ZM11.4425 2.26246H12.9388V1.26437H9.94628V2.26246H11.4425ZM25.2762 35.6205H20.2074C19.8582 35.6205 19.5752 35.3376 19.5752 34.9883V23.4037C19.5752 23.0545 19.8582 22.7715 20.2074 22.7715H25.2762C25.6255 22.7715 25.9084 23.0545 25.9084 23.4037V34.9886C25.9084 35.3376 25.6252 35.6205 25.2762 35.6205ZM20.8396 34.3562H24.644V33.724H22.4003C22.0511 33.724 21.7681 33.441 21.7681 33.0918V25.3003C21.7681 24.951 22.0511 24.6681 22.4003 24.6681H24.644V24.0359H20.8396V34.3562ZM23.0325 32.4596H24.644V25.9324H23.0325V32.4596ZM38.986 35.2412C38.6368 35.2412 38.3538 34.9583 38.3538 34.609V23.7355C38.3538 23.3862 38.6368 23.1033 38.986 23.1033C39.3352 23.1033 39.6182 23.3862 39.6182 23.7355V25.6968C39.9469 25.719 40.2069 25.9929 40.2069 26.3274V32.0171C40.2069 32.3516 39.9472 32.6255 39.6182 32.6477V34.609C39.6182 34.9583 39.3352 35.2412 38.986 35.2412ZM32.8915 34.4826C30.8809 34.4826 29.306 32.3167 29.306 29.5516C29.306 26.7864 30.8809 24.6205 32.8915 24.6205C34.9021 24.6205 36.477 26.7864 36.477 29.5516C36.477 32.3167 34.9021 34.4826 32.8915 34.4826ZM32.8915 25.8849C31.6332 25.8849 30.5704 27.564 30.5704 29.5516C30.5704 31.5391 31.6335 33.2182 32.8915 33.2182C34.1496 33.2182 35.2126 31.5391 35.2126 29.5516C35.2126 27.564 34.1496 25.8849 32.8915 25.8849Z" fill="#000002"/>
</svg>
