<svg width="42" height="46" viewBox="0 0 42 46" fill="none" xmlns="http://www.w3.org/2000/svg">
<path d="M35.0983 46H3.85192C3.66432 46 3.48776 45.9124 3.37429 45.763C3.26082 45.6138 3.22388 45.4199 3.27425 45.2393L5.68832 36.5695C3.55709 34.0503 2.33506 30.7858 2.2096 27.2881H1.11927C0.787975 27.2881 0.519531 27.0197 0.519531 26.6884V26.2686C0.519531 24.8465 1.67631 23.6897 3.09841 23.6897H23.8835C25.1741 23.6897 26.2464 24.6428 26.4333 25.8821C26.7524 25.7183 27.0234 25.4623 27.2137 25.1334C27.3727 24.8585 27.4567 24.5202 27.4567 24.1551V6.77705H26.9867C26.6554 6.77705 26.387 6.50861 26.387 6.17731V4.43807C26.387 3.413 27.2211 2.57888 28.2462 2.57888H32.175C32.0908 2.36513 32.0447 2.13243 32.0447 1.88918C32.0447 0.847312 32.8923 0 33.9339 0C34.9755 0 35.8231 0.847312 35.8231 1.88918C35.8231 2.13243 35.7768 2.36513 35.6928 2.57888H39.6216C40.6466 2.57888 41.4808 3.413 41.4808 4.43807V6.17731C41.4808 6.50861 41.2123 6.77705 40.881 6.77705H40.4111V22.4792C40.4111 24.2693 39.8483 25.8231 38.6397 27.3692C38.4518 27.6098 38.2345 27.8792 38.0193 28.146C37.8406 28.3674 37.6633 28.5869 37.5064 28.7858C37.3471 28.9878 37.1797 29.1917 37.0077 29.4011C35.8151 30.8523 34.4638 32.497 34.1356 35.6857C33.861 38.3562 35.6105 45.0152 35.6283 45.0819L35.6724 45.2259C35.7276 45.4077 35.6935 45.6047 35.5803 45.7575C35.4668 45.91 35.2881 46 35.0983 46ZM4.64142 44.8005H34.3184C33.8787 43.0397 32.6936 37.9805 32.9424 35.5631C33.3073 32.015 34.845 30.1434 36.0807 28.6397C36.2474 28.4368 36.4101 28.2391 36.5646 28.0433C36.7241 27.8411 36.904 27.618 37.0856 27.393C37.2967 27.131 37.5102 26.8669 37.6947 26.6308C38.7296 25.3066 39.2116 23.9874 39.2116 22.4792V6.77705H28.6562V24.1549C28.6562 24.7306 28.5163 25.2769 28.252 25.7339C27.7858 26.5397 26.9855 27.089 26.0893 27.2438C26.0192 27.2723 25.9427 27.2881 25.8626 27.2881H3.40955C3.5379 30.6071 4.73018 33.689 6.8 36.0213C6.80072 36.0223 6.80168 36.0235 6.80264 36.0244C6.80528 36.0273 6.80768 36.0302 6.81008 36.0331C6.8535 36.0837 9.75671 39.4029 15.3067 39.4029C15.638 39.4029 15.9064 39.6713 15.9064 40.0026C15.9064 40.3339 15.638 40.6023 15.3067 40.6023C10.8223 40.6023 7.93998 38.664 6.65846 37.5559L4.64142 44.8005ZM2.7983 26.0887H25.2509C25.1623 25.4129 24.5827 24.8892 23.8832 24.8892H3.09817C2.39839 24.8892 1.81881 25.4129 1.73052 26.0887H2.7983ZM39.8111 5.57758H40.281V4.43807C40.281 4.07415 39.9853 3.77836 39.6213 3.77836H28.246C27.8823 3.77836 27.5862 4.07415 27.5862 4.43807V5.57758H39.8111ZM33.9336 1.19948C33.5534 1.19948 33.2439 1.50894 33.2439 1.88918C33.2439 2.26941 33.5534 2.57888 33.9336 2.57888C34.3139 2.57888 34.6233 2.26941 34.6233 1.88918C34.6233 1.50894 34.3141 1.19948 33.9336 1.19948Z" fill="black"/>
</svg>
