<svg width="85" height="85" viewBox="0 0 85 85" fill="none" xmlns="http://www.w3.org/2000/svg">
<g clip-path="url(#clip0)">
<path d="M45.1672 85H39.8326C35.518 85 32.0076 81.4898 32.0076 77.1752V75.3704C30.1733 74.7844 28.3912 74.0446 26.679 73.1586L25.4001 74.4376C22.3024 77.5391 17.3403 77.4481 14.3326 74.4364L10.5622 70.6662C7.54923 67.6565 7.46257 62.6961 10.5632 59.5988L11.8412 58.3208C10.9552 56.6087 10.2156 54.8268 9.6294 52.9922H7.82481C3.5104 52.9922 0 49.482 0 45.1674V39.8326C0 35.518 3.5104 32.0078 7.82498 32.0078H9.62957C10.2158 30.1733 10.9554 28.3913 11.8414 26.6792L10.5624 25.4004C7.46356 22.3049 7.54906 17.344 10.5634 14.333L14.3341 10.5624C17.3488 7.54358 22.3097 7.46821 25.4014 10.5634L26.6792 11.8412C28.3913 10.9554 30.1735 10.2156 32.0078 9.6294V7.82481C32.0078 3.51023 35.518 0 39.8328 0H45.1674C49.482 0 52.9922 3.51023 52.9922 7.82481V9.62957C54.8265 10.2156 56.6087 10.9554 58.3208 11.8414L59.5998 10.5624C62.6975 7.46091 67.6595 7.55188 70.6672 10.5636L74.4376 14.3338C77.4506 17.3435 77.5373 22.3039 74.4366 25.4012L73.1586 26.6792C74.0446 28.3913 74.7842 30.1732 75.3704 32.0078H77.175C81.4896 32.0078 85 35.518 85 39.8326V45.1674C85 49.482 81.4896 52.9922 77.175 52.9922H75.3704C74.7842 54.8267 74.0446 56.6087 73.1586 58.3208L74.4376 59.5998C77.5364 62.6953 77.4509 67.6562 74.4366 70.6672L70.6659 74.4378C67.6512 77.4566 62.6903 77.532 59.5986 74.4368L58.3208 73.1589C56.6087 74.0448 54.8265 74.7846 52.9922 75.3708V77.1755C52.9922 81.4898 49.482 85 45.1672 85ZM27.5116 67.9286C29.8901 69.3353 32.4501 70.3979 35.1203 71.0871C36.22 71.3708 36.9883 72.3626 36.9883 73.4983V77.1752C36.9883 78.7435 38.2644 80.0195 39.8328 80.0195H45.1674C46.7357 80.0195 48.0119 78.7435 48.0119 77.1752V73.4983C48.0119 72.3626 48.7802 71.3708 49.8799 71.0871C52.5501 70.3979 55.1101 69.3353 57.4886 67.9286C58.4672 67.3499 59.7132 67.5073 60.5172 68.3113L63.1216 70.9159C64.2446 72.0402 66.0478 72.0141 67.1432 70.9171L70.9162 67.1442C72.0089 66.0528 72.0455 64.2492 70.9172 63.1225L68.3116 60.5168C67.5078 59.713 67.3504 58.4669 67.9289 57.4884C69.3356 55.11 70.3981 52.5501 71.0872 49.8797C71.3711 48.78 72.3629 48.0119 73.4984 48.0119H77.1752C78.7435 48.0119 80.0197 46.7359 80.0197 45.1675V39.8328C80.0197 38.2644 78.7435 36.9884 77.1752 36.9884H73.4984C72.3627 36.9884 71.3711 36.2201 71.0872 35.1206C70.3981 32.4502 69.3354 29.8903 67.9289 27.5119C67.3504 26.5334 67.5078 25.2873 68.3116 24.4835L70.9162 21.8789C72.0421 20.7543 72.0128 18.9513 70.9172 17.8571L67.1445 14.0844C66.051 12.9894 64.2474 12.9574 63.1228 14.0834L60.5173 16.6891C59.7135 17.4931 58.4671 17.6504 57.4887 17.0717C55.1102 15.6651 52.5503 14.6024 49.8801 13.9133C48.7804 13.6296 48.0121 12.6378 48.0121 11.5021V7.82481C48.0121 6.25646 46.7359 4.98047 45.1675 4.98047H39.833C38.2646 4.98047 36.9884 6.25646 36.9884 7.82481V11.5017C36.9884 12.6374 36.2201 13.6292 35.1204 13.9129C32.4502 14.6021 29.8903 15.6647 27.5118 17.0714C26.5329 17.65 25.287 17.4926 24.4832 16.6887L21.8787 14.0841C20.7558 12.9598 18.9523 12.9859 17.8571 14.0829L14.0841 17.8558C12.9914 18.9472 12.9549 20.7506 14.0831 21.8775L16.6887 24.4832C17.4926 25.287 17.65 26.5331 17.0714 27.5116C15.6647 29.8899 14.6022 32.4499 13.9131 35.1203C13.6292 36.22 12.6374 36.9881 11.5019 36.9881H7.82498C6.25663 36.9883 4.98047 38.2643 4.98047 39.8326V45.1674C4.98047 46.7357 6.25663 48.0117 7.82498 48.0117H11.5017C12.6374 48.0117 13.6291 48.78 13.9129 49.8796C14.6021 52.5499 15.6647 55.1099 17.0712 57.4882C17.6498 58.4667 17.4924 59.7128 16.6886 60.5167L14.0839 63.1213C12.958 64.2459 12.9874 66.0488 14.0829 67.143L17.8556 70.9157C18.9492 72.0108 20.7528 72.0428 21.8774 70.9167L24.4828 68.3111C25.0752 67.7189 26.3075 67.2164 27.5116 67.9286Z" fill="#47BD9C"/>
<path d="M42.5 60.9941C32.3022 60.9941 24.0059 52.6977 24.0059 42.5C24.0059 32.3023 32.3022 24.0059 42.5 24.0059C52.6978 24.0059 60.9941 32.3023 60.9941 42.5C60.9941 52.6977 52.6978 60.9941 42.5 60.9941ZM42.5 28.9863C35.0484 28.9863 28.9863 35.0486 28.9863 42.5C28.9863 49.9514 35.0486 56.0137 42.5 56.0137C49.9514 56.0137 56.0137 49.9514 56.0137 42.5C56.0137 35.0486 49.9516 28.9863 42.5 28.9863Z" fill="#47BD9C"/>
</g>
<defs>
<clipPath id="clip0">
<rect width="85" height="85" fill="white"/>
</clipPath>
</defs>
</svg>
