<svg width="85" height="77" viewBox="0 0 85 77" fill="none" xmlns="http://www.w3.org/2000/svg">
<path d="M23.9062 37.3379H18.5938C17.2185 37.3379 16.1035 38.4529 16.1035 39.8281C16.1035 41.2034 17.2185 42.3184 18.5938 42.3184H23.9062C25.2815 42.3184 26.3965 41.2034 26.3965 39.8281C26.3965 38.4529 25.2815 37.3379 23.9062 37.3379Z" fill="#47BD9C"/>
<path d="M23.9062 47.9629H18.5938C17.2185 47.9629 16.1035 49.0779 16.1035 50.4531C16.1035 51.8284 17.2185 52.9434 18.5938 52.9434H23.9062C25.2815 52.9434 26.3965 51.8284 26.3965 50.4531C26.3965 49.0779 25.2815 47.9629 23.9062 47.9629Z" fill="#47BD9C"/>
<path d="M23.9062 58.5879H18.5938C17.2185 58.5879 16.1035 59.7029 16.1035 61.0781C16.1035 62.4534 17.2185 63.5684 18.5938 63.5684H23.9062C25.2815 63.5684 26.3965 62.4534 26.3965 61.0781C26.3965 59.7029 25.2815 58.5879 23.9062 58.5879Z" fill="#47BD9C"/>
<path d="M45.1562 37.3379H39.8438C38.4685 37.3379 37.3535 38.4529 37.3535 39.8281C37.3535 41.2034 38.4685 42.3184 39.8438 42.3184H45.1562C46.5315 42.3184 47.6465 41.2034 47.6465 39.8281C47.6465 38.4529 46.5315 37.3379 45.1562 37.3379Z" fill="#47BD9C"/>
<path d="M45.1562 47.9629H39.8438C38.4685 47.9629 37.3535 49.0779 37.3535 50.4531C37.3535 51.8284 38.4685 52.9434 39.8438 52.9434H45.1562C46.5315 52.9434 47.6465 51.8284 47.6465 50.4531C47.6465 49.0779 46.5315 47.9629 45.1562 47.9629Z" fill="#47BD9C"/>
<path d="M45.1562 58.5879H39.8438C38.4685 58.5879 37.3535 59.7029 37.3535 61.0781C37.3535 62.4534 38.4685 63.5684 39.8438 63.5684H45.1562C46.5315 63.5684 47.6465 62.4534 47.6465 61.0781C47.6465 59.7029 46.5315 58.5879 45.1562 58.5879Z" fill="#47BD9C"/>
<path d="M66.4062 37.3379H61.0938C59.7185 37.3379 58.6035 38.4529 58.6035 39.8281C58.6035 41.2034 59.7185 42.3184 61.0938 42.3184H66.4062C67.7815 42.3184 68.8965 41.2034 68.8965 39.8281C68.8965 38.4529 67.7815 37.3379 66.4062 37.3379Z" fill="#47BD9C"/>
<path d="M66.4062 47.9629H61.0938C59.7185 47.9629 58.6035 49.0779 58.6035 50.4531C58.6035 51.8284 59.7185 52.9434 61.0938 52.9434H66.4062C67.7815 52.9434 68.8965 51.8284 68.8965 50.4531C68.8965 49.0779 67.7815 47.9629 66.4062 47.9629Z" fill="#47BD9C"/>
<path d="M66.4062 58.5879H61.0938C59.7185 58.5879 58.6035 59.7029 58.6035 61.0781C58.6035 62.4534 59.7185 63.5684 61.0938 63.5684H66.4062C67.7815 63.5684 68.8965 62.4534 68.8965 61.0781C68.8965 59.7029 67.7815 58.5879 66.4062 58.5879Z" fill="#47BD9C"/>
<path d="M77.5293 6.79102H71.5527V2.64062C71.5527 1.26535 70.4378 0.150391 69.0625 0.150391C67.6872 0.150391 66.5723 1.26535 66.5723 2.64062V6.79102H44.9902V2.64062C44.9902 1.26535 43.8753 0.150391 42.5 0.150391C41.1247 0.150391 40.0098 1.26535 40.0098 2.64062V6.79102H18.4277V2.64062C18.4277 1.26535 17.3128 0.150391 15.9375 0.150391C14.5622 0.150391 13.4473 1.26535 13.4473 2.64062V6.79102H7.4707C3.35136 6.79102 0 10.1424 0 14.2617V69.3789C0 73.4983 3.35136 76.8496 7.4707 76.8496H77.5293C81.6486 76.8496 85 73.4983 85 69.3789C85 67.7715 85 15.6604 85 14.2617C85 10.1424 81.6486 6.79102 77.5293 6.79102ZM4.98047 14.2617C4.98047 12.8886 6.09759 11.7715 7.4707 11.7715H13.4473V15.9219C13.4473 17.2971 14.5622 18.4121 15.9375 18.4121C17.3128 18.4121 18.4277 17.2971 18.4277 15.9219V11.7715H40.0098V15.9219C40.0098 17.2971 41.1247 18.4121 42.5 18.4121C43.8753 18.4121 44.9902 17.2971 44.9902 15.9219V11.7715H66.5723V15.9219C66.5723 17.2971 67.6872 18.4121 69.0625 18.4121C70.4378 18.4121 71.5527 17.2971 71.5527 15.9219V11.7715H77.5293C78.9024 11.7715 80.0195 12.8886 80.0195 14.2617V24.0566H4.98047V14.2617ZM77.5293 71.8691H7.4707C6.09759 71.8691 4.98047 70.752 4.98047 69.3789V29.0371H80.0195V69.3789C80.0195 70.752 78.9024 71.8691 77.5293 71.8691Z" fill="#47BD9C"/>
</svg>
