<svg width="18" height="16" viewBox="0 0 18 16" fill="none" xmlns="http://www.w3.org/2000/svg">
<path d="M5.40035 3C5.78219 3 6.09173 2.70152 6.09173 2.33333V0.666667C6.09173 0.298477 5.78219 0 5.40035 0C5.01852 0 4.70898 0.298477 4.70898 0.666667V2.33333C4.70898 2.70152 5.01852 3 5.40035 3Z" fill="black"/>
<path d="M3.67171 4.66667C3.67171 4.29848 3.36218 4 2.98034 4H1.25192C0.870084 4 0.560547 4.29848 0.560547 4.66667C0.560547 5.03486 0.870084 5.33333 1.25192 5.33333H2.98034C3.36218 5.33333 3.67171 5.03486 3.67171 4.66667Z" fill="black"/>
<path d="M2.98034 10.6667H1.25192C0.870084 10.6667 0.560547 10.9652 0.560547 11.3334C0.560547 11.7016 0.870084 12.0001 1.25192 12.0001H2.98034C3.36218 12.0001 3.67171 11.7016 3.67171 11.3334C3.67171 10.9652 3.36218 10.6667 2.98034 10.6667Z" fill="black"/>
<path d="M12.3139 0C11.9321 0 11.6226 0.298477 11.6226 0.666667V2.33333C11.6226 2.70152 11.9321 3 12.3139 3C12.6958 3 13.0053 2.70152 13.0053 2.33333V0.666667C13.0053 0.298477 12.6958 0 12.3139 0Z" fill="black"/>
<path d="M5.40035 13C5.01852 13 4.70898 13.2985 4.70898 13.6667V15.3333C4.70898 15.7015 5.01852 16 5.40035 16C5.78219 16 6.09173 15.7015 6.09173 15.3333V13.6667C6.09173 13.2985 5.78219 13 5.40035 13Z" fill="black"/>
<path d="M12.3139 13C11.9321 13 11.6226 13.2985 11.6226 13.6667V15.3333C11.6226 15.7015 11.9321 16 12.3139 16C12.6958 16 13.0053 15.7015 13.0053 15.3333V13.6667C13.0053 13.2985 12.6958 13 12.3139 13Z" fill="black"/>
<path d="M14.7339 5.33333H16.4623C16.8441 5.33333 17.1536 5.03486 17.1536 4.66667C17.1536 4.29848 16.8441 4 16.4623 4H14.7339C14.352 4 14.0425 4.29848 14.0425 4.66667C14.0425 5.03486 14.352 5.33333 14.7339 5.33333Z" fill="black"/>
<path d="M16.4623 10.6667H14.7339C14.352 10.6667 14.0425 10.9652 14.0425 11.3334C14.0425 11.7016 14.352 12.0001 14.7339 12.0001H16.4623C16.8441 12.0001 17.1536 11.7016 17.1536 11.3334C17.1536 10.9652 16.8441 10.6667 16.4623 10.6667Z" fill="black"/>
<path fill-rule="evenodd" clip-rule="evenodd" d="M12.3141 4C12.6959 4 13.0054 4.29848 13.0054 4.66667V11.3333C13.0054 11.7015 12.6959 12 12.3141 12H5.40035C5.01852 12 4.70898 11.7015 4.70898 11.3333V4.66667C4.70898 4.29848 5.01852 4 5.40035 4H12.3141ZM11.277 10.6667C11.4679 10.6667 11.6227 10.5174 11.6227 10.3333V5.66667C11.6227 5.48257 11.4679 5.33333 11.277 5.33333H6.43741C6.2465 5.33333 6.09173 5.48257 6.09173 5.66667V10.3333C6.09173 10.5174 6.2465 10.6667 6.43741 10.6667H11.277Z" fill="black"/>
</svg>
