<svg width="57" height="58" viewBox="0 0 57 58" fill="none" xmlns="http://www.w3.org/2000/svg">
<circle cx="28.5" cy="28.5" r="28.5" fill="#52E5D4" fill-opacity="0.15"/>
<path d="M38.3106 42.1726L52.0381 49.7991C52.9801 50.3224 53.7883 51.0567 54.3992 51.9445C55.0101 52.8322 55.4073 53.8493 55.5596 54.9161L56.0002 58.0002H3.8623L4.31805 54.8101C4.46633 53.7721 4.84647 52.7809 5.43026 51.9099C6.01404 51.0389 6.78648 50.3105 7.69025 49.7789L20.6209 42.1726H38.3106Z" fill="#EAEAE8"/>
<path d="M17.8273 24.4828V14.2414C16.0389 12.453 15.0342 10.0274 15.0342 7.49825V4L18.9815 4.9869C21.3067 5.56813 23.6944 5.86204 26.0911 5.86207H31.9461C33.0402 5.8621 34.0896 6.29676 34.8632 7.07044L37.379 9.58621C38.2035 9.5862 39.0091 9.83325 39.6919 10.2955C40.3746 10.7577 40.9032 11.4139 41.2094 12.1795C41.7543 13.5416 42.0342 14.9952 42.0342 16.4622V24.4828H17.8273Z" fill="#683B0D"/>
<path d="M25.2756 14.2415C25.1312 14.2414 24.9889 14.2076 24.8599 14.1429L22.8012 13.1136C22.1446 12.7881 21.5922 12.2851 21.2069 11.6617C20.8215 11.0382 20.6186 10.3192 20.6211 9.58631C20.6211 9.33938 20.7192 9.10257 20.8938 8.92797C21.0684 8.75336 21.3052 8.65527 21.5522 8.65527C21.7991 8.65527 22.0359 8.75336 22.2105 8.92797C22.3851 9.10257 22.4832 9.33938 22.4832 9.58631C22.4819 9.9732 22.589 10.3527 22.7924 10.6818C22.9958 11.011 23.2873 11.2765 23.6339 11.4484L25.6927 12.4778C25.8803 12.5716 26.0307 12.726 26.1196 12.9161C26.2085 13.1061 26.2305 13.3206 26.1823 13.5247C26.134 13.7289 26.0182 13.9107 25.8536 14.0408C25.689 14.1709 25.4854 14.2416 25.2756 14.2415Z" fill="#533222"/>
<path d="M29.9309 14.2415C29.7865 14.2414 29.6442 14.2076 29.5152 14.1429L27.4565 13.1136C26.7998 12.7881 26.2475 12.2851 25.8622 11.6617C25.4768 11.0382 25.2739 10.3192 25.2764 9.58631C25.2764 9.33938 25.3745 9.10257 25.5491 8.92797C25.7237 8.75336 25.9605 8.65527 26.2074 8.65527C26.4544 8.65527 26.6912 8.75336 26.8658 8.92797C27.0404 9.10257 27.1385 9.33938 27.1385 9.58631C27.1372 9.9732 27.2443 10.3527 27.4477 10.6818C27.6511 11.011 27.9426 11.2765 28.2892 11.4484L30.348 12.4778C30.5356 12.5716 30.686 12.726 30.7749 12.9161C30.8637 13.1061 30.8858 13.3206 30.8375 13.5247C30.7893 13.7289 30.6735 13.9107 30.5089 14.0408C30.3443 14.1709 30.1406 14.2416 29.9309 14.2415Z" fill="#533222"/>
<path d="M34.5861 14.2415C34.4418 14.2414 34.2995 14.2076 34.1704 14.1429L32.1118 13.1136C31.4551 12.7881 30.9028 12.2851 30.5174 11.6617C30.1321 11.0382 29.9292 10.3192 29.9317 9.58631C29.9317 9.33938 30.0298 9.10257 30.2044 8.92797C30.379 8.75336 30.6158 8.65527 30.8627 8.65527C31.1096 8.65527 31.3464 8.75336 31.521 8.92797C31.6956 9.10257 31.7937 9.33938 31.7937 9.58631C31.7924 9.9732 31.8995 10.3527 32.1029 10.6818C32.3063 11.011 32.5979 11.2765 32.9445 11.4484L35.0032 12.4778C35.1909 12.5716 35.3413 12.726 35.4302 12.9161C35.519 13.1061 35.5411 13.3206 35.4928 13.5247C35.4445 13.7289 35.3287 13.9107 35.1642 14.0408C34.9996 14.1709 34.7959 14.2416 34.5861 14.2415Z" fill="#533222"/>
<path d="M34.5871 39.3794L33.656 37.5173H26.2078L25.2767 39.3794L24.3457 40.3104L29.9319 44.9656L35.5181 40.4966L34.5871 39.3794Z" fill="#FDC9A6"/>
<path d="M34.3954 38.9988C33.0639 39.8552 31.5142 40.3104 29.9311 40.3104C28.348 40.3104 26.7983 39.8552 25.4668 38.9988L26.207 37.5173H33.6553L34.3954 38.9988Z" fill="#E6AF89"/>
<path d="M29.9314 38.4482C28.2824 38.4482 26.6712 37.9541 25.3057 37.0296C23.9402 36.1051 22.883 34.7926 22.2705 33.2616C21.1809 30.5375 20.6211 27.6305 20.6211 24.6965V17.9655L23.4142 13.3103H36.4487L39.2418 17.9655V24.6965C39.2419 27.6306 38.682 30.5378 37.5923 33.262C36.9798 34.793 35.9226 36.1054 34.5571 37.0298C33.1916 37.9542 31.5804 38.4482 29.9314 38.4482Z" fill="#FDC9A6"/>
<path d="M35.5171 21.6895H32.724C32.4771 21.6895 32.2403 21.5914 32.0657 21.4168C31.8911 21.2422 31.793 21.0054 31.793 20.7584C31.793 20.5115 31.8911 20.2747 32.0657 20.1001C32.2403 19.9255 32.4771 19.8274 32.724 19.8274H35.5171C35.764 19.8274 36.0008 19.9255 36.1754 20.1001C36.3501 20.2747 36.4481 20.5115 36.4481 20.7584C36.4481 21.0054 36.3501 21.2422 36.1754 21.4168C36.0008 21.5914 35.764 21.6895 35.5171 21.6895Z" fill="#683B0D"/>
<path d="M33.8874 24.9484C34.5302 24.9484 35.0512 24.4274 35.0512 23.7846C35.0512 23.1419 34.5302 22.6208 33.8874 22.6208C33.2447 22.6208 32.7236 23.1419 32.7236 23.7846C32.7236 24.4274 33.2447 24.9484 33.8874 24.9484Z" fill="#683B0D"/>
<path d="M27.1382 21.6895H24.3451C24.0982 21.6895 23.8614 21.5914 23.6868 21.4168C23.5122 21.2422 23.4141 21.0054 23.4141 20.7584C23.4141 20.5115 23.5122 20.2747 23.6868 20.1001C23.8614 19.9255 24.0982 19.8274 24.3451 19.8274H27.1382C27.3851 19.8274 27.6219 19.9255 27.7965 20.1001C27.9711 20.2747 28.0692 20.5115 28.0692 20.7584C28.0692 21.0054 27.9711 21.2422 27.7965 21.4168C27.6219 21.5914 27.3851 21.6895 27.1382 21.6895Z" fill="#683B0D"/>
<path d="M25.9734 24.9484C26.6161 24.9484 27.1372 24.4274 27.1372 23.7846C27.1372 23.1419 26.6161 22.6208 25.9734 22.6208C25.3306 22.6208 24.8096 23.1419 24.8096 23.7846C24.8096 24.4274 25.3306 24.9484 25.9734 24.9484Z" fill="#683B0D"/>
<path d="M28.9995 32.8623C28.7722 32.8623 28.5527 32.7792 28.3825 32.6286C28.2122 32.478 28.103 32.2703 28.0753 32.0446C28.0476 31.819 28.1034 31.5911 28.2322 31.4037C28.361 31.2164 28.5539 31.0827 28.7745 31.0278L32.4986 30.0968C32.7374 30.0389 32.9895 30.0778 33.1998 30.205C33.4101 30.3322 33.5615 30.5374 33.6211 30.7758C33.6808 31.0142 33.6437 31.2666 33.518 31.4778C33.3923 31.689 33.1881 31.8419 32.9501 31.9032L29.226 32.8342C29.152 32.8528 29.0759 32.8623 28.9995 32.8623Z" fill="#E6AF89"/>
<path d="M30.8624 29.1378H29.0004C28.7534 29.1378 28.5166 29.0397 28.342 28.8651C28.1674 28.6905 28.0693 28.4537 28.0693 28.2068V25.4137C28.0693 25.1668 28.1674 24.93 28.342 24.7554C28.5166 24.5808 28.7534 24.4827 29.0004 24.4827C29.2473 24.4827 29.4841 24.5808 29.6587 24.7554C29.8333 24.93 29.9314 25.1668 29.9314 25.4137V27.2758H30.8624C31.1094 27.2758 31.3462 27.3739 31.5208 27.5485C31.6954 27.7231 31.7935 27.9599 31.7935 28.2068C31.7935 28.4537 31.6954 28.6905 31.5208 28.8651C31.3462 29.0397 31.1094 29.1378 30.8624 29.1378Z" fill="#E6AF89"/>
<path d="M20.6206 20.7585H19.3339C18.6875 20.7585 18.0675 21.0153 17.6104 21.4725C17.1533 21.9296 16.8965 22.5495 16.8965 23.196V24.8383C16.8965 25.2167 16.9846 25.5899 17.1538 25.9283C17.3562 26.3332 17.6674 26.6737 18.0525 26.9117C18.4375 27.1497 18.8813 27.2758 19.3339 27.2758H21.5517L20.6206 20.7585Z" fill="#FDC9A6"/>
<path d="M39.2416 20.7585H40.5283C41.1747 20.7585 41.7947 21.0153 42.2518 21.4725C42.7089 21.9296 42.9657 22.5495 42.9657 23.196V24.8383C42.9657 25.2167 42.8776 25.5899 42.7084 25.9283C42.506 26.3332 42.1948 26.6737 41.8097 26.9117C41.4247 27.1497 40.9809 27.2758 40.5283 27.2758H38.3105L39.2416 20.7585Z" fill="#FDC9A6"/>
<path d="M8.51758 57.9999V54.2758C8.51758 54.0288 8.61567 53.792 8.79027 53.6174C8.96487 53.4428 9.20169 53.3447 9.44861 53.3447C9.69554 53.3447 9.93235 53.4428 10.107 53.6174C10.2816 53.792 10.3796 54.0288 10.3796 54.2758V57.9999H8.51758Z" fill="#CBCBCB"/>
<path d="M49.4834 57.9999V54.2758C49.4834 54.0288 49.5815 53.792 49.7561 53.6174C49.9307 53.4428 50.1675 53.3447 50.4144 53.3447C50.6614 53.3447 50.8982 53.4428 51.0728 53.6174C51.2474 53.792 51.3455 54.0288 51.3455 54.2758V57.9999H49.4834Z" fill="#CBCBCB"/>
<path d="M31.7932 49.6206H28.0691L26.207 44.0344L29.9312 44.9655L33.6553 44.0344L31.7932 49.6206Z" fill="#0A9ACD"/>
<path d="M28.0697 49.6208L27.1387 58.0002H32.7249L31.7938 49.6208H28.0697Z" fill="#0A9ACD"/>
<path d="M32.0008 51.4829H27.8623L28.0695 49.6208H31.7936L32.0008 51.4829Z" fill="#0A9ACD"/>
<path d="M46.6899 55.2068H39.2416C38.9947 55.2068 38.7578 55.1087 38.5832 54.9341C38.4086 54.7595 38.3105 54.5227 38.3105 54.2758C38.3105 54.0288 38.4086 53.792 38.5832 53.6174C38.7578 53.4428 38.9947 53.3447 39.2416 53.3447H46.6899C46.9368 53.3447 47.1736 53.4428 47.3482 53.6174C47.5228 53.792 47.6209 54.0288 47.6209 54.2758C47.6209 54.5227 47.5228 54.7595 47.3482 54.9341C47.1736 55.1087 46.9368 55.2068 46.6899 55.2068Z" fill="#CBCBCB"/>
<path d="M24.3452 39.3792L29.9314 44.9654L24.3452 47.7585L20.6211 42.1723L24.3452 39.3792Z" fill="#CBCBCB"/>
<path d="M35.5178 47.7585L29.9316 44.9654L35.5178 39.3792L38.311 42.1723L35.5178 47.7585Z" fill="#CBCBCB"/>
<path d="M32.0008 51.4829H27.8623L28.0695 49.6208H31.7936L32.0008 51.4829Z" fill="#026CA2"/>
</svg>
