<svg width="39" height="39" viewBox="0 0 39 39" fill="none" xmlns="http://www.w3.org/2000/svg">
<path d="M19.5 0C8.74727 0 0 8.74727 0 19.5C0 30.2527 8.74727 39 19.5 39C30.2527 39 39 30.2527 39 19.5C39 8.74727 30.2527 0 19.5 0Z" fill="#47BD9C"/>
<path d="M29.3832 15.3677L18.8206 25.93C18.5037 26.2469 18.0878 26.4064 17.6718 26.4064C17.2558 26.4064 16.8398 26.2469 16.523 25.93L11.2418 20.6489C10.6062 20.0136 10.6062 18.9865 11.2418 18.3512C11.8771 17.7156 12.9039 17.7156 13.5395 18.3512L17.6718 22.4835L27.0856 13.0701C27.7208 12.4345 28.7477 12.4345 29.3832 13.0701C30.0185 13.7053 30.0185 14.7321 29.3832 15.3677Z" fill="#FAFAFA"/>
</svg>
