<svg width="85" height="85" viewBox="0 0 85 85" fill="none" xmlns="http://www.w3.org/2000/svg">
<path d="M77.946 52.627C79.1313 51.3038 79.8535 49.5573 79.8535 47.6465C79.8535 43.5276 76.5017 40.1758 72.3828 40.1758H57.883C59.319 35.8179 59.9316 30.0355 59.9316 27.5569V25.0684C59.9316 19.5766 55.4625 15.1074 49.9707 15.1074H47.4805C46.3383 15.1074 45.3422 15.8844 45.0649 16.9934L43.7086 22.4204C41.8077 30.0206 35.773 38.4061 29.5275 39.9301C28.4335 37.1609 25.7324 35.1953 22.5781 35.1953H7.63672C6.26211 35.1953 5.14648 36.3109 5.14648 37.6855V82.5098C5.14648 83.8844 6.26211 85 7.63672 85H22.5781C25.5481 85 28.1181 83.2585 29.3217 80.7417L37.8781 83.5938C40.6755 84.5269 43.5907 85 46.5408 85H67.4023C71.5212 85 74.873 81.6481 74.873 77.5293C74.873 76.5581 74.6871 75.6284 74.3484 74.7768C77.516 73.9118 79.8535 71.0082 79.8535 67.5684C79.8535 65.6575 79.1313 63.911 77.946 62.5879C79.1313 61.2647 79.8535 59.5183 79.8535 57.6074C79.8535 55.6966 79.1313 53.9501 77.946 52.627ZM25.0684 77.5293C25.0684 78.9022 23.9511 80.0195 22.5781 80.0195H10.127V40.1758H22.5781C23.9511 40.1758 25.0684 41.2931 25.0684 42.666V77.5293ZM67.4023 55.1172H72.3828C73.7558 55.1172 74.873 56.2345 74.873 57.6074C74.873 58.9804 73.7558 60.0977 72.3828 60.0977H67.4023C66.0277 60.0977 64.9121 61.2133 64.9121 62.5879C64.9121 63.9625 66.0277 65.0781 67.4023 65.0781H72.3828C73.7558 65.0781 74.873 66.1954 74.873 67.5684C74.873 68.9413 73.7558 70.0586 72.3828 70.0586H67.4023C66.0277 70.0586 64.9121 71.1742 64.9121 72.5488C64.9121 73.9234 66.0277 75.0391 67.4023 75.0391C68.7753 75.0391 69.8926 76.1563 69.8926 77.5293C69.8926 78.9022 68.7753 80.0195 67.4023 80.0195H46.5408C44.127 80.0195 41.7413 79.6327 39.452 78.869L30.0488 75.7347V44.9205C33.9552 44.1784 37.7785 41.7048 41.23 37.6557C44.6001 33.7012 47.3327 28.4584 48.5396 23.629L49.4245 20.0879H49.9707C52.7166 20.0879 54.9512 22.3225 54.9512 25.0684V27.5569C54.9512 30.9005 53.9053 37.3137 52.5672 40.1758H47.4805C46.1059 40.1758 44.9902 41.2914 44.9902 42.666C44.9902 44.0406 46.1059 45.1562 47.4805 45.1562H72.3828C73.7558 45.1562 74.873 46.2735 74.873 47.6465C74.873 49.0194 73.7558 50.1367 72.3828 50.1367H67.4023C66.0277 50.1367 64.9121 51.2523 64.9121 52.627C64.9121 54.0016 66.0277 55.1172 67.4023 55.1172Z" fill="#47BD9C"/>
<path d="M17.5977 75.0391C18.973 75.0391 20.0879 73.9241 20.0879 72.5488C20.0879 71.1735 18.973 70.0586 17.5977 70.0586C16.2223 70.0586 15.1074 71.1735 15.1074 72.5488C15.1074 73.9241 16.2223 75.0391 17.5977 75.0391Z" fill="#47BD9C"/>
<path d="M52.4609 0C51.0857 0 49.9707 1.11496 49.9707 2.49023V7.63672C49.9707 9.01199 51.0857 10.127 52.4609 10.127C53.8362 10.127 54.9512 9.01199 54.9512 7.63672V2.49023C54.9512 1.11496 53.8362 0 52.4609 0Z" fill="#47BD9C"/>
<path d="M41.8958 10.9816L38.3741 7.45992C37.4018 6.4874 35.825 6.4874 34.8524 7.45992C33.8799 8.43244 33.8799 10.0091 34.8524 10.9816L38.3741 14.5033C39.3465 15.4756 40.9235 15.4758 41.8958 14.5033C42.8683 13.5308 42.8683 11.9541 41.8958 10.9816Z" fill="#47BD9C"/>
<path d="M70.0696 7.45992C69.0973 6.4874 67.5205 6.4874 66.548 7.45992L63.0263 10.9814C62.0537 11.954 62.0537 13.5306 63.0263 14.5031C63.9986 15.4757 65.5754 15.4758 66.548 14.5033L70.0696 10.9816C71.0422 10.0091 71.0422 8.43244 70.0696 7.45992Z" fill="#47BD9C"/>
</svg>
