<svg width="70" height="70" viewBox="0 0 70 70" fill="none" xmlns="http://www.w3.org/2000/svg">
<g clip-path="url(#clip0)">
<path d="M42.917 28.4976L32.3995 38.4316L27.3519 33.2387C26.7923 32.6626 25.8709 32.6495 25.2953 33.209C24.7192 33.7692 24.7061 34.6901 25.2657 35.2662L31.3197 41.4808C31.8821 42.0467 32.791 42.066 33.3768 41.5241L44.9451 30.6129C45.226 30.3479 45.3902 29.982 45.401 29.5963C45.4118 29.2105 45.2688 28.8361 45.0032 28.5557C44.4402 27.9705 43.512 27.9449 42.917 28.4976Z" fill="#47BD9C"/>
<path d="M35.1124 13.2095C23.0922 13.2095 13.3184 22.9834 13.3184 35.0036C13.3184 47.0243 23.0922 56.7982 35.1124 56.7982C47.1332 56.7982 56.9071 47.0243 56.9071 35.0036C56.9071 22.9834 47.1332 13.2095 35.1124 13.2095ZM35.1124 53.8806C24.6969 53.8806 16.2359 45.4048 16.2359 35.0036C16.2359 24.6023 24.6969 16.1271 35.1124 16.1271C45.5382 16.1271 53.9895 24.5783 53.9895 35.0036C53.9895 45.4288 45.5382 53.8806 35.1124 53.8806Z" fill="#47BD9C"/>
<path d="M65.1058 26.9802L65.5873 18.3295C65.621 17.7488 65.3053 17.2035 64.785 16.9436L57.0825 13.0488L53.1876 5.34626C52.9227 4.83055 52.3807 4.51657 51.8018 4.54392L43.1362 5.01119L35.9152 0.240493C35.4286 -0.080327 34.7978 -0.080327 34.3106 0.240493L27.0895 5.01119L18.4394 4.52968C17.8581 4.49549 17.3134 4.81118 17.0535 5.33201L13.1581 13.0345L5.45616 16.9294C4.93988 17.1938 4.62647 17.7357 4.65382 18.3152L5.13477 26.966L0.364638 34.187C0.0438185 34.6736 0.0438185 35.3044 0.364638 35.7916L5.12052 43.0269L4.63901 51.6776C4.60538 52.2583 4.92051 52.8036 5.44134 53.0635L13.1439 56.9583L17.0387 64.6609C17.3031 65.1771 17.845 65.4905 18.4246 65.4632L27.0753 64.9817L34.2963 69.7518C34.7801 70.0829 35.4172 70.0829 35.901 69.7518L43.122 64.9817L51.7727 65.4632C52.3534 65.4968 52.8982 65.1811 53.1586 64.6609L57.0534 56.9583L64.756 53.0635C65.2717 52.7985 65.5856 52.2572 65.5583 51.6776L65.0768 43.0269L69.8469 35.8059C70.1677 35.3192 70.1677 34.6879 69.8469 34.2012L65.1058 26.9802ZM62.3923 41.8308C62.2145 42.0918 62.1318 42.4058 62.1592 42.7209L62.6111 50.9044L55.3319 54.5804C55.0544 54.7194 54.8293 54.9451 54.6903 55.2226L51.0137 62.5017L42.8302 62.0499C42.5168 62.0385 42.2074 62.1194 41.9401 62.2829L35.1129 66.7909L28.2862 62.2829C28.0492 62.1228 27.7699 62.0362 27.4839 62.035H27.4109L19.2269 62.4875L15.5509 55.2078C15.4118 54.9303 15.1867 54.7052 14.9087 54.5662L7.61471 50.9044L8.06716 42.7209C8.07856 42.4075 7.99707 42.0981 7.83353 41.8308L3.3261 35.0036L7.83353 28.1763C8.01189 27.9159 8.09451 27.6013 8.06716 27.2868L7.61471 19.1028L14.8944 15.4267C15.1719 15.2877 15.397 15.0626 15.536 14.7851L19.2121 7.50538L27.3961 7.95783C27.709 7.96866 28.0184 7.88774 28.2862 7.7242L35.1129 3.21676L41.9401 7.7242C42.2011 7.90256 42.5157 7.98518 42.8302 7.95783L51.0137 7.50538L54.6903 14.7851C54.8293 15.0626 55.0544 15.2877 55.3319 15.4267L62.6111 19.1028L62.1592 27.2868C62.1478 27.5996 62.2293 27.9091 62.3923 28.1763L66.9003 35.0036L62.3923 41.8308Z" fill="#47BD9C"/>
</g>
<defs>
<clipPath id="clip0">
<rect width="70" height="70" fill="white"/>
</clipPath>
</defs>
</svg>
