<svg width="65" height="65" viewBox="0 0 65 65" fill="none" xmlns="http://www.w3.org/2000/svg">
<g clip-path="url(#clip0)">
<path d="M47.0905 38.1137C46.8529 37.8757 46.5296 37.7418 46.1929 37.7418C46.18 37.7443 45.692 37.717 45.2953 38.1137L44.3982 39.0108L41.4812 36.0944C47.9182 27.0713 46.9392 14.6244 39.0121 6.69777C30.0827 -2.2316 15.6289 -2.23309 6.69856 6.69777C-2.23081 15.6266 -2.2323 30.0809 6.69856 39.0113C14.6059 46.9191 27.0478 47.9337 36.0947 41.4804L39.0116 44.3974L38.1145 45.2945C37.6191 45.7899 37.6186 46.5943 38.1145 47.0902L54.1642 63.1383C56.6442 65.6199 60.6586 65.6214 63.1391 63.1388C65.6207 60.6593 65.6217 56.6444 63.1391 54.1639L47.0905 38.1137ZM40.8068 42.6022L38.0887 39.8841C38.4046 39.6009 38.7136 39.3103 39.0121 39.0113C39.3111 38.7128 39.6017 38.4038 39.8849 38.0884L42.603 40.8065L40.8068 42.6022ZM8.49376 37.2161C0.556211 29.2791 0.555219 16.431 8.49376 8.49296C16.4308 0.555417 29.2789 0.554425 37.2169 8.49296C45.1366 16.4122 45.1768 29.2572 37.2169 37.2161C29.1673 45.2667 16.3227 45.0455 8.49376 37.2161ZM46.1929 40.8065L49.7828 44.3969L44.3977 49.782L40.8073 46.1921L46.1929 40.8065ZM61.344 61.3436C59.8562 62.8329 57.4486 62.8334 55.9599 61.3436L46.1929 51.5772L51.578 46.1921L61.3444 55.9595C62.8332 57.4468 62.8347 59.8544 61.344 61.3436Z" fill="#47BD9C"/>
<path d="M35.421 10.2887C28.4787 3.34643 17.232 3.34246 10.2867 10.2877C3.35885 17.2171 3.35885 28.4921 10.2867 35.4219C17.2329 42.3677 28.4733 42.3681 35.42 35.4219C42.3493 28.4921 42.3498 17.2175 35.421 10.2887ZM33.6248 33.6262C27.6714 39.5796 18.0368 39.5811 12.0819 33.6267C6.14389 27.6867 6.14389 18.0224 12.0819 12.0824C18.0324 6.13246 27.6733 6.13097 33.6258 12.0839C39.5648 18.0229 39.5643 27.6867 33.6248 33.6262Z" fill="#47BD9C"/>
<path d="M22.8545 10.1617C19.4615 10.1617 16.2738 11.4818 13.8785 13.8785C12.49 15.2671 11.4679 16.9076 10.8411 18.7553C10.6159 19.4188 10.971 20.1399 11.635 20.365C12.3001 20.5907 13.0201 20.2336 13.2453 19.5711C13.7456 18.0958 14.5629 16.7846 15.6737 15.6732C17.5899 13.7565 20.1399 12.7007 22.8545 12.7007C23.5557 12.7007 24.1241 12.1324 24.1241 11.4312C24.1241 10.73 23.5557 10.1617 22.8545 10.1617Z" fill="#47BD9C"/>
</g>
<defs>
<clipPath id="clip0">
<rect width="65" height="65" fill="white"/>
</clipPath>
</defs>
</svg>
