<svg width="217" height="59" viewBox="0 0 217 59" fill="none" xmlns="http://www.w3.org/2000/svg">
<path d="M47.1555 13.32C44.9955 13.32 43.2195 12.696 41.8275 11.448C40.4835 10.152 39.8115 8.568 39.8115 6.696C39.8115 4.776 40.4835 3.192 41.8275 1.944C43.2195 0.648 44.9955 0 47.1555 0C49.2675 0 50.9955 0.648 52.3395 1.944C53.7315 3.192 54.4275 4.776 54.4275 6.696C54.4275 8.568 53.7315 10.152 52.3395 11.448C50.9955 12.696 49.2675 13.32 47.1555 13.32ZM53.2755 17.496V57.672H40.9635V17.496H53.2755Z" fill="#65DBBA"/>
<path d="M59.7499 37.512C59.7499 33.384 60.5179 29.76 62.0539 26.64C63.6379 23.52 65.7739 21.12 68.4619 19.44C71.1499 17.76 74.1499 16.92 77.4619 16.92C80.1019 16.92 82.5019 17.472 84.6619 18.576C86.8699 19.68 88.5979 21.168 89.8459 23.04V4.392H102.158V57.672H89.8459V51.912C88.6939 53.832 87.0379 55.368 84.8779 56.52C82.7659 57.672 80.2939 58.248 77.4619 58.248C74.1499 58.248 71.1499 57.408 68.4619 55.728C65.7739 54 63.6379 51.576 62.0539 48.456C60.5179 45.288 59.7499 41.64 59.7499 37.512ZM89.8459 37.584C89.8459 34.512 88.9819 32.088 87.2539 30.312C85.5739 28.536 83.5099 27.648 81.0619 27.648C78.6139 27.648 76.5259 28.536 74.7979 30.312C73.1179 32.04 72.2779 34.44 72.2779 37.512C72.2779 40.584 73.1179 43.032 74.7979 44.856C76.5259 46.632 78.6139 47.52 81.0619 47.52C83.5099 47.52 85.5739 46.632 87.2539 44.856C88.9819 43.08 89.8459 40.656 89.8459 37.584Z" fill="#65DBBA"/>
<path d="M148.937 36.936C148.937 38.088 148.865 39.288 148.721 40.536H120.857C121.049 43.032 121.841 44.952 123.233 46.296C124.673 47.592 126.425 48.24 128.489 48.24C131.561 48.24 133.697 46.944 134.897 44.352H148.001C147.329 46.992 146.105 49.368 144.329 51.48C142.601 53.592 140.417 55.248 137.777 56.448C135.137 57.648 132.185 58.248 128.921 58.248C124.985 58.248 121.481 57.408 118.409 55.728C115.337 54.048 112.937 51.648 111.209 48.528C109.481 45.408 108.617 41.76 108.617 37.584C108.617 33.408 109.457 29.76 111.137 26.64C112.865 23.52 115.265 21.12 118.337 19.44C121.409 17.76 124.937 16.92 128.921 16.92C132.809 16.92 136.265 17.736 139.289 19.368C142.313 21 144.665 23.328 146.345 26.352C148.073 29.376 148.937 32.904 148.937 36.936ZM136.337 33.696C136.337 31.584 135.617 29.904 134.177 28.656C132.737 27.408 130.937 26.784 128.777 26.784C126.713 26.784 124.961 27.384 123.521 28.584C122.129 29.784 121.265 31.488 120.929 33.696H136.337Z" fill="#65DBBA"/>
<path d="M152.984 37.512C152.984 33.384 153.752 29.76 155.288 26.64C156.872 23.52 159.008 21.12 161.696 19.44C164.384 17.76 167.384 16.92 170.696 16.92C173.528 16.92 176 17.496 178.112 18.648C180.272 19.8 181.928 21.312 183.08 23.184V17.496H195.392V57.672H183.08V51.984C181.88 53.856 180.2 55.368 178.04 56.52C175.928 57.672 173.456 58.248 170.624 58.248C167.36 58.248 164.384 57.408 161.696 55.728C159.008 54 156.872 51.576 155.288 48.456C153.752 45.288 152.984 41.64 152.984 37.512ZM183.08 37.584C183.08 34.512 182.216 32.088 180.488 30.312C178.808 28.536 176.744 27.648 174.296 27.648C171.848 27.648 169.76 28.536 168.032 30.312C166.352 32.04 165.512 34.44 165.512 37.512C165.512 40.584 166.352 43.032 168.032 44.856C169.76 46.632 171.848 47.52 174.296 47.52C176.744 47.52 178.808 46.632 180.488 44.856C182.216 43.08 183.08 40.656 183.08 37.584Z" fill="#65DBBA"/>
<path d="M216.611 4.392V57.672H204.299V4.392H216.611Z" fill="#65DBBA"/>
<path fill-rule="evenodd" clip-rule="evenodd" d="M13 58.172V35.3644L25.5 22.8644L38.5 35.8644V17.4796L30.0962 9.07581H20.9038L1.90381 28.0758L0 32.672V58.172H13Z" fill="#65DBBA"/>
</svg>
