<svg width="128" height="29" viewBox="0 0 128 29" fill="none" xmlns="http://www.w3.org/2000/svg">
<path d="M5.49532 14.1806C5.49532 14.5385 6.08309 14.7832 6.41731 14.6563L7.95012 14.0741C8.3581 13.9223 8.41111 13.5938 8.41111 13.1678V10.9022C9.68902 10.5651 10.7991 9.78365 11.535 8.70289C12.271 7.62212 12.5829 6.31553 12.4128 5.02579C12.2427 3.73606 11.6021 2.55084 10.6101 1.69026C9.61808 0.829692 8.34201 0.352263 7.01891 0.346649C6.30241 0.346642 5.59297 0.485764 4.93133 0.756027C4.2697 1.02629 3.66889 1.42237 3.16343 1.92151C2.65797 2.42066 2.25781 3.01304 1.98594 3.66463C1.71406 4.31622 1.57582 5.01419 1.57916 5.71845C1.57916 5.81134 1.57916 5.90649 1.57916 5.99938C1.59452 6.2628 1.62919 6.52478 1.68288 6.78329C1.68288 6.81274 1.68288 6.8422 1.69902 6.87391C2.14388 8.83595 3.53609 10.4015 5.49532 10.9113V14.1806ZM7.04196 8.53009C6.4949 8.53009 5.96013 8.37064 5.50526 8.0719C5.0504 7.77316 4.69588 7.34854 4.48653 6.85176C4.27718 6.35497 4.22241 5.80832 4.32913 5.28093C4.43586 4.75355 4.69929 4.26911 5.08612 3.88889C5.47295 3.50867 5.9658 3.24973 6.50234 3.14483C7.03889 3.03992 7.59503 3.09376 8.10045 3.29954C8.60586 3.50532 9.03785 3.85378 9.34178 4.30088C9.64571 4.74798 9.80793 5.27362 9.80793 5.81134C9.80793 6.53239 9.51652 7.22392 8.9978 7.73378C8.47907 8.24365 7.77554 8.53009 7.04196 8.53009Z" fill="#FF5500"/>
<path d="M8.4041 15.7234V17.733C8.4041 18.3538 8.23815 18.5713 7.64807 18.7956L3.63511 20.2705C3.08422 20.479 2.60709 20.5175 2.22907 20.3181L0.846084 19.7291C0.325159 19.5252 0.299805 19.1785 0.299805 18.6257V18.2179C0.299805 17.6424 0.703176 17.4748 1.24715 17.2709L7.44062 15.0052C8.08371 14.7719 8.4041 15.046 8.4041 15.7234Z" fill="#FF5500"/>
<path d="M8.40397 20.1437V22.6993C8.41773 22.8451 8.37917 22.9911 8.29498 23.1119C8.21079 23.2327 8.08627 23.3208 7.94297 23.3608L3.20163 25.0669C3.05891 25.1308 2.9034 25.1623 2.74661 25.1592C2.58981 25.156 2.43574 25.1183 2.29578 25.0487L0.682295 24.4212C0.568783 24.3761 0.471526 24.2988 0.402957 24.1991C0.334388 24.0994 0.297623 23.9819 0.297363 23.8616V22.6562C0.298963 22.5356 0.337388 22.4181 0.407663 22.3192C0.477937 22.2202 0.576823 22.1443 0.691514 22.1012L7.57879 19.5795C7.67136 19.546 7.77081 19.5349 7.86867 19.5472C7.96654 19.5595 8.05994 19.5949 8.14094 19.6502C8.22194 19.7056 8.28814 19.7794 8.33394 19.8653C8.37973 19.9512 8.40375 20.0467 8.40397 20.1437Z" fill="#FF5500"/>
<path d="M8.46148 24.7066L8.43152 27.0584C8.43152 27.4888 8.20102 27.5953 7.79995 27.4254L4.78735 26.1566C4.28256 25.9437 4.25259 25.3523 5.01784 25.187L7.79765 24.1833C8.20332 24.0338 8.46148 24.2852 8.46148 24.7066Z" fill="#FF5500"/>
<path d="M27.4594 22.6834H18.9978L27.411 12.9934L27.4594 12.9412V11.4618H16.0567V13.4601H24.1887L15.7524 23.2023V24.6795H27.4594V22.6834Z" fill="black"/>
<path d="M30.585 22.9462C31.2184 23.5739 31.9678 24.0768 32.7932 24.428C33.6708 24.7993 34.6175 24.9868 35.573 24.9785C36.5365 24.9852 37.4912 24.7978 38.3782 24.428C39.2166 24.0806 39.9766 23.5732 40.614 22.9349C41.5704 21.9523 42.2185 20.7198 42.481 19.3846C42.7434 18.0495 42.609 16.6683 42.0938 15.4062C41.7594 14.591 41.2643 13.8487 40.637 13.2222C39.6253 12.2427 38.3412 11.5793 36.9467 11.3157C35.5521 11.052 34.1094 11.1998 32.8001 11.7405C31.9683 12.0879 31.215 12.5942 30.5839 13.2301C29.9528 13.866 29.4564 14.6188 29.1237 15.4448C28.7778 16.2918 28.6017 17.1965 28.6051 18.1091C28.6009 19.0189 28.777 19.9208 29.1237 20.7645C29.4597 21.5793 29.9564 22.3208 30.585 22.9462ZM35.573 13.2607C36.2082 13.2546 36.8373 13.3837 37.417 13.6391C38.5492 14.1434 39.4331 15.0667 39.8764 16.2083C40.1138 16.8099 40.2334 17.4502 40.2291 18.0955C40.2299 18.7369 40.1104 19.3728 39.8764 19.9715C39.6635 20.5297 39.3426 21.0421 38.9314 21.4804C38.5236 21.9107 38.0301 22.2539 37.4815 22.4886C36.8922 22.7382 36.2561 22.8633 35.6145 22.8556C34.9793 22.8617 34.3502 22.7326 33.7705 22.4773C33.2191 22.2332 32.7212 21.8862 32.3045 21.4555C31.8895 21.0145 31.5647 20.4992 31.348 19.9375C31.1106 19.3358 30.9909 18.6955 30.9953 18.0502C30.9939 17.4074 31.1134 16.7698 31.348 16.1698C31.5585 15.6107 31.8709 15.094 32.27 14.645C32.6691 14.2089 33.1588 13.862 33.706 13.6277C34.2952 13.3778 34.9313 13.2527 35.573 13.2607Z" fill="black"/>
<path d="M47.3119 17.1394C47.3051 16.6038 47.3989 16.0716 47.5885 15.5694C47.7603 15.1168 48.0255 14.7041 48.3675 14.3572C48.7053 14.0238 49.1105 13.7637 49.5569 13.5937C50.0277 13.41 50.5302 13.3176 51.0367 13.3219C52.1339 13.3219 52.9867 13.6504 53.5722 14.2983C54.1576 14.9463 54.4458 15.8594 54.4458 16.9922V24.6817H56.783V16.5255C56.7904 15.7943 56.6711 15.0672 56.4304 14.3754C56.2084 13.7502 55.8595 13.1759 55.4046 12.6875C54.9472 12.2077 54.3887 11.8319 53.7681 11.5864C53.0731 11.3188 52.3316 11.1872 51.5853 11.199C50.4213 11.199 49.4578 11.4572 48.7202 11.967C48.1846 12.3328 47.7096 12.7776 47.3119 13.2856V11.4731H44.9746V24.6908H47.3119V17.1394Z" fill="black"/>
<path d="M60.3905 23.9091C60.8836 24.2656 61.438 24.5319 62.0271 24.6953C62.6262 24.8663 63.2471 24.9525 63.871 24.9513C64.9156 24.9882 65.9508 24.7471 66.8675 24.2535C67.4338 23.9311 67.9513 23.5322 68.4049 23.0686V24.6772H70.6638V16.6433C70.6638 14.8897 70.159 13.5439 69.161 12.6422C68.1629 11.7405 66.7407 11.2828 64.9129 11.2828C64.0371 11.2713 63.1634 11.3695 62.3129 11.5751C61.5467 11.7739 60.8 12.0392 60.0817 12.368L59.9203 12.4428L60.6349 14.3686L60.8285 14.2802C61.4162 14.0029 62.0269 13.7756 62.654 13.6005C63.3203 13.4333 64.0064 13.3548 64.6939 13.3672C65.8695 13.3672 66.7891 13.6459 67.4322 14.2009C68.0753 14.756 68.3888 15.5784 68.3888 16.675V16.8698C67.8702 16.7339 67.3354 16.6206 66.7961 16.5345C66.0583 16.4266 65.313 16.3759 64.5671 16.3827C63.7896 16.3765 63.0146 16.471 62.2622 16.6637C61.6079 16.8306 60.9885 17.1089 60.432 17.4861C59.9218 17.841 59.5066 18.3121 59.2219 18.8591C58.931 19.4464 58.7857 20.0932 58.7978 20.7463C58.7836 21.3892 58.935 22.0252 59.238 22.5951C59.5219 23.1093 59.9149 23.5574 60.3905 23.9091ZM64.2468 23.055C63.8443 23.0563 63.4437 23.0006 63.0574 22.8896C62.7031 22.7887 62.3699 22.6269 62.0732 22.4116C61.8005 22.2113 61.5743 21.9565 61.4093 21.6639C61.2472 21.3556 61.1679 21.0117 61.1788 20.6648C61.1639 20.3126 61.2388 19.9623 61.3966 19.6458C61.5544 19.3293 61.7901 19.0565 62.0824 18.8523C62.7001 18.3991 63.6083 18.1726 64.7861 18.1726C65.4953 18.1665 66.2036 18.2241 66.9021 18.3448C67.4622 18.4467 67.9693 18.5577 68.4165 18.6755V19.7698C68.4223 20.2262 68.3131 20.6769 68.0984 21.0816C67.8829 21.4823 67.5836 21.8336 67.2202 22.1125C66.8213 22.4134 66.372 22.6435 65.8925 22.7922C65.3645 22.9671 64.8109 23.0559 64.2537 23.055H64.2468Z" fill="black"/>
<path d="M75.9765 22.6109C76.145 22.8185 76.3243 23.0174 76.5136 23.2068C76.8529 23.5529 77.2337 23.8572 77.6477 24.1131C78.0887 24.3798 78.5638 24.5878 79.0606 24.7316C79.6205 24.8881 80.2004 24.9644 80.7824 24.9581C81.6016 24.9562 82.4123 24.7952 83.1681 24.4846C83.9383 24.1687 84.6378 23.7068 85.2264 23.1252C85.8447 22.5034 86.334 21.7693 86.667 20.9638C87.0436 20.0402 87.2293 19.052 87.2133 18.057C87.2292 17.0635 87.0435 16.0769 86.667 15.1548C86.3316 14.3462 85.8356 13.6114 85.208 12.9934C84.029 11.8433 82.4388 11.1927 80.7778 11.1809C80.1957 11.1776 79.6165 11.2624 79.0606 11.4323C78.5735 11.5879 78.1087 11.8041 77.6776 12.0758C77.2562 12.3405 76.8692 12.6547 76.5251 13.0115C76.3315 13.2199 76.1448 13.4329 75.9673 13.6527V11.4618H73.6416V28.6534H75.9765V22.6109ZM77.295 21.5234C76.8556 21.0952 76.5097 20.5833 76.2785 20.0191C76.021 19.3947 75.8925 18.7262 75.9005 18.0525C75.8918 17.3846 76.0204 16.7219 76.2785 16.1041C76.5109 15.5432 76.8567 15.0345 77.295 14.6088C77.7164 14.2033 78.2103 13.8777 78.7517 13.6481C79.2815 13.4229 79.8525 13.3064 80.4298 13.306C81.0106 13.3036 81.5859 13.4161 82.1216 13.6368C82.651 13.8556 83.1277 14.1813 83.5207 14.5929C83.936 15.0294 84.2609 15.5411 84.4773 16.0995C84.7188 16.7338 84.8361 17.4072 84.823 18.0842C84.834 18.7721 84.7144 19.4559 84.4704 20.1006C84.2607 20.6552 83.9402 21.1629 83.5276 21.5937C83.1325 21.9894 82.6564 22.2983 82.1308 22.4999C81.0436 22.9334 79.8259 22.9252 78.7448 22.4773C78.2063 22.249 77.7149 21.9257 77.295 21.5234Z" fill="black"/>
<path d="M91.9893 19.3734C91.9749 18.5311 92.1083 17.6926 92.3834 16.8948C92.6117 16.2346 92.9758 15.6277 93.453 15.1117C93.8946 14.6465 94.4353 14.2829 95.0365 14.0469C95.6527 13.8072 96.3099 13.6857 96.9727 13.6889H97.3184V11.242H97.1294C96.5184 11.2192 95.9078 11.2957 95.3223 11.4686C94.769 11.6374 94.2474 11.8938 93.778 12.2276C93.3048 12.5646 92.8826 12.9658 92.5241 13.4193C92.329 13.6676 92.1504 13.9279 91.9893 14.1987V11.4618H89.6636V24.6795H91.9985L91.9893 19.3734Z" fill="black"/>
<path d="M109.791 13.2199C109.133 12.5674 108.349 12.0494 107.487 11.696C106.624 11.3425 105.698 11.1605 104.763 11.1605C103.829 11.1605 102.903 11.3425 102.04 11.696C101.177 12.0494 100.394 12.5674 99.7363 13.2199C99.1102 13.8573 98.6162 14.6084 98.2819 15.4312C97.936 16.2782 97.7599 17.1829 97.7633 18.0956C97.7591 19.0054 97.9352 19.9073 98.2819 20.7509C98.6163 21.5661 99.1114 22.3084 99.7386 22.9349C100.372 23.562 101.12 24.0649 101.944 24.4166C102.823 24.7878 103.77 24.9752 104.727 24.9672C105.69 24.9739 106.645 24.7865 107.532 24.4166C108.37 24.0693 109.13 23.5618 109.768 22.9236C110.722 21.942 111.369 20.7115 111.631 19.3786C111.893 18.0457 111.76 16.6668 111.247 15.4063C110.913 14.5902 110.418 13.8471 109.791 13.2199ZM104.777 22.8556C104.142 22.8617 103.513 22.7326 102.933 22.4773C102.382 22.2332 101.884 21.8862 101.467 21.4555C101.047 21.0157 100.718 20.5003 100.497 19.9375C100.034 18.7243 100.034 17.3875 100.497 16.1743C100.708 15.6155 101.021 15.099 101.419 14.6495C101.819 14.2139 102.31 13.8671 102.857 13.6323C103.446 13.3826 104.081 13.2576 104.722 13.2652C105.357 13.2592 105.986 13.3883 106.566 13.6436C107.697 14.1469 108.581 15.0685 109.025 16.2083C109.263 16.8099 109.382 17.4503 109.378 18.0956C109.383 18.7362 109.267 19.3721 109.037 19.9715C108.823 20.5293 108.502 21.0416 108.092 21.4804C107.684 21.9113 107.189 22.2545 106.64 22.4886C106.052 22.7381 105.417 22.8632 104.777 22.8556Z" fill="black"/>
<path d="M125.702 12.9933C124.522 11.8436 122.931 11.1931 121.27 11.1808C120.689 11.1755 120.112 11.258 119.557 11.4255C119.064 11.5794 118.594 11.7957 118.158 12.069C117.743 12.3342 117.362 12.6484 117.024 13.0047C116.828 13.2131 116.641 13.4261 116.464 13.6458V11.4618H114.129V28.6534H116.464V22.6109C116.632 22.8171 116.812 23.0165 117.001 23.2068C117.341 23.5523 117.721 23.8566 118.135 24.113C118.576 24.3798 119.051 24.5878 119.548 24.7316C120.108 24.8879 120.688 24.9642 121.27 24.9581C122.09 24.956 122.901 24.7951 123.658 24.4846C124.427 24.1682 125.126 23.7063 125.714 23.1252C126.333 22.5045 126.824 21.7711 127.159 20.9661C127.533 20.0411 127.715 19.0521 127.696 18.057C127.712 17.0635 127.526 16.0769 127.15 15.1548C126.817 14.3476 126.325 13.613 125.702 12.9933ZM125.317 18.0842C125.328 18.772 125.209 19.4559 124.965 20.1006C124.755 20.6552 124.434 21.1629 124.022 21.5937C123.627 21.9894 123.151 22.2983 122.625 22.4999C121.538 22.9334 120.32 22.9252 119.239 22.4773C118.699 22.2487 118.206 21.9255 117.785 21.5234C117.346 21.0946 117 20.5828 116.768 20.0191C116.515 19.3953 116.391 18.7284 116.402 18.057C116.392 17.3893 116.52 16.7266 116.777 16.1086C117.008 15.5489 117.35 15.0404 117.785 14.6133C118.207 14.2085 118.7 13.883 119.241 13.6526C119.771 13.4274 120.342 13.311 120.919 13.3105C121.5 13.3081 122.076 13.4206 122.611 13.6413C123.14 13.8604 123.616 14.1861 124.008 14.5974C124.423 15.0339 124.748 15.5456 124.965 16.1041C125.208 16.7364 125.328 17.4082 125.317 18.0842Z" fill="black"/>
</svg>
