<svg width="54" height="41" viewBox="0 0 54 41" fill="none" xmlns="http://www.w3.org/2000/svg">
<path d="M49.3275 0H5.51122C2.9381 0 0.838867 2.10518 0.838867 4.69068V35.9619C0.838867 38.5386 2.92876 40.6525 5.51122 40.6525H49.3275C51.8942 40.6525 53.9999 38.5545 53.9999 35.9619V4.69068C53.9999 2.11393 51.91 0 49.3275 0ZM48.6823 3.12712L27.5184 24.3741L6.17148 3.12712H48.6823ZM3.95377 35.3143V5.32329L18.955 20.2542L3.95377 35.3143ZM6.15632 37.5254L21.167 22.4558L26.4268 27.6908C27.0356 28.2969 28.0182 28.2949 28.6245 27.686L33.753 22.5375L48.6824 37.5254H6.15632ZM50.885 35.3142L35.9556 20.3263L50.885 5.3382V35.3142Z" fill="#47BD9C"/>
</svg>
