<svg width="42" height="41" viewBox="0 0 42 41" fill="none" xmlns="http://www.w3.org/2000/svg">
<path fill-rule="evenodd" clip-rule="evenodd" d="M35.4709 5.59252C31.6311 1.76782 26.5244 -0.339432 21.0841 -0.341675C9.87385 -0.341675 0.750301 8.73507 0.745792 19.8912C0.744289 23.4574 1.68069 26.9387 3.46056 30.0072L0.575195 40.4923L11.3569 37.6785C14.3277 39.2908 17.6722 40.1404 21.0759 40.1414H21.0844C32.2934 40.1414 41.418 31.0639 41.4222 19.9074C41.4245 14.5005 39.3109 9.41697 35.4709 5.59252ZM21.0841 36.7242H21.0771C18.044 36.723 15.0692 35.912 12.4734 34.38L11.8564 34.0153L5.45837 35.6852L7.16609 29.4791L6.76403 28.8428C5.07184 26.165 4.17827 23.0701 4.17977 19.8924C4.18328 10.6198 11.7667 3.07578 21.0909 3.07578C25.6061 3.07728 29.8505 4.82887 33.042 8.00782C36.2334 11.1868 37.99 15.4122 37.9885 19.9061C37.9845 29.1795 30.4016 36.7242 21.0841 36.7242ZM30.3565 24.1283C29.8485 23.8751 27.3499 22.6524 26.8839 22.4834C26.4185 22.3147 26.0793 22.2307 25.7409 22.7366C25.4019 23.2426 24.4282 24.3815 24.1316 24.7188C23.835 25.0562 23.5389 25.0986 23.0306 24.8454C22.5223 24.5924 20.885 24.0583 18.9438 22.3359C17.4332 20.9952 16.4134 19.3396 16.1168 18.8337C15.8207 18.3272 16.1143 18.08 16.3397 17.8018C16.8899 17.1222 17.4407 16.4096 17.6101 16.0724C17.7797 15.735 17.6947 15.4396 17.5675 15.1867C17.4407 14.9337 16.4244 12.4451 16.0011 11.4325C15.5882 10.447 15.1696 10.5801 14.8575 10.5647C14.5614 10.55 14.2224 10.547 13.8835 10.547C13.5448 10.547 12.9942 10.6733 12.5282 11.1798C12.0625 11.686 10.7499 12.9089 10.7499 15.3975C10.7499 17.8861 12.5708 20.2902 12.8248 20.6276C13.0789 20.9651 16.4084 26.0718 21.506 28.2616C22.7185 28.783 23.6649 29.0938 24.4031 29.3268C25.6206 29.7116 26.7281 29.6573 27.6039 29.5272C28.5804 29.3819 30.6103 28.3039 31.0341 27.1231C31.4575 25.942 31.4575 24.9299 31.3302 24.7188C31.2035 24.5079 30.8645 24.3815 30.3565 24.1283Z" fill="#47BD9C"/>
</svg>
